<?xml version="1.0" encoding="UTF-8" standalone="no"?>
<!-- Generated by CodeCogs with dvisvgm 3.4.3 -->

<svg
   version="1.1"
   style="display:block"
   width="351.56219pt"
   height="15pt"
   viewBox="-0.329 -0.35484 351.56219 14.999999"
   id="svg45"
   sodipodi:docname="BodySize公式.svg"
   inkscape:version="1.4 (86a8ad7, 2024-10-11)"
   xmlns:inkscape="http://www.inkscape.org/namespaces/inkscape"
   xmlns:sodipodi="http://sodipodi.sourceforge.net/DTD/sodipodi-0.dtd"
   xmlns:xlink="http://www.w3.org/1999/xlink"
   xmlns="http://www.w3.org/2000/svg"
   xmlns:svg="http://www.w3.org/2000/svg">
  <sodipodi:namedview
     id="namedview45"
     pagecolor="#ffffff"
     bordercolor="#000000"
     borderopacity="0.25"
     inkscape:showpageshadow="2"
     inkscape:pageopacity="0.0"
     inkscape:pagecheckerboard="0"
     inkscape:deskcolor="#d1d1d1"
     inkscape:document-units="pt"
     inkscape:zoom="2.6790885"
     inkscape:cx="218.17122"
     inkscape:cy="-4.665766"
     inkscape:window-width="1920"
     inkscape:window-height="1009"
     inkscape:window-x="1912"
     inkscape:window-y="-8"
     inkscape:window-maximized="1"
     inkscape:current-layer="svg45" />
  <defs
     id="defs1">
    <path
       id="g0-2"
       d="M 4.65056,-3.323537 2.259527,-5.702615 C 2.116065,-5.846077 2.092154,-5.869988 1.996513,-5.869988 c -0.119552,0 -0.239103,0.107597 -0.239103,0.239104 0,0.083686 0.02391,0.107596 0.155417,0.239103 l 2.391034,2.402989 -2.391034,2.402989 C 1.78132,-0.454296 1.75741,-0.430386 1.75741,-0.3467 c 0,0.131507 0.119551,0.239103 0.239103,0.239103 0.095641,0 0.119552,-0.02391 0.263014,-0.167372 l 2.379078,-2.379078 2.47472,2.474719 c 0.02391,0.011956 0.107597,0.071731 0.179328,0.071731 0.143462,0 0.239103,-0.107596 0.239103,-0.239103 0,-0.02391 0,-0.071731 -0.035866,-0.131507 -0.011955,-0.02391 -1.912826,-1.900871 -2.510585,-2.510585 l 2.187796,-2.187796 c 0.059776,-0.071731 0.239103,-0.227148 0.298879,-0.298879 0.011955,-0.02391 0.059776,-0.071731 0.059776,-0.155417 0,-0.131507 -0.095641,-0.239104 -0.239103,-0.239104 -0.095642,0 -0.143462,0.047821 -0.274969,0.179328 z" />
    <path
       id="g1-66"
       d="M 4.375592,-7.352428 C 4.483188,-7.79477 4.531009,-7.81868 4.99726,-7.81868 h 1.554172 c 1.350934,0 1.350934,1.147696 1.350934,1.255293 0,0.968368 -0.968368,2.199751 -2.546451,2.199751 H 3.634371 Z m 2.020423,3.084433 C 7.699128,-4.507098 8.88269,-5.415691 8.88269,-6.515567 8.88269,-7.44807 8.057783,-8.16538 6.706849,-8.16538 H 2.86924 c -0.227148,0 -0.334744,0 -0.334744,0.227148 0,0.119552 0.107596,0.119552 0.286924,0.119552 0.729265,0 0.729265,0.095641 0.729265,0.227148 0,0.023911 0,0.095642 -0.047821,0.274969 L 1.888917,-0.884682 C 1.78132,-0.466252 1.75741,-0.3467 0.920548,-0.3467 c -0.227148,0 -0.3467,0 -0.3467,0.215193 C 0.573848,0 0.645579,0 0.884682,0 h 4.100623 c 1.829141,0 3.239851,-1.3868 3.239851,-2.594271 0,-0.980324 -0.860772,-1.578083 -1.829141,-1.673724 z M 4.698381,-0.3467 H 3.084433 c -0.167372,0 -0.191282,0 -0.263013,-0.011955 -0.131507,-0.011955 -0.143462,-0.035866 -0.143462,-0.131507 0,-0.083686 0.02391,-0.155417 0.04782,-0.263014 L 3.56264,-4.124533 h 2.247572 c 1.41071,0 1.41071,1.315068 1.41071,1.41071 0,1.147696 -1.0401,2.367123 -2.522541,2.367123 z" />
    <path
       id="g1-67"
       d="m 8.930511,-8.308842 c 0,-0.107596 -0.083687,-0.107596 -0.107597,-0.107596 -0.02391,0 -0.071731,0 -0.167372,0.119551 L 7.830635,-7.292653 C 7.412204,-8.009963 6.75467,-8.416438 5.858032,-8.416438 c -2.582316,0 -5.260274,2.618181 -5.260274,5.427646 0,1.996513 1.398755,3.239851 3.14421,3.239851 0.956413,0 1.793275,-0.406476 2.486675,-0.992279 1.040099,-0.872728 1.350934,-2.032379 1.350934,-2.12802 0,-0.107597 -0.095642,-0.107597 -0.131507,-0.107597 -0.107597,0 -0.119552,0.071731 -0.143462,0.119552 -0.549938,1.865006 -2.163886,2.761644 -3.359403,2.761644 -1.267247,0 -2.367123,-0.812952 -2.367123,-2.510586 0,-0.382565 0.119552,-2.462764 1.470486,-4.028891 0.657534,-0.765131 1.78132,-1.43462 2.917061,-1.43462 1.315068,0 1.900872,1.08792 1.900872,2.307347 0,0.310834 -0.035866,0.573848 -0.035866,0.621669 0,0.107596 0.119552,0.107596 0.155417,0.107596 0.131507,0 0.143462,-0.011955 0.191283,-0.227148 z" />
    <path
       id="g1-68"
       d="M 1.876961,-0.884682 C 1.769365,-0.466252 1.745455,-0.3467 0.908593,-0.3467 c -0.227148,0 -0.3467,0 -0.3467,0.215193 C 0.561893,0 0.633624,0 0.872727,0 h 3.789789 c 2.414944,0 4.770112,-2.49863 4.770112,-5.164633 0,-1.721544 -1.028145,-3.000747 -2.737734,-3.000747 H 2.857285 c -0.227148,0 -0.334745,0 -0.334745,0.227148 0,0.119552 0.107597,0.119552 0.286925,0.119552 0.729265,0 0.729265,0.095641 0.729265,0.227148 0,0.023911 0,0.095642 -0.047821,0.274969 z M 4.399502,-7.352428 C 4.507098,-7.79477 4.554919,-7.81868 5.021171,-7.81868 h 1.315068 c 1.123786,0 2.15193,0.609714 2.15193,2.259527 0,0.597758 -0.239103,2.677957 -1.398754,3.993026 C 6.75467,-1.171606 5.846077,-0.3467 4.471233,-0.3467 H 3.108344 c -0.167373,0 -0.191283,0 -0.263014,-0.011955 -0.131507,-0.011955 -0.143462,-0.035866 -0.143462,-0.131507 0,-0.083686 0.02391,-0.155417 0.047821,-0.263014 z" />
    <path
       id="g1-80"
       d="m 3.53873,-3.801743 h 2.008468 c 1.649813,0 3.299626,-1.219428 3.299626,-2.582317 0,-0.932503 -0.789041,-1.78132 -2.295392,-1.78132 H 2.857285 c -0.227148,0 -0.334745,0 -0.334745,0.227148 0,0.119552 0.107597,0.119552 0.286925,0.119552 0.729265,0 0.729265,0.095641 0.729265,0.227148 0,0.023911 0,0.095642 -0.047821,0.274969 L 1.876961,-0.884682 C 1.769365,-0.466252 1.745455,-0.3467 0.908593,-0.3467 c -0.227148,0 -0.3467,0 -0.3467,0.215193 C 0.561893,0 0.669489,0 0.74122,0 0.968369,0 1.207472,-0.02391 1.43462,-0.02391 H 2.833375 C 3.060523,-0.02391 3.311582,0 3.53873,0 3.634371,0 3.765878,0 3.765878,-0.227148 3.765878,-0.3467 3.658281,-0.3467 3.478954,-0.3467 c -0.71731,0 -0.729265,-0.083686 -0.729265,-0.203238 0,-0.059776 0.011955,-0.143462 0.02391,-0.203238 z M 4.399502,-7.352428 C 4.507098,-7.79477 4.554919,-7.81868 5.021171,-7.81868 h 1.183561 c 0.896638,0 1.637858,0.286924 1.637858,1.183562 0,0.310834 -0.155417,1.327023 -0.705355,1.876961 -0.203237,0.215193 -0.777086,0.66949 -1.865006,0.66949 H 3.58655 Z" />
    <path
       id="g1-83"
       d="m 7.591532,-8.308842 c 0,-0.107596 -0.083686,-0.107596 -0.107597,-0.107596 -0.04782,0 -0.059776,0.011955 -0.203238,0.191282 -0.071731,0.083687 -0.561893,0.705355 -0.573848,0.71731 -0.39452,-0.777086 -1.183561,-0.908592 -1.685678,-0.908592 -1.518307,0 -2.893151,1.386799 -2.893151,2.737733 0,0.896638 0.537982,1.422665 1.123786,1.625903 0.131507,0.047821 0.836861,0.239103 1.195517,0.32279 0.609713,0.167372 0.76513,0.215193 1.016189,0.478206 0.047821,0.059776 0.286924,0.334745 0.286924,0.896638 0,1.111831 -1.028145,2.259527 -2.223661,2.259527 -0.980324,0 -2.068244,-0.418431 -2.068244,-1.75741 0,-0.227148 0.04782,-0.514072 0.083686,-0.633624 0,-0.035865 0.011955,-0.095641 0.011955,-0.119552 0,-0.04782 -0.02391,-0.107596 -0.119552,-0.107596 -0.107596,0 -0.119552,0.02391 -0.167372,0.227148 l -0.609714,2.450809 c 0,0.011956 -0.04782,0.167373 -0.04782,0.179328 0,0.107597 0.095641,0.107597 0.119551,0.107597 0.047821,0 0.059776,-0.011956 0.203238,-0.191283 l 0.549938,-0.71731 c 0.286924,0.430386 0.908593,0.908593 2.020423,0.908593 1.542217,0 2.952927,-1.494396 2.952927,-2.988792 0,-0.502118 -0.119552,-0.944459 -0.573848,-1.3868 C 5.630884,-4.375592 5.415691,-4.435367 4.315816,-4.722291 3.514819,-4.937484 3.407223,-4.97335 3.19203,-5.164633 2.988792,-5.36787 2.833375,-5.654795 2.833375,-6.06127 c 0,-1.004234 1.016189,-2.032379 2.15193,-2.032379 1.171607,0 1.721544,0.71731 1.721544,1.853051 0,0.310835 -0.059776,0.633624 -0.059776,0.681445 0,0.107596 0.095642,0.107596 0.131507,0.107596 0.107597,0 0.119552,-0.035865 0.167373,-0.227148 z" />
    <path
       id="g1-84"
       d="m 4.985305,-7.292653 c 0.071731,-0.286924 0.095641,-0.39452 0.274969,-0.442341 0.095641,-0.02391 0.490162,-0.02391 0.74122,-0.02391 1.195517,0 1.75741,0.047821 1.75741,0.980324 0,0.179327 -0.047821,0.633624 -0.119552,1.075965 l -0.011955,0.143462 c 0,0.04782 0.047821,0.119552 0.119552,0.119552 0.119552,0 0.119552,-0.059776 0.155417,-0.251059 l 0.3467,-2.116065 c 0.02391,-0.107596 0.02391,-0.131507 0.02391,-0.167372 0,-0.131507 -0.071731,-0.131507 -0.310834,-0.131507 H 1.422665 c -0.274969,0 -0.286924,0.011955 -0.358655,0.227148 l -0.729265,2.15193 c -0.011955,0.023911 -0.047821,0.155418 -0.047821,0.167373 0,0.059776 0.047821,0.119552 0.119552,0.119552 0.095641,0 0.119551,-0.047821 0.167372,-0.203238 0.502117,-1.446576 0.753176,-2.116065 2.343213,-2.116065 h 0.800996 c 0.286924,0 0.406476,0 0.406476,0.131507 0,0.035865 0,0.059776 -0.059776,0.274969 L 2.462765,-0.932503 C 2.343213,-0.466252 2.319303,-0.3467 1.052055,-0.3467 c -0.298879,0 -0.382566,0 -0.382566,0.227148 C 0.669489,0 0.800996,0 0.860772,0 1.159651,0 1.470486,-0.02391 1.769365,-0.02391 H 3.634371 C 3.93325,-0.02391 4.25604,0 4.554919,0 4.686426,0 4.805978,0 4.805978,-0.227148 4.805978,-0.3467 4.722291,-0.3467 4.411457,-0.3467 c -1.075965,0 -1.075965,-0.107596 -1.075965,-0.286924 0,-0.011955 0,-0.095641 0.047821,-0.286924 z" />
    <path
       id="g1-97"
       d="m 3.598506,-1.422665 c -0.059776,0.203238 -0.059776,0.227148 -0.227149,0.454296 -0.263013,0.334745 -0.789041,0.848817 -1.350934,0.848817 -0.490161,0 -0.76513,-0.442341 -0.76513,-1.147696 0,-0.657534 0.37061,-1.996513 0.597758,-2.49863 0.406476,-0.836862 0.968369,-1.267248 1.43462,-1.267248 0.789041,0 0.944459,0.980324 0.944459,1.075965 0,0.011956 -0.035866,0.167373 -0.047821,0.191283 z m 0.76513,-3.060523 C 4.23213,-4.794022 3.90934,-5.272229 3.287671,-5.272229 c -1.350934,0 -2.809464,1.745454 -2.809464,3.514819 0,1.183562 0.693399,1.876962 1.506351,1.876962 0.657534,0 1.219427,-0.514073 1.554172,-0.908593 0.119551,0.705355 0.681444,0.908593 1.040099,0.908593 0.358655,0 0.645579,-0.215193 0.860772,-0.645579 0.191283,-0.406476 0.358656,-1.135741 0.358656,-1.183562 0,-0.059776 -0.047821,-0.107597 -0.119552,-0.107597 -0.107597,0 -0.119552,0.059776 -0.167372,0.239104 -0.179328,0.705355 -0.406476,1.45853 -0.896638,1.45853 -0.3467,0 -0.37061,-0.310834 -0.37061,-0.549937 0,-0.274969 0.035865,-0.406476 0.143462,-0.872728 0.083686,-0.298879 0.143462,-0.561893 0.239103,-0.908592 0.442341,-1.793276 0.549938,-2.223662 0.549938,-2.295393 0,-0.167372 -0.131507,-0.298879 -0.310835,-0.298879 -0.382565,0 -0.478206,0.418431 -0.502117,0.561893 z" />
    <path
       id="g1-100"
       d="m 6.01345,-7.998007 c 0.011955,-0.047821 0.035865,-0.119552 0.035865,-0.179328 0,-0.119552 -0.119552,-0.119552 -0.143462,-0.119552 -0.011955,0 -0.597758,0.047821 -0.657534,0.059776 -0.203238,0.011955 -0.382566,0.035866 -0.597759,0.047821 -0.298879,0.02391 -0.382565,0.035865 -0.382565,0.251058 0,0.119552 0.095641,0.119552 0.263014,0.119552 0.585803,0 0.597758,0.107597 0.597758,0.227148 0,0.071731 -0.02391,0.167373 -0.035865,0.203238 L 4.363636,-4.483188 C 4.23213,-4.794022 3.90934,-5.272229 3.287671,-5.272229 c -1.350934,0 -2.809464,1.745454 -2.809464,3.514819 0,1.183562 0.693399,1.876962 1.506351,1.876962 0.657534,0 1.219427,-0.514073 1.554172,-0.908593 0.119551,0.705355 0.681444,0.908593 1.040099,0.908593 0.358655,0 0.645579,-0.215193 0.860772,-0.645579 0.191283,-0.406476 0.358656,-1.135741 0.358656,-1.183562 0,-0.059776 -0.047821,-0.107597 -0.119552,-0.107597 -0.107597,0 -0.119552,0.059776 -0.167372,0.239104 -0.179328,0.705355 -0.406476,1.45853 -0.896638,1.45853 -0.3467,0 -0.37061,-0.310834 -0.37061,-0.549937 0,-0.047821 0,-0.29888 0.083686,-0.633624 z m -2.414944,6.575342 c -0.059776,0.203238 -0.059776,0.227148 -0.227149,0.454296 -0.263013,0.334745 -0.789041,0.848817 -1.350934,0.848817 -0.490161,0 -0.76513,-0.442341 -0.76513,-1.147696 0,-0.657534 0.37061,-1.996513 0.597758,-2.49863 0.406476,-0.836862 0.968369,-1.267248 1.43462,-1.267248 0.789041,0 0.944459,0.980324 0.944459,1.075965 0,0.011956 -0.035866,0.167373 -0.047821,0.191283 z" />
    <path
       id="g1-101"
       d="m 2.139975,-2.773599 c 0.32279,0 1.135741,-0.02391 1.709589,-0.239103 0.908593,-0.3467 0.992279,-1.0401 0.992279,-1.255293 0,-0.526027 -0.454296,-1.004234 -1.243337,-1.004234 -1.255293,0 -3.060523,1.135741 -3.060523,3.263761 0,1.255292 0.71731,2.12802 1.80523,2.12802 1.625903,0 2.654047,-1.267248 2.654047,-1.422665 0,-0.071731 -0.071731,-0.131507 -0.119551,-0.131507 -0.035866,0 -0.047821,0.011955 -0.155418,0.119552 -0.76513,1.016189 -1.900871,1.195516 -2.355168,1.195516 -0.681444,0 -1.040099,-0.537982 -1.040099,-1.422665 0,-0.167372 0,-0.466251 0.179327,-1.231382 z M 1.566127,-3.012702 c 0.514072,-1.841096 1.649813,-2.020424 2.032379,-2.020424 0.526027,0 0.884682,0.310835 0.884682,0.765131 0,1.255293 -1.912827,1.255293 -2.414944,1.255293 z" />
    <path
       id="g1-104"
       d="m 3.359402,-7.998007 c 0.011955,-0.047821 0.035866,-0.119552 0.035866,-0.179328 0,-0.119552 -0.119552,-0.119552 -0.143462,-0.119552 -0.011955,0 -0.597759,0.047821 -0.657535,0.059776 -0.203237,0.011955 -0.382565,0.035866 -0.597758,0.047821 -0.298879,0.02391 -0.382565,0.035865 -0.382565,0.251058 0,0.119552 0.095641,0.119552 0.263013,0.119552 0.585804,0 0.597759,0.107597 0.597759,0.227148 0,0.071731 -0.023911,0.167373 -0.035866,0.203238 l -1.733499,6.922042 c -0.047821,0.179328 -0.047821,0.203238 -0.047821,0.274969 0,0.263014 0.203238,0.310835 0.32279,0.310835 0.203238,0 0.358655,-0.155418 0.418431,-0.286924 l 0.537982,-2.163886 c 0.059776,-0.263013 0.131507,-0.514072 0.191283,-0.777086 0.131507,-0.502117 0.131507,-0.514072 0.358655,-0.860772 0.227148,-0.3467 0.765131,-1.06401 1.685679,-1.06401 0.478206,0 0.645579,0.358655 0.645579,0.836862 0,0.669489 -0.466252,1.972603 -0.729266,2.689913 -0.107596,0.286924 -0.167372,0.442341 -0.167372,0.657534 0,0.537983 0.37061,0.968369 0.944458,0.968369 1.111831,0 1.530262,-1.75741 1.530262,-1.829141 0,-0.059776 -0.047821,-0.107597 -0.119552,-0.107597 -0.107596,0 -0.119551,0.035866 -0.179327,0.239104 -0.274969,0.956413 -0.71731,1.45853 -1.195517,1.45853 -0.119552,0 -0.310834,-0.011955 -0.310834,-0.39452 0,-0.310835 0.143462,-0.6934 0.191282,-0.824907 0.215193,-0.573848 0.753176,-1.984558 0.753176,-2.677957 0,-0.717311 -0.418431,-1.255293 -1.327024,-1.255293 -0.681444,0 -1.279203,0.322789 -1.769365,0.944458 z" />
    <path
       id="g1-105"
       d="m 3.383313,-1.709589 c 0,-0.059776 -0.047821,-0.107597 -0.119552,-0.107597 -0.107597,0 -0.119552,0.035866 -0.179328,0.239104 -0.310834,1.08792 -0.800996,1.45853 -1.195516,1.45853 -0.143462,0 -0.310835,-0.035865 -0.310835,-0.39452 0,-0.32279 0.143462,-0.681445 0.274969,-1.0401 l 0.836862,-2.223661 c 0.035865,-0.095641 0.119552,-0.310834 0.119552,-0.537983 0,-0.502117 -0.358656,-0.956413 -0.944459,-0.956413 -1.099875,0 -1.542216,1.733499 -1.542216,1.829141 0,0.04782 0.04782,0.107596 0.131506,0.107596 0.107597,0 0.119552,-0.047821 0.167373,-0.215193 0.286924,-1.004234 0.74122,-1.482441 1.207472,-1.482441 0.107596,0 0.310834,0.011955 0.310834,0.394521 0,0.310834 -0.155417,0.705355 -0.251058,0.968368 l -0.836862,2.223662 c -0.071731,0.191282 -0.143462,0.382565 -0.143462,0.597758 0,0.537983 0.37061,0.968369 0.944458,0.968369 1.099876,0 1.530262,-1.745455 1.530262,-1.829141 z M 3.287671,-7.460025 c 0,-0.179327 -0.143462,-0.39452 -0.406475,-0.39452 -0.274969,0 -0.585804,0.263013 -0.585804,0.573848 0,0.298879 0.251059,0.39452 0.394521,0.39452 0.322789,0 0.597758,-0.310834 0.597758,-0.573848 z" />
    <path
       id="g1-108"
       d="m 3.036613,-7.998007 c 0.011955,-0.047821 0.035865,-0.119552 0.035865,-0.179328 0,-0.119552 -0.119551,-0.119552 -0.143462,-0.119552 -0.011955,0 -0.442341,0.035866 -0.657534,0.059776 -0.203238,0.011955 -0.382565,0.035866 -0.597758,0.047821 -0.286924,0.02391 -0.370611,0.035865 -0.370611,0.251058 0,0.119552 0.119552,0.119552 0.239104,0.119552 0.609713,0 0.609713,0.107597 0.609713,0.227148 0,0.047821 0,0.071731 -0.059776,0.286924 l -1.48244,5.929764 c -0.035866,0.131507 -0.059776,0.227148 -0.059776,0.418431 0,0.597758 0.442341,1.075965 1.052055,1.075965 0.39452,0 0.657534,-0.263014 0.848816,-0.633624 0.203238,-0.394521 0.370611,-1.147696 0.370611,-1.195517 0,-0.059776 -0.047821,-0.107597 -0.119552,-0.107597 -0.107597,0 -0.119552,0.059776 -0.167372,0.239104 -0.215193,0.824906 -0.430386,1.45853 -0.908593,1.45853 -0.358655,0 -0.358655,-0.382565 -0.358655,-0.549937 0,-0.047821 0,-0.29888 0.083686,-0.633624 z" />
    <path
       id="g1-110"
       d="m 2.462765,-3.502864 c 0.02391,-0.071731 0.322789,-0.66949 0.76513,-1.052055 0.310835,-0.286924 0.71731,-0.478207 1.183562,-0.478207 0.478207,0 0.645579,0.358655 0.645579,0.836862 0,0.681445 -0.490162,2.044334 -0.729265,2.689913 -0.107597,0.286924 -0.167372,0.442341 -0.167372,0.657534 0,0.537983 0.37061,0.968369 0.944458,0.968369 1.11183,0 1.530261,-1.75741 1.530261,-1.829141 0,-0.059776 -0.04782,-0.107597 -0.119551,-0.107597 -0.107597,0 -0.119552,0.035866 -0.179328,0.239104 -0.274969,0.980324 -0.729265,1.45853 -1.195517,1.45853 -0.119551,0 -0.310834,-0.011955 -0.310834,-0.39452 0,-0.298879 0.131507,-0.657534 0.203238,-0.824907 0.239103,-0.657534 0.74122,-1.996513 0.74122,-2.677957 0,-0.717311 -0.418431,-1.255293 -1.327023,-1.255293 -1.06401,0 -1.625903,0.753175 -1.841096,1.052055 -0.035866,-0.681445 -0.526028,-1.052055 -1.052055,-1.052055 -0.382566,0 -0.645579,0.227148 -0.848817,0.633624 -0.215193,0.430386 -0.382565,1.147696 -0.382565,1.195517 0,0.047821 0.04782,0.107596 0.131506,0.107596 0.095642,0 0.107597,-0.011955 0.179328,-0.286924 0.191283,-0.729265 0.406476,-1.41071 0.884682,-1.41071 0.274969,0 0.370611,0.191283 0.370611,0.549938 0,0.263014 -0.119552,0.729265 -0.203238,1.099875 l -0.334745,1.291159 c -0.047821,0.227148 -0.179328,0.76513 -0.239103,0.980323 -0.083687,0.310835 -0.215193,0.872728 -0.215193,0.932503 0,0.167373 0.131506,0.29888 0.310834,0.29888 0.143462,0 0.310834,-0.071731 0.406476,-0.251059 0.02391,-0.059776 0.131507,-0.478207 0.191282,-0.71731 l 0.263014,-1.075965 z" />
    <path
       id="g1-111"
       d="m 5.451557,-3.287671 c 0,-1.135741 -0.741221,-1.984558 -1.829141,-1.984558 -1.578082,0 -3.132254,1.721544 -3.132254,3.407223 0,1.135741 0.74122,1.984558 1.829141,1.984558 1.590037,0 3.132254,-1.721545 3.132254,-3.407223 z m -3.120299,3.168119 c -0.597759,0 -1.0401,-0.478206 -1.0401,-1.315068 0,-0.549938 0.286924,-1.769365 0.621669,-2.367123 0.537982,-0.920548 1.207472,-1.231383 1.697634,-1.231383 0.585803,0 1.040099,0.478207 1.040099,1.315069 0,0.478206 -0.251058,1.757409 -0.705355,2.486675 -0.490161,0.800996 -1.147696,1.11183 -1.613947,1.11183 z" />
    <path
       id="g1-112"
       d="m 0.514072,1.518306 c -0.083686,0.358655 -0.131507,0.454297 -0.621669,0.454297 -0.143462,0 -0.263013,0 -0.263013,0.227148 0,0.02391 0.011955,0.119552 0.143462,0.119552 0.155417,0 0.322789,-0.023911 0.478207,-0.023911 h 0.514072 c 0.251058,0 0.860772,0.023911 1.11183,0.023911 0.071731,0 0.215193,0 0.215193,-0.215193 0,-0.131507 -0.083686,-0.131507 -0.286924,-0.131507 -0.549937,0 -0.585803,-0.083686 -0.585803,-0.179328 0,-0.143462 0.537983,-2.199751 0.609714,-2.47472 0.131507,0.334745 0.454296,0.800997 1.075965,0.800997 1.350934,0 2.809464,-1.75741 2.809464,-3.51482 0,-1.099875 -0.621668,-1.876961 -1.518306,-1.876961 -0.765131,0 -1.41071,0.74122 -1.542217,0.908593 -0.095641,-0.597759 -0.561893,-0.908593 -1.040099,-0.908593 -0.3467,0 -0.621669,0.167372 -0.848817,0.621669 -0.215193,0.430386 -0.382566,1.159651 -0.382566,1.207472 0,0.047821 0.047821,0.107596 0.131507,0.107596 0.095642,0 0.107597,-0.011955 0.179328,-0.286924 0.179327,-0.705355 0.406475,-1.41071 0.884682,-1.41071 0.274969,0 0.37061,0.191283 0.37061,0.549938 0,0.286924 -0.035865,0.406476 -0.083686,0.621669 z m 2.068244,-5.248318 c 0.083686,-0.334745 0.418431,-0.681445 0.609714,-0.848817 0.131507,-0.119552 0.526027,-0.454297 0.980324,-0.454297 0.526027,0 0.76513,0.526028 0.76513,1.147696 0,0.573848 -0.334744,1.924782 -0.633623,2.546451 -0.29888,0.645579 -0.848817,1.219427 -1.398755,1.219427 -0.812952,0 -0.944458,-1.028144 -0.944458,-1.075965 0,-0.035865 0.02391,-0.131507 0.035865,-0.191283 z" />
    <path
       id="g1-116"
       d="m 2.402989,-4.805978 h 1.099875 c 0.227148,0 0.3467,0 0.3467,-0.215193 0,-0.131506 -0.071731,-0.131506 -0.310834,-0.131506 H 2.486675 l 0.442341,-1.745455 c 0.047821,-0.167372 0.047821,-0.191283 0.047821,-0.274969 0,-0.191283 -0.155417,-0.298879 -0.310835,-0.298879 -0.095641,0 -0.37061,0.035865 -0.466251,0.418431 L 1.733499,-5.152677 H 0.609714 c -0.239104,0 -0.3467,0 -0.3467,0.227148 0,0.119551 0.083686,0.119551 0.310834,0.119551 h 1.06401 l -0.789041,3.156165 c -0.095641,0.418431 -0.131507,0.537982 -0.131507,0.6934 0,0.561892 0.394521,1.075965 1.06401,1.075965 1.207472,0 1.853051,-1.745455 1.853051,-1.829141 0,-0.071731 -0.047821,-0.107597 -0.119552,-0.107597 -0.02391,0 -0.071731,0 -0.095641,0.047821 -0.011955,0.011955 -0.02391,0.02391 -0.107596,0.215193 -0.251059,0.597759 -0.800997,1.43462 -1.494396,1.43462 -0.358655,0 -0.382566,-0.298879 -0.382566,-0.561893 0,-0.011955 0,-0.239103 0.035866,-0.382565 z" />
    <path
       id="g1-117"
       d="m 4.076712,-0.6934 c 0.155418,0.66949 0.729266,0.812952 1.01619,0.812952 0.382565,0 0.669489,-0.251059 0.860772,-0.657535 0.203238,-0.430386 0.358655,-1.135741 0.358655,-1.171606 0,-0.059776 -0.047821,-0.107597 -0.119552,-0.107597 -0.107596,0 -0.119552,0.059776 -0.167372,0.239104 -0.215193,0.824906 -0.430386,1.45853 -0.908593,1.45853 -0.358655,0 -0.358655,-0.39452 -0.358655,-0.549937 0,-0.274969 0.035865,-0.394521 0.155417,-0.896638 0.083686,-0.32279 0.167372,-0.645579 0.239103,-0.980324 l 0.490162,-1.948692 c 0.083687,-0.298879 0.083687,-0.32279 0.083687,-0.358655 0,-0.179328 -0.143462,-0.298879 -0.32279,-0.298879 -0.3467,0 -0.430386,0.298879 -0.502117,0.597758 -0.119552,0.466252 -0.765131,3.036613 -0.848817,3.455044 -0.011955,0 -0.478207,0.980323 -1.350934,0.980323 -0.621669,0 -0.74122,-0.537982 -0.74122,-0.980323 0,-0.681445 0.334744,-1.637858 0.645579,-2.438855 0.143462,-0.382565 0.203238,-0.537982 0.203238,-0.777086 0,-0.514072 -0.370611,-0.956413 -0.944459,-0.956413 -1.099875,0 -1.542216,1.733499 -1.542216,1.829141 0,0.04782 0.04782,0.107596 0.131506,0.107596 0.107597,0 0.119552,-0.047821 0.167373,-0.215193 0.286924,-1.028144 0.753175,-1.482441 1.207472,-1.482441 0.119551,0 0.310834,0.011955 0.310834,0.394521 0,0.310834 -0.131507,0.657534 -0.310834,1.11183 -0.526028,1.422665 -0.585804,1.876962 -0.585804,2.235617 0,1.219427 0.920548,1.41071 1.41071,1.41071 0.765131,0 1.183562,-0.526028 1.422665,-0.812952 z" />
    <path
       id="g1-121"
       d="M 3.144209,1.338979 C 2.82142,1.793275 2.355168,2.199751 1.769365,2.199751 c -0.143462,0 -0.71731,-0.02391 -0.896638,-0.573848 0.035866,0.011955 0.095642,0.011955 0.119552,0.011955 0.358655,0 0.597758,-0.310834 0.597758,-0.585803 0,-0.274969 -0.227148,-0.37061 -0.406475,-0.37061 -0.191283,0 -0.609714,0.143462 -0.609714,0.729265 0,0.609713 0.514072,1.028144 1.195517,1.028144 1.195517,0 2.402989,-1.099875 2.737733,-2.426899 L 5.678705,-4.65056 C 5.69066,-4.710336 5.71457,-4.782067 5.71457,-4.853798 c 0,-0.179328 -0.143462,-0.298879 -0.322789,-0.298879 -0.107597,0 -0.358655,0.04782 -0.454297,0.406475 l -0.884682,3.51482 c -0.059776,0.215193 -0.059776,0.239103 -0.155417,0.37061 -0.239104,0.334745 -0.633624,0.74122 -1.207472,0.74122 -0.66949,0 -0.729265,-0.657534 -0.729265,-0.980323 0,-0.681445 0.322789,-1.601993 0.645579,-2.462765 0.131506,-0.3467 0.203238,-0.514072 0.203238,-0.753176 0,-0.502117 -0.358656,-0.956413 -0.944459,-0.956413 -1.099875,0 -1.542216,1.733499 -1.542216,1.829141 0,0.04782 0.04782,0.107596 0.131506,0.107596 0.107597,0 0.119552,-0.047821 0.167373,-0.215193 0.286924,-1.004234 0.74122,-1.482441 1.207472,-1.482441 0.107596,0 0.310834,0 0.310834,0.394521 0,0.310834 -0.131507,0.657534 -0.310834,1.11183 -0.585804,1.566127 -0.585804,1.960648 -0.585804,2.247572 0,1.135741 0.812952,1.398755 1.41071,1.398755 0.3467,0 0.777086,-0.107597 1.195517,-0.549938 l 0.011955,0.011955 C 3.682192,0.286924 3.56264,0.753176 3.144209,1.338979 Z" />
    <path
       id="g1-122"
       d="m 1.518306,-0.968369 c 0.514073,-0.585803 0.932503,-0.956413 1.530262,-1.494396 0.71731,-0.621668 1.028144,-0.920548 1.195517,-1.099875 0.836861,-0.824907 1.255292,-1.518306 1.255292,-1.613948 0,-0.095642 -0.095641,-0.095641 -0.119551,-0.095641 -0.083687,0 -0.107597,0.047821 -0.167373,0.131507 -0.298879,0.514072 -0.585803,0.76513 -0.896637,0.76513 -0.251059,0 -0.382566,-0.107596 -0.609714,-0.39452 -0.251058,-0.298879 -0.454296,-0.502117 -0.800996,-0.502117 -0.872727,0 -1.398755,1.08792 -1.398755,1.338979 0,0.035865 0.011955,0.107596 0.119552,0.107596 0.095641,0 0.107596,-0.04782 0.143462,-0.131507 0.203238,-0.478206 0.777086,-0.561893 1.004234,-0.561893 0.251059,0 0.490162,0.083687 0.74122,0.191283 0.454297,0.191283 0.64558,0.191283 0.765131,0.191283 0.083686,0 0.131507,0 0.191283,-0.011955 -0.394521,0.466251 -1.0401,1.040099 -1.578082,1.530261 l -1.207472,1.111831 c -0.729266,0.74122 -1.171607,1.446575 -1.171607,1.530261 0,0.071731 0.059776,0.095642 0.131507,0.095642 0.071731,0 0.083686,-0.011955 0.167372,-0.155418 0.191283,-0.298879 0.573849,-0.74122 1.01619,-0.74122 0.251058,0 0.37061,0.083686 0.609713,0.382565 0.227148,0.263014 0.430386,0.514073 0.812952,0.514073 1.171606,0 1.841096,-1.518307 1.841096,-1.793276 0,-0.04782 -0.011956,-0.119551 -0.131507,-0.119551 -0.095642,0 -0.107597,0.04782 -0.143462,0.167372 -0.263014,0.705355 -0.968369,0.992279 -1.43462,0.992279 -0.251059,0 -0.490162,-0.083686 -0.741221,-0.191283 -0.478207,-0.191282 -0.609713,-0.191282 -0.765131,-0.191282 -0.119551,0 -0.251058,0 -0.358655,0.04782 z" />
    <path
       id="g2-61"
       d="m 8.069738,-3.873474 c 0.167373,0 0.382566,0 0.382566,-0.215193 0,-0.227149 -0.203238,-0.227149 -0.382566,-0.227149 H 1.028144 c -0.167372,0 -0.382565,0 -0.382565,0.215193 0,0.227149 0.203238,0.227149 0.382565,0.227149 z m 0,2.223661 c 0.167373,0 0.382566,0 0.382566,-0.215193 0,-0.227148 -0.203238,-0.227148 -0.382566,-0.227148 H 1.028144 c -0.167372,0 -0.382565,0 -0.382565,0.215193 0,0.227148 0.203238,0.227148 0.382565,0.227148 z" />
  </defs>
  <g
     id="page1"
     transform="matrix(1.13,0,0,1.13,-88.062422,-93.299084)">
    <use
       x="77.066345"
       y="92.154419"
       xlink:href="#g1-66"
       id="use1" />
    <use
       x="86.562607"
       y="92.154419"
       xlink:href="#g1-111"
       id="use2" />
    <use
       x="92.190048"
       y="92.154419"
       xlink:href="#g1-100"
       id="use3" />
    <use
       x="98.272736"
       y="92.154419"
       xlink:href="#g1-121"
       id="use4" />
    <use
       x="104.40939"
       y="92.154419"
       xlink:href="#g1-83"
       id="use5" />
    <use
       x="112.30471"
       y="92.154419"
       xlink:href="#g1-105"
       id="use6" />
    <use
       x="116.29815"
       y="92.154419"
       xlink:href="#g1-122"
       id="use7" />
    <use
       x="122.26875"
       y="92.154419"
       xlink:href="#g1-101"
       id="use8" />
    <use
       x="131.01501"
       y="92.154419"
       xlink:href="#g2-61"
       id="use9" />
    <use
       x="143.44051"
       y="92.154419"
       xlink:href="#g1-67"
       id="use10" />
    <use
       x="152.67412"
       y="92.154419"
       xlink:href="#g1-104"
       id="use11" />
    <use
       x="159.41267"
       y="92.154419"
       xlink:href="#g1-97"
       id="use12" />
    <use
       x="165.55762"
       y="92.154419"
       xlink:href="#g1-110"
       id="use13" />
    <use
       x="172.54523"
       y="92.154419"
       xlink:href="#g1-110"
       id="use14" />
    <use
       x="179.53282"
       y="92.154419"
       xlink:href="#g1-101"
       id="use15" />
    <use
       x="184.95827"
       y="92.154419"
       xlink:href="#g1-108"
       id="use16" />
    <use
       x="188.70807"
       y="92.154419"
       xlink:href="#g1-67"
       id="use17" />
    <use
       x="197.94168"
       y="92.154419"
       xlink:href="#g1-111"
       id="use18" />
    <use
       x="203.56912"
       y="92.154419"
       xlink:href="#g1-117"
       id="use19" />
    <use
       x="210.23157"
       y="92.154419"
       xlink:href="#g1-110"
       id="use20" />
    <use
       x="217.21916"
       y="92.154419"
       xlink:href="#g1-116"
       id="use21" />
    <use
       x="224.103"
       y="92.154419"
       xlink:href="#g0-2"
       id="use22" />
    <use
       x="236.05815"
       y="92.154419"
       xlink:href="#g1-68"
       id="use23" />
    <use
       x="246.10263"
       y="92.154419"
       xlink:href="#g1-97"
       id="use24" />
    <use
       x="252.24757"
       y="92.154419"
       xlink:href="#g1-116"
       id="use25" />
    <use
       x="256.47473"
       y="92.154419"
       xlink:href="#g1-97"
       id="use26" />
    <use
       x="262.61969"
       y="92.154419"
       xlink:href="#g1-80"
       id="use27" />
    <use
       x="271.79077"
       y="92.154419"
       xlink:href="#g1-111"
       id="use28" />
    <use
       x="277.41821"
       y="92.154419"
       xlink:href="#g1-105"
       id="use29" />
    <use
       x="281.41165"
       y="92.154419"
       xlink:href="#g1-110"
       id="use30" />
    <use
       x="288.39926"
       y="92.154419"
       xlink:href="#g1-116"
       id="use31" />
    <use
       x="292.6264"
       y="92.154419"
       xlink:href="#g1-67"
       id="use32" />
    <use
       x="301.86002"
       y="92.154419"
       xlink:href="#g1-111"
       id="use33" />
    <use
       x="307.48746"
       y="92.154419"
       xlink:href="#g1-117"
       id="use34" />
    <use
       x="314.1499"
       y="92.154419"
       xlink:href="#g1-110"
       id="use35" />
    <use
       x="321.13751"
       y="92.154419"
       xlink:href="#g1-116"
       id="use36" />
    <use
       x="328.02133"
       y="92.154419"
       xlink:href="#g0-2"
       id="use37" />
    <use
       x="339.9765"
       y="92.154419"
       xlink:href="#g1-84"
       id="use38" />
    <use
       x="348.46332"
       y="92.154419"
       xlink:href="#g1-121"
       id="use39" />
    <use
       x="354.59998"
       y="92.154419"
       xlink:href="#g1-112"
       id="use40" />
    <use
       x="360.47513"
       y="92.154419"
       xlink:href="#g1-101"
       id="use41" />
    <use
       x="365.90057"
       y="92.154419"
       xlink:href="#g1-83"
       id="use42" />
    <use
       x="373.79587"
       y="92.154419"
       xlink:href="#g1-105"
       id="use43" />
    <use
       x="377.78931"
       y="92.154419"
       xlink:href="#g1-122"
       id="use44" />
    <use
       x="383.75992"
       y="92.154419"
       xlink:href="#g1-101"
       id="use45" />
  </g>
</svg>
