<?xml version="1.0" encoding="UTF-8" standalone="no"?>
<!-- Created with Inkscape (http://www.inkscape.org/) -->

<svg
   width="90mm"
   height="60mm"
   viewBox="0 0 90 60"
   version="1.1"
   id="svg1"
   inkscape:version="1.4 (86a8ad7, 2024-10-11)"
   sodipodi:docname="包体内存布局.svg"
   xmlns:inkscape="http://www.inkscape.org/namespaces/inkscape"
   xmlns:sodipodi="http://sodipodi.sourceforge.net/DTD/sodipodi-0.dtd"
   xmlns="http://www.w3.org/2000/svg"
   xmlns:svg="http://www.w3.org/2000/svg">
  <sodipodi:namedview
     id="namedview1"
     pagecolor="#ffffff"
     bordercolor="#000000"
     borderopacity="0.25"
     inkscape:showpageshadow="2"
     inkscape:pageopacity="0.0"
     inkscape:pagecheckerboard="0"
     inkscape:deskcolor="#d1d1d1"
     inkscape:document-units="mm"
     inkscape:zoom="2.0334082"
     inkscape:cx="188.59961"
     inkscape:cy="170.89535"
     inkscape:window-width="1920"
     inkscape:window-height="1009"
     inkscape:window-x="1912"
     inkscape:window-y="-8"
     inkscape:window-maximized="1"
     inkscape:current-layer="layer1" />
  <defs
     id="defs1">
    <clipPath
       clipPathUnits="userSpaceOnUse"
       id="clipEmfPath1">
      <path
         d="M 0,0 H 278.91276 V 190.78047 H 0 Z"
         id="path1" />
    </clipPath>
    <pattern
       id="EMFhbasepattern"
       patternUnits="userSpaceOnUse"
       width="6"
       height="6"
       x="0"
       y="0" />
    <clipPath
       clipPathUnits="userSpaceOnUse"
       id="clipEmfPath1-8">
      <path
         d="M 0,0 H 318.31307 V 217.73858 H 0 Z"
         id="path1-8" />
    </clipPath>
    <pattern
       id="EMFhbasepattern-2"
       patternUnits="userSpaceOnUse"
       width="6"
       height="6"
       x="0"
       y="0" />
  </defs>
  <g
     inkscape:label="图层 1"
     inkscape:groupmode="layer"
     id="layer1">
    <path
       style="fill:#fcebdd;fill-opacity:1;fill-rule:evenodd;stroke:none;stroke-width:0.264583"
       d="M 3.4359001,1.7351366 V 58.024907 H 86.38744 V 1.7351366 Z"
       id="path2" />
    <path
       style="fill:none;stroke:#f9c499;stroke-width:2.0737px;stroke-linecap:round;stroke-linejoin:round;stroke-miterlimit:4;stroke-dasharray:none;stroke-opacity:1"
       clip-path="url(#clipEmfPath1-8)"
       d="M 2.0737008,214.82244 H 315.59134 V 2.0737008 H 2.0737008 Z"
       id="path3"
       transform="matrix(0.26458333,0,0,0.26458333,2.8872331,1.1864696)" />
    <path
       style="fill:#ddd6e5;fill-opacity:1;fill-rule:evenodd;stroke:none;stroke-width:0.264583"
       d="M 5.8191711,2.9353446 V 11.936908 H 84.02132 V 2.9353446 Z"
       id="path4" />
    <path
       style="fill:none;stroke:#ccc2d9;stroke-width:0.548667px;stroke-linecap:round;stroke-linejoin:round;stroke-miterlimit:4;stroke-dasharray:none;stroke-opacity:1"
       d="M 5.8191711,11.936908 H 84.02132 V 2.9353446 H 5.8191711 Z"
       id="path5" />
    <path
       d="M 10.896882,8.5683576 H 10.668714 V 6.7590823 H 11.4432 Q 11.202178,6.6353575 10.945087,6.5116326 l 0.131759,-0.1542544 q 0.25227,0.1221181 0.474011,0.2329884 L 12.12449,6.2898919 H 10.617296 V 6.0842194 h 1.931394 v 0.2153134 l -0.776093,0.4033109 q 0.05624,0.028923 0.109264,0.056239 h 0.689324 v 1.4525621 q 0,0.3663541 -0.337431,0.3663541 -0.167109,0 -0.363141,-0.00964 -0.01607,-0.122118 -0.0482,-0.2474497 0.202459,0.022495 0.347072,0.022495 0.173536,0 0.173536,-0.1671089 V 8.0188264 H 11.729213 V 8.5201531 H 11.501045 V 8.0188264 h -0.604163 z m 0.03535,0.1767498 0.800195,0.012854 1.07014,-0.025709 q -0.03535,0.1060499 -0.08998,0.253877 l -1.063712,0.00643 -0.764845,-0.019282 Q 10.33771,8.9668481 10.119183,8.5972803 9.9874243,8.7193984 9.7335473,9.0279071 L 9.6017884,8.7611756 Q 9.8861949,8.48641 10.013133,8.3675056 V 7.2861181 H 9.6307111 V 7.0483093 h 0.6298719 v 1.373828 q 0.197639,0.3197565 0.671649,0.3229701 z m -0.92874,-2.7765788 q 0.163896,0.1992453 0.449909,0.6073766 L 10.225233,6.7365869 Q 9.9649289,6.3284555 9.79782,6.1067148 Z m 2.339525,0.9962262 h -0.613804 v 0.3213633 h 0.613804 z m -0.613804,0.8483991 h 0.613804 V 7.4917906 H 11.729213 Z M 10.896882,7.2861181 h 0.604163 V 6.9647548 h -0.604163 z m 0,0.5270358 h 0.604163 V 7.4917906 h -0.604163 z m 3.094729,-0.9994398 h 0.662008 L 14.716285,6.534128 H 13.808434 V 6.3220282 h 0.604163 Q 14.337076,6.2143715 14.178002,6.0231604 l 0.18639,-0.1381862 q 0.167109,0.1799634 0.286014,0.3277905 l -0.146221,0.1092635 h 0.591309 q 0.139793,-0.1928179 0.281193,-0.4274131 l 0.244236,0.1253317 Q 15.518086,6.1517057 15.37508,6.3220282 h 0.682897 V 6.534128 h -1.081388 l -0.08195,0.2795861 h 0.92874 V 8.565144 H 15.585573 V 8.4462396 H 14.22942 V 8.565144 h -0.237809 z m 0.244236,1.9474615 0.777699,0.00964 1.089422,-0.025709 q -0.05463,0.1253317 -0.10605,0.2474497 l -1.07014,0.00964 -0.713426,-0.012854 q -0.539891,-0.00321 -0.800195,-0.3695678 -0.09319,0.073914 -0.375995,0.411345 L 12.898976,8.7579619 Q 13.107862,8.5715712 13.303893,8.4028555 V 7.2861181 H 12.931112 V 7.0515229 h 0.617018 v 1.4059644 q 0.232988,0.2892269 0.687717,0.3036883 z M 14.22942,8.250208 h 1.356153 V 7.960981 H 14.22942 Z m 0,-0.4788313 h 1.356153 V 7.4853633 H 14.22942 Z m 1.356153,-0.761631 H 14.22942 V 7.295759 h 1.356153 z M 13.213912,5.9813832 q 0.22174,0.2570906 0.437054,0.5591721 L 13.426011,6.6948097 Q 13.210698,6.3605918 13.01788,6.122783 Z"
       id="text6"
       style="font-size:3.29076px;line-height:125%;font-family:'微软雅黑';letter-spacing:0px;word-spacing:0px;stroke-width:0.264583"
       aria-label="通道" />
    <path
       d="M 17.06311,8.643878 V 6.5148462 q -0.07391,0.073914 -0.250664,0.1655021 -0.175143,0.091588 -0.324576,0.1285453 V 6.5003849 q 0.197638,-0.054632 0.422592,-0.1735362 0.224955,-0.1205112 0.345466,-0.2265611 h 0.118904 V 8.643878 Z"
       id="text8"
       style="font-size:3.29076px;line-height:125%;font-family:'微软雅黑';letter-spacing:0px;word-spacing:0px;stroke-width:0.264583"
       aria-label="1" />
    <path
       d="m 20.224443,5.9171105 0.25709,0.038564 q -0.06749,0.3117224 -0.157468,0.5816675 h 0.983372 v 0.2185271 h -0.202459 q -0.08034,0.944808 -0.411345,1.5007665 0.260304,0.3534996 0.662008,0.5784539 -0.102836,0.1413999 -0.173536,0.253877 -0.392063,-0.253877 -0.652367,-0.6041629 -0.295654,0.3663541 -0.703786,0.6362993 -0.0707,-0.093195 -0.183177,-0.2024589 0.449909,-0.2956542 0.729495,-0.6716493 -0.260305,-0.4499086 -0.343859,-1.0380034 -0.06749,0.1189044 -0.1414,0.2217407 -0.06427,-0.093195 -0.160681,-0.2056725 0.372781,-0.5366767 0.498113,-1.3079486 z m -2.06958,1.8542662 h 0.488472 q 0.0707,-0.1221181 0.138186,-0.2506634 l 0.231382,0.073914 q -0.05142,0.089982 -0.102836,0.1767498 h 0.78734 v 0.2088861 q -0.122118,0.314936 -0.369568,0.5527448 0.17675,0.083554 0.359927,0.167109 l -0.1414,0.2217406 Q 19.347121,8.8093801 19.131807,8.6969029 18.768667,8.9572072 18.215922,9.1082479 18.164504,9.0054117 18.106659,8.8832936 18.575849,8.7772437 18.900426,8.5779985 18.624053,8.4365987 18.321972,8.2887716 18.424808,8.1409444 18.521217,7.9834764 h -0.366354 z m 0.03535,-1.1054897 h 0.739136 V 5.9460332 h 0.237808 V 6.665887 h 0.617018 v 0.2120997 h -0.617018 v 0.1960316 l 0.09641,-0.1092635 q 0.298868,0.2185271 0.501327,0.385636 L 19.610639,7.5303542 Q 19.433889,7.3632453 19.167157,7.1543592 V 7.5207133 H 18.929349 V 7.0708047 Q 18.636908,7.3760998 18.248058,7.6074814 18.186999,7.514286 18.109872,7.4114498 18.51479,7.1929228 18.852221,6.8779867 h -0.662008 z m 2.657674,0.089982 h -0.600949 q -0.01607,0.041777 -0.03535,0.080341 0.05785,0.6812902 0.321363,1.1665487 0.257091,-0.4691904 0.314936,-1.2468895 z M 18.636908,8.214858 q 0.228168,0.1028362 0.46919,0.2153134 0.221741,-0.1896043 0.347073,-0.446695 h -0.668436 q -0.07391,0.1189044 -0.147827,0.2313816 z m 1.002653,-2.188484 0.199246,0.131759 q -0.17675,0.2313815 -0.3535,0.4274131 -0.07391,-0.064273 -0.173536,-0.1349725 0.167109,-0.1960316 0.32779,-0.4241996 z m -1.365793,0.1413999 0.183177,-0.1253317 q 0.144613,0.1767498 0.298867,0.3792087 l -0.199245,0.1413998 q -0.1414,-0.2088861 -0.282799,-0.3952768 z m 4.585854,1.7899935 H 23.52163 V 7.549636 H 22.772853 Q 22.737504,8.5378281 22.316518,9.0761116 22.23939,8.976489 22.142981,8.8736527 22.544686,8.3787533 22.544686,7.3536044 V 6.1002876 h 1.896043 v 0.9319535 h -0.231382 v -0.099623 h -1.43328 V 7.331109 H 23.52163 V 6.9936775 h 0.231382 V 7.331109 h 0.848399 v 0.218527 h -0.848399 v 0.4081314 h 0.668435 V 9.0439753 H 24.190066 V 8.8575846 H 23.091003 V 9.0439753 H 22.859622 Z M 21.419914,7.6331905 Q 21.648082,7.5705246 21.863395,7.506252 V 6.7719368 H 21.458478 V 6.5405553 h 0.404917 V 5.9267514 h 0.237809 v 0.6138039 h 0.350286 v 0.2313815 h -0.350286 v 0.6604016 q 0.152648,-0.048204 0.298868,-0.098016 0.0032,0.1446135 0.01928,0.2506634 -0.165502,0.053025 -0.31815,0.104443 v 0.972124 q 0,0.3631405 -0.318149,0.3695677 -0.09962,0.00321 -0.295655,-0.00321 -0.01285,-0.1285453 -0.03856,-0.2667315 0.17675,0.019282 0.269945,0.019282 0.144613,0 0.144613,-0.1638953 V 7.768163 q -0.220133,0.073914 -0.411345,0.1413999 z m 2.789433,-1.3208032 h -1.43328 v 0.4081314 h 1.43328 z m -0.01928,1.8574798 h -1.099063 v 0.4788313 h 1.099063 z"
       id="text10"
       style="font-size:3.29076px;line-height:125%;font-family:'微软雅黑';letter-spacing:0px;word-spacing:0px;stroke-width:0.264583"
       aria-label="数据" />
    <path
       d="m 25.487647,6.8281754 q 0.08516,0 0.14622,0.059452 0.06106,0.059452 0.06106,0.1430067 0,0.083554 -0.05945,0.1446135 -0.05945,0.059452 -0.147827,0.059452 -0.08837,0 -0.147827,-0.059452 -0.05945,-0.061059 -0.05945,-0.1446135 0,-0.083554 0.06106,-0.1430067 0.06106,-0.059452 0.14622,-0.059452 z m 0,1.4477416 q 0.08516,0 0.14622,0.059452 0.06106,0.059452 0.06106,0.1446135 0,0.086768 -0.06106,0.1462203 -0.06106,0.057845 -0.14622,0.057845 -0.08516,0 -0.14622,-0.057845 -0.06106,-0.059452 -0.06106,-0.1462203 0,-0.085161 0.06106,-0.1446135 0.06106,-0.059452 0.14622,-0.059452 z"
       id="text12"
       style="font-size:3.29076px;line-height:125%;font-family:'微软雅黑';letter-spacing:0px;word-spacing:0px;stroke-width:0.264583"
       aria-label="：" />
    <path
       d="m 30.307729,8.643878 h -0.380815 l -1.25171,-1.9362138 q -0.05303,-0.081948 -0.08516,-0.1622885 h -0.0096 q 0.01286,0.083554 0.01286,0.3486792 V 8.643878 h -0.31815 V 6.1549193 h 0.403311 L 29.896384,8.05739 q 0.08677,0.1349726 0.102836,0.1719293 h 0.0064 Q 29.989579,8.1232695 29.989579,7.8661788 V 6.1549193 h 0.31815 z m 0.96409,-0.9303467 V 8.643878 H 30.950456 V 6.1549193 h 0.706999 q 0.403311,0 0.625051,0.1944248 0.223348,0.1944248 0.223348,0.5559585 0,0.3663542 -0.260304,0.5945221 -0.260305,0.2265611 -0.650761,0.2137066 z m 0,-1.2758123 v 0.9930126 h 0.297261 q 0.294047,0 0.446695,-0.131759 0.152647,-0.1333657 0.152647,-0.3808155 0,-0.4804381 -0.568813,-0.4804381 z m 3.195958,0.00321 H 33.74953 V 8.643878 H 33.42656 V 6.4409327 H 32.711526 V 6.1549193 h 1.756251 z m 0.266731,1.7353617 q 0.114084,0.099623 0.305295,0.1638953 0.191212,0.064273 0.363141,0.064273 0.523822,0 0.523822,-0.3727814 0,-0.104443 -0.05624,-0.1879975 Q 35.814289,7.7601289 35.716273,7.6958563 35.618257,7.6315836 35.348312,7.4982179 34.973924,7.3118272 34.85502,7.1527523 34.736115,6.9920707 34.736115,6.7863982 q 0,-0.3101156 0.249057,-0.4916858 0.249056,-0.1815703 0.628265,-0.1815703 0.371174,0 0.544711,0.089982 v 0.350286 q -0.224955,-0.1558612 -0.568813,-0.1558612 -0.228168,0 -0.372782,0.096409 -0.143006,0.094802 -0.143006,0.2651247 0,0.1510408 0.09962,0.2458429 0.09962,0.094802 0.432234,0.2586975 0.366354,0.175143 0.512574,0.350286 0.146221,0.1751429 0.146221,0.39367 0,0.3277905 -0.237809,0.5029335 -0.237809,0.175143 -0.660402,0.175143 -0.147827,0 -0.345465,-0.041777 -0.196032,-0.04017 -0.286014,-0.1012295 z M 39.384635,8.197183 39.211098,8.3707192 38.621397,7.7810176 38.034909,8.3707192 37.861373,8.197183 38.452681,7.610695 37.861373,7.0209934 38.034909,6.849064 38.621397,7.4387657 39.212705,6.849064 39.384635,7.0226002 38.794933,7.610695 Z M 42.641651,6.4409327 H 41.923405 V 8.643878 H 41.600434 V 6.4409327 H 40.885401 V 6.1549193 h 1.75625 z m 1.592356,0.4258063 -0.806622,2.0454773 q -0.224954,0.568813 -0.634692,0.568813 -0.117298,0 -0.200852,-0.025709 V 9.1789479 q 0.09159,0.03535 0.17675,0.03535 0.213706,0 0.319756,-0.2506633 L 43.224926,8.6406644 42.527568,6.866739 h 0.348679 l 0.46437,1.3352645 0.03856,0.1462203 h 0.008 q 0.0096,-0.049811 0.03856,-0.1430067 L 43.911037,6.866739 Z m 0.61059,1.5264756 V 9.4617475 H 44.529661 V 6.866739 h 0.314936 v 0.306902 h 0.0064 q 0.208886,-0.3486792 0.61059,-0.3486792 0.340645,0 0.533463,0.2394156 0.194425,0.2378089 0.194425,0.639513 0,0.4434813 -0.220134,0.7134265 -0.218527,0.2683383 -0.589702,0.2683383 -0.342252,0 -0.528642,-0.2924406 z m -0.0016,-0.4820449 q 0,0.2169202 0.139794,0.3663541 0.139793,0.1478271 0.350285,0.1478271 0.250664,0 0.392064,-0.1928179 0.1414,-0.192818 0.1414,-0.5334631 0,-0.2876201 -0.131759,-0.4499086 -0.131759,-0.1638953 -0.359927,-0.1638953 -0.232989,0 -0.382423,0.1655021 -0.149434,0.1655021 -0.149434,0.4241996 z m 3.236128,-0.07552 h -1.243676 q 0.008,0.2844065 0.155861,0.4402677 0.147827,0.1542544 0.412952,0.1542544 0.298868,0 0.547924,-0.1912112 v 0.2811929 q -0.234595,0.1655021 -0.621837,0.1655021 -0.385636,0 -0.602557,-0.2442361 -0.215313,-0.2442361 -0.215313,-0.6780765 0,-0.4081314 0.236202,-0.6732561 0.237809,-0.2651247 0.589702,-0.2651247 0.348679,0 0.54471,0.2249543 0.196032,0.2233475 0.196032,0.6266584 z M 47.764182,7.5833791 q -0.0016,-0.2410224 -0.114084,-0.3727814 -0.112477,-0.1317589 -0.316543,-0.1317589 -0.187997,0 -0.326184,0.139793 -0.136579,0.139793 -0.171929,0.3647473 z m 0.658795,0.5929153 q 0.114084,0.099623 0.305295,0.1638953 0.191211,0.064273 0.36314,0.064273 0.523823,0 0.523823,-0.3727814 0,-0.104443 -0.05624,-0.1879975 -0.05624,-0.083554 -0.154254,-0.1478271 -0.09802,-0.064273 -0.367961,-0.1976384 -0.374389,-0.1863907 -0.493293,-0.3454656 -0.118904,-0.1606816 -0.118904,-0.3663541 0,-0.3101156 0.249056,-0.4916858 0.249057,-0.1815703 0.628265,-0.1815703 0.371175,0 0.544711,0.089982 v 0.350286 q -0.224954,-0.1558612 -0.568813,-0.1558612 -0.228168,0 -0.372781,0.096409 -0.143007,0.094802 -0.143007,0.2651247 0,0.1510408 0.09962,0.2458429 0.09962,0.094802 0.432233,0.2586975 0.366354,0.175143 0.512575,0.350286 0.14622,0.1751429 0.14622,0.39367 0,0.3277905 -0.237809,0.5029335 -0.237809,0.175143 -0.660401,0.175143 -0.147828,0 -0.345466,-0.041777 -0.196032,-0.04017 -0.286013,-0.1012295 z m 1.936214,-1.9362138 q 0,-0.083554 0.05624,-0.139793 0.05785,-0.057845 0.1414,-0.057845 0.08516,0 0.143006,0.056239 0.05945,0.056239 0.05945,0.1413998 0,0.083554 -0.05945,0.139793 -0.05785,0.054632 -0.143006,0.054632 -0.08516,0 -0.1414,-0.054632 -0.05624,-0.056239 -0.05624,-0.139793 z m 0.03696,2.4037974 V 6.866739 h 0.314936 v 1.777139 z m 2.127425,0 H 51.048516 V 8.5394349 L 52.081699,7.1270433 H 51.144925 V 6.866739 H 52.53 v 0.1028363 l -1.026755,1.4139984 h 1.020328 z m 1.815702,-0.8082287 h -1.243676 q 0.008,0.2844065 0.155861,0.4402677 0.147827,0.1542544 0.412952,0.1542544 0.298868,0 0.547924,-0.1912112 v 0.2811929 q -0.234595,0.1655021 -0.621838,0.1655021 -0.385636,0 -0.602556,-0.2442361 -0.215313,-0.2442361 -0.215313,-0.6780765 0,-0.4081314 0.236202,-0.6732561 0.237808,-0.2651247 0.589701,-0.2651247 0.348679,0 0.544711,0.2249543 0.196032,0.2233475 0.196032,0.6266584 z M 54.024339,7.5833791 q -0.0016,-0.2410224 -0.114084,-0.3727814 -0.112478,-0.1317589 -0.316543,-0.1317589 -0.187998,0 -0.326184,0.139793 -0.136579,0.139793 -0.171929,0.3647473 z m 2.214194,1.6260983 q -0.541497,-0.6170175 -0.541497,-1.5152279 0,-0.8982104 0.541497,-1.5393302 h 0.277979 q -0.543104,0.6668289 -0.543104,1.5361165 0,0.8676809 0.539891,1.5184416 z M 58.904241,8.643878 h -0.380816 l -1.25171,-1.9362138 q -0.05302,-0.081948 -0.08516,-0.1622885 h -0.0096 q 0.01286,0.083554 0.01286,0.3486792 V 8.643878 h -0.31815 V 6.1549193 h 0.403311 L 58.492896,8.05739 q 0.08677,0.1349726 0.102836,0.1719293 h 0.0064 Q 58.586091,8.1232695 58.586091,7.8661788 V 6.1549193 h 0.31815 z M 59.868332,7.7135313 V 8.643878 H 59.546968 V 6.1549193 h 0.707 q 0.40331,0 0.625051,0.1944248 0.223348,0.1944248 0.223348,0.5559585 0,0.3663542 -0.260305,0.5945221 -0.260304,0.2265611 -0.65076,0.2137066 z m 0,-1.2758123 v 0.9930126 h 0.297261 q 0.294047,0 0.446695,-0.131759 0.152647,-0.1333657 0.152647,-0.3808155 0,-0.4804381 -0.568813,-0.4804381 z m 3.195956,0.00321 H 62.346042 V 8.643878 H 62.023071 V 6.4409327 H 61.308038 V 6.1549193 h 1.75625 z m 0.266732,1.7353617 q 0.114084,0.099623 0.305295,0.1638953 0.191211,0.064273 0.36314,0.064273 0.523822,0 0.523822,-0.3727814 0,-0.104443 -0.05624,-0.1879975 Q 64.4108,7.7601289 64.312784,7.6958563 64.214769,7.6315836 63.944824,7.4982179 63.570435,7.3118272 63.451531,7.1527523 63.332626,6.9920707 63.332626,6.7863982 q 0,-0.3101156 0.249057,-0.4916858 0.249057,-0.1815703 0.628265,-0.1815703 0.371175,0 0.544711,0.089982 v 0.350286 q -0.224954,-0.1558612 -0.568813,-0.1558612 -0.228168,0 -0.372781,0.096409 -0.143007,0.094802 -0.143007,0.2651247 0,0.1510408 0.09962,0.2458429 0.09962,0.094802 0.432233,0.2586975 0.366354,0.175143 0.512575,0.350286 0.14622,0.1751429 0.14622,0.39367 0,0.3277905 -0.237809,0.5029335 -0.237809,0.175143 -0.660402,0.175143 -0.147827,0 -0.345465,-0.041777 -0.196032,-0.04017 -0.286013,-0.1012295 z M 67.981148,8.197183 67.807612,8.3707192 67.21791,7.7810176 66.631422,8.3707192 66.457886,8.197183 67.049195,7.610695 66.457886,7.0209934 66.631422,6.849064 67.21791,7.4387657 67.809219,6.849064 67.981148,7.0226002 67.391447,7.610695 Z m 1.589139,-0.2474497 q 0,-0.2153134 0.128545,-0.3968837 0.128546,-0.1815702 0.331004,-0.2586974 -0.162288,-0.091589 -0.25709,-0.2345952 -0.0948,-0.1430067 -0.0948,-0.3101156 0,-0.1767498 0.08998,-0.3229701 0.09159,-0.1462203 0.252271,-0.2297747 0.162288,-0.083554 0.356713,-0.083554 0.196031,0 0.35832,0.083554 0.162288,0.081948 0.25227,0.2281679 0.08998,0.1462203 0.08998,0.3245769 0,0.1638953 -0.0932,0.3085088 -0.09159,0.1430066 -0.255483,0.236202 0.202458,0.078734 0.329397,0.2603042 0.126938,0.1815703 0.126938,0.3952769 0,0.2120998 -0.101229,0.3808155 -0.101229,0.1671089 -0.28762,0.2603042 -0.186391,0.093195 -0.419379,0.093195 -0.231382,0 -0.416166,-0.093195 -0.184784,-0.093195 -0.28762,-0.261911 -0.102836,-0.1687158 -0.102836,-0.3792087 z m 0.308509,-0.014461 q 0,0.2217407 0.136579,0.3551065 0.136579,0.1333657 0.363141,0.1333657 0.22174,0 0.361533,-0.1349725 0.1414,-0.1365794 0.1414,-0.3534997 0,-0.2056725 -0.143007,-0.3454655 -0.141399,-0.1413998 -0.359926,-0.1413998 -0.216921,0 -0.35832,0.1381862 -0.1414,0.1365794 -0.1414,0.3486791 z m 0.08998,-1.1601214 q 0,0.1671089 0.118905,0.2876201 0.118904,0.1189044 0.290834,0.1189044 0.168715,0 0.290833,-0.1205112 0.123725,-0.1205112 0.123725,-0.2860133 0,-0.1687157 -0.118904,-0.2860133 -0.117298,-0.1172976 -0.295654,-0.1172976 -0.17675,0 -0.294048,0.1156907 -0.115691,0.114084 -0.115691,0.2876202 z M 72.637701,8.643878 V 6.1549193 h 0.731101 q 0.327791,0 0.523822,0.157468 0.196032,0.1558612 0.196032,0.4145587 0,0.2056725 -0.117297,0.3631405 -0.115691,0.157468 -0.319757,0.2233475 v 0.00643 q 0.253877,0.028923 0.404918,0.192818 0.152647,0.1622885 0.152647,0.4129518 0,0.3213633 -0.231381,0.5206086 -0.229775,0.1976384 -0.589702,0.1976384 z m 0.321363,-2.2077658 v 0.779306 h 0.292441 q 0.232988,0 0.364747,-0.1124772 0.133366,-0.1140839 0.133366,-0.314936 0,-0.3518928 -0.469191,-0.3518928 z m 0,1.058892 V 8.3626851 H 73.3447 q 0.25227,0 0.38885,-0.1156908 0.138186,-0.1172976 0.138186,-0.3245769 0,-0.4274132 -0.580061,-0.4274132 z m 3.14936,-0.6282652 -0.806622,2.0454773 q -0.224955,0.568813 -0.634693,0.568813 -0.117297,0 -0.200852,-0.025709 V 9.1789479 q 0.09159,0.03535 0.17675,0.03535 0.213707,0 0.319756,-0.2506633 L 75.099343,8.6406644 74.401984,6.866739 h 0.34868 l 0.46437,1.3352645 0.03856,0.1462203 h 0.008 q 0.0096,-0.049811 0.03856,-0.1430067 L 75.785453,6.866739 Z m 1.158515,1.759464 q -0.102836,0.056239 -0.277979,0.056239 -0.477225,0 -0.477225,-0.5286426 V 7.1270433 H 76.20644 V 6.866739 h 0.305295 V 6.4393258 l 0.313329,-0.099623 V 6.866739 h 0.441875 v 0.2603043 h -0.441875 v 0.9705171 q 0,0.175143 0.05945,0.2506634 0.05945,0.07552 0.197639,0.07552 0.10605,0 0.184784,-0.059452 z M 79.060146,7.8356493 H 77.81647 q 0.008,0.2844065 0.155861,0.4402677 0.147827,0.1542544 0.412952,0.1542544 0.298868,0 0.547924,-0.1912112 v 0.2811929 q -0.234595,0.1655021 -0.621838,0.1655021 -0.385636,0 -0.602556,-0.2442361 Q 77.4935,8.197183 77.4935,7.7633426 q 0,-0.4081314 0.236202,-0.6732561 0.237808,-0.2651247 0.589701,-0.2651247 0.348679,0 0.544711,0.2249543 0.196032,0.2233475 0.196032,0.6266584 z M 78.74521,7.5833791 q -0.0016,-0.2410224 -0.114084,-0.3727814 -0.112478,-0.1317589 -0.316543,-0.1317589 -0.187998,0 -0.326184,0.139793 -0.136579,0.139793 -0.171929,0.3647473 z m 0.493294,1.6260983 q 0.541497,-0.6491539 0.541497,-1.5184416 0,-0.8708945 -0.54471,-1.5361165 h 0.279586 q 0.543104,0.6362993 0.543104,1.5393302 0,0.9030308 -0.543104,1.5152279 z"
       id="text14"
       style="font-size:3.29076px;line-height:125%;font-family:'微软雅黑';letter-spacing:0px;word-spacing:0px;stroke-width:0.264583"
       aria-label="NPTS × TypeSize (NPTS × 8 Byte)" />
    <path
       style="fill:#ddd6e5;fill-opacity:1;fill-rule:evenodd;stroke:none;stroke-width:0.264583"
       d="m 5.8191711,13.480032 v 9.001565 H 84.02132 v -9.001565 z"
       id="path14" />
    <path
       style="fill:none;stroke:#ccc2d9;stroke-width:0.548667px;stroke-linecap:round;stroke-linejoin:round;stroke-miterlimit:4;stroke-dasharray:none;stroke-opacity:1"
       d="M 5.8191711,22.481597 H 84.02132 V 13.480032 H 5.8191711 Z"
       id="path15" />
    <path
       d="M 10.896882,19.1146 H 10.668714 V 17.305325 H 11.4432 Q 11.202178,17.1816 10.945087,17.057875 l 0.131759,-0.154254 q 0.25227,0.122118 0.474011,0.232988 l 0.573633,-0.300474 h -1.507194 v -0.205673 h 1.931394 v 0.215314 l -0.776093,0.40331 q 0.05624,0.02892 0.109264,0.05624 h 0.689324 v 1.452562 q 0,0.366354 -0.337431,0.366354 -0.167109,0 -0.363141,-0.0096 -0.01607,-0.122118 -0.0482,-0.247449 0.202459,0.02249 0.347072,0.02249 0.173536,0 0.173536,-0.167109 v -0.157468 h -0.613804 v 0.501327 h -0.228168 v -0.501327 h -0.604163 z m 0.03535,0.17675 0.800195,0.01285 1.07014,-0.02571 q -0.03535,0.106049 -0.08998,0.253877 l -1.063712,0.0064 -0.764845,-0.01928 Q 10.33771,19.513091 10.119183,19.143523 9.9874243,19.265641 9.7335473,19.57415 L 9.6017884,19.307418 q 0.2844065,-0.274765 0.4113446,-0.39367 V 17.832361 H 9.6307111 v -0.237809 h 0.6298719 v 1.373828 q 0.197639,0.319756 0.671649,0.32297 z m -0.92874,-2.776579 q 0.163896,0.199246 0.449909,0.607377 L 10.225233,17.28283 Q 9.9649289,16.874698 9.79782,16.652958 Z m 2.339525,0.996227 h -0.613804 v 0.321363 h 0.613804 z m -0.613804,0.848399 h 0.613804 v -0.321364 h -0.613804 z m -0.832331,-0.527036 h 0.604163 v -0.321363 h -0.604163 z m 0,0.527036 h 0.604163 v -0.321364 h -0.604163 z m 3.094729,-0.99944 h 0.662008 l 0.06267,-0.279586 h -0.907851 v -0.2121 h 0.604163 q -0.07552,-0.107657 -0.234595,-0.298868 l 0.18639,-0.138186 q 0.167109,0.179963 0.286014,0.32779 l -0.146221,0.109264 h 0.591309 q 0.139793,-0.192818 0.281193,-0.427413 l 0.244236,0.125331 q -0.102837,0.131759 -0.245843,0.302082 h 0.682897 v 0.2121 h -1.081388 l -0.08195,0.279586 h 0.92874 v 1.75143 H 15.585573 V 18.992482 H 14.22942 v 0.118905 h -0.237809 z m 0.244236,1.947461 0.777699,0.0096 1.089422,-0.02571 q -0.05463,0.125332 -0.10605,0.24745 l -1.07014,0.0096 -0.713426,-0.01286 q -0.539891,-0.0032 -0.800195,-0.369568 -0.09319,0.07391 -0.375995,0.411345 l -0.138186,-0.273158 q 0.208886,-0.186391 0.404917,-0.355107 v -1.116737 h -0.372781 v -0.234595 h 0.617018 v 1.405964 q 0.232988,0.289227 0.687717,0.303688 z m -0.0064,-0.510967 h 1.356153 V 18.507224 H 14.22942 Z m 0,-0.478832 h 1.356153 V 18.031606 H 14.22942 Z m 1.356153,-0.761631 H 14.22942 v 0.286014 h 1.356153 z m -2.371661,-1.028362 q 0.22174,0.257091 0.437054,0.559172 l -0.224955,0.154254 Q 13.210698,16.906835 13.01788,16.669026 Z"
       id="text16"
       style="font-size:3.29076px;line-height:125%;font-family:'微软雅黑';letter-spacing:0px;word-spacing:0px;stroke-width:0.264583"
       aria-label="通道" />
    <path
       d="m 17.517839,17.35353 q 0,-0.200853 -0.126939,-0.314936 -0.126938,-0.115691 -0.345465,-0.115691 -0.154255,0 -0.311723,0.07873 -0.157468,0.07873 -0.294047,0.224954 v -0.305295 q 0.122118,-0.126939 0.276372,-0.194425 0.155862,-0.06749 0.364748,-0.06749 0.337431,0 0.543104,0.18157 0.205672,0.179964 0.205672,0.488472 0,0.274766 -0.126938,0.475618 -0.125332,0.200852 -0.430627,0.411345 -0.311722,0.215313 -0.417772,0.308509 -0.104443,0.09319 -0.146221,0.178356 -0.04178,0.08516 -0.04178,0.20728 h 1.237249 v 0.279586 h -1.565039 v -0.123725 q 0,-0.215314 0.05784,-0.364747 0.05945,-0.151041 0.194425,-0.292441 0.134972,-0.143007 0.420986,-0.342252 0.29244,-0.205672 0.39849,-0.359927 0.107657,-0.155861 0.107657,-0.353499 z"
       id="text18"
       style="font-size:3.29076px;line-height:125%;font-family:'微软雅黑';letter-spacing:0px;word-spacing:0px;stroke-width:0.264583"
       aria-label="2" />
    <path
       d="m 20.224443,16.463353 0.25709,0.03856 q -0.06749,0.311722 -0.157468,0.581667 h 0.983372 v 0.218527 h -0.202459 q -0.08034,0.944808 -0.411345,1.500767 0.260304,0.3535 0.662008,0.578454 -0.102836,0.1414 -0.173536,0.253877 -0.392063,-0.253877 -0.652367,-0.604163 -0.295654,0.366354 -0.703786,0.636299 -0.0707,-0.0932 -0.183177,-0.202459 0.449909,-0.295654 0.729495,-0.671649 -0.260305,-0.449909 -0.343859,-1.038003 -0.06749,0.118904 -0.1414,0.22174 -0.06427,-0.09319 -0.160681,-0.205672 0.372781,-0.536677 0.498113,-1.307949 z m -2.06958,1.854266 h 0.488472 q 0.0707,-0.122118 0.138186,-0.250663 l 0.231382,0.07391 q -0.05142,0.08998 -0.102836,0.176749 h 0.78734 v 0.208887 q -0.122118,0.314936 -0.369568,0.552744 0.17675,0.08356 0.359927,0.167109 l -0.1414,0.221741 q -0.199245,-0.112477 -0.414559,-0.224954 -0.36314,0.260304 -0.915885,0.411345 -0.05142,-0.102837 -0.109263,-0.224955 0.46919,-0.10605 0.793767,-0.305295 -0.276373,-0.1414 -0.578454,-0.289227 0.102836,-0.147827 0.199245,-0.305295 h -0.366354 z m 0.03535,-1.105489 h 0.739136 v -0.719854 h 0.237808 v 0.719854 h 0.617018 v 0.212099 h -0.617018 v 0.196032 l 0.09641,-0.109263 q 0.298868,0.218527 0.501327,0.385635 l -0.154254,0.179964 q -0.17675,-0.167109 -0.443482,-0.375995 v 0.366354 h -0.237808 v -0.449909 q -0.292441,0.305296 -0.681291,0.536677 -0.06106,-0.0932 -0.138186,-0.196032 0.404918,-0.218527 0.742349,-0.533463 h -0.662008 z m 2.657674,0.08998 h -0.600949 q -0.01607,0.04178 -0.03535,0.08034 0.05785,0.68129 0.321363,1.166549 0.257091,-0.46919 0.314936,-1.24689 z m -2.210979,1.45899 q 0.228168,0.102836 0.46919,0.215313 0.221741,-0.189604 0.347073,-0.446695 h -0.668436 q -0.07391,0.118905 -0.147827,0.231382 z m 1.002653,-2.188484 0.199246,0.131759 q -0.17675,0.231381 -0.3535,0.427413 -0.07391,-0.06427 -0.173536,-0.134973 0.167109,-0.196031 0.32779,-0.424199 z m -1.365793,0.1414 0.183177,-0.125332 q 0.144613,0.17675 0.298867,0.379209 l -0.199245,0.141399 q -0.1414,-0.208886 -0.282799,-0.395276 z m 4.585854,1.789993 h 0.662008 v -0.408131 h -0.748777 q -0.03535,0.988192 -0.456335,1.526475 -0.07713,-0.09962 -0.173537,-0.202459 0.401705,-0.494899 0.401705,-1.520048 V 16.64653 h 1.896043 v 0.931954 h -0.231382 v -0.09962 h -1.43328 v 0.398491 H 23.52163 V 17.53992 h 0.231382 v 0.337432 h 0.848399 v 0.218527 h -0.848399 v 0.408131 h 0.668435 v 1.086208 h -0.231381 v -0.186391 h -1.099063 v 0.186391 h -0.231381 z m -1.439708,-0.324577 q 0.228168,-0.06267 0.443481,-0.126938 V 17.31818 h -0.404917 v -0.231382 h 0.404917 v -0.613804 h 0.237809 v 0.613804 h 0.350286 v 0.231382 h -0.350286 v 0.660401 q 0.152648,-0.0482 0.298868,-0.09802 0.0032,0.144614 0.01928,0.250664 -0.165502,0.05302 -0.31815,0.104443 v 0.972124 q 0,0.36314 -0.318149,0.369567 -0.09962,0.0032 -0.295655,-0.0032 -0.01285,-0.128545 -0.03856,-0.266732 0.17675,0.01928 0.269945,0.01928 0.144613,0 0.144613,-0.163895 v -0.848399 q -0.220133,0.07391 -0.411345,0.1414 z m 2.789433,-1.320803 h -1.43328 v 0.408131 h 1.43328 z m -0.01928,1.85748 h -1.099063 v 0.478831 h 1.099063 z"
       id="text20"
       style="font-size:3.29076px;line-height:125%;font-family:'微软雅黑';letter-spacing:0px;word-spacing:0px;stroke-width:0.264583"
       aria-label="数据" />
    <path
       d="m 25.487647,17.374418 q 0.08516,0 0.14622,0.05945 0.06106,0.05945 0.06106,0.143007 0,0.08355 -0.05945,0.144613 -0.05945,0.05945 -0.147827,0.05945 -0.08837,0 -0.147827,-0.05945 -0.05945,-0.06106 -0.05945,-0.144613 0,-0.08355 0.06106,-0.143007 0.06106,-0.05945 0.14622,-0.05945 z m 0,1.447742 q 0.08516,0 0.14622,0.05945 0.06106,0.05945 0.06106,0.144613 0,0.08677 -0.06106,0.146221 -0.06106,0.05785 -0.14622,0.05785 -0.08516,0 -0.14622,-0.05785 -0.06106,-0.05945 -0.06106,-0.146221 0,-0.08516 0.06106,-0.144613 0.06106,-0.05945 0.14622,-0.05945 z"
       id="text22"
       style="font-size:3.29076px;line-height:125%;font-family:'微软雅黑';letter-spacing:0px;word-spacing:0px;stroke-width:0.264583"
       aria-label="：" />
    <path
       d="m 30.307729,19.190121 h -0.380815 l -1.25171,-1.936214 q -0.05303,-0.08195 -0.08516,-0.162289 h -0.0096 q 0.01286,0.08356 0.01286,0.34868 v 1.749823 h -0.31815 v -2.488959 h 0.403311 l 1.217967,1.902471 q 0.08677,0.134972 0.102836,0.171929 h 0.0064 q -0.01607,-0.10605 -0.01607,-0.36314 v -1.71126 h 0.31815 z m 0.96409,-0.930347 v 0.930347 h -0.321363 v -2.488959 h 0.706999 q 0.403311,0 0.625051,0.194425 0.223348,0.194425 0.223348,0.555958 0,0.366354 -0.260304,0.594522 -0.260305,0.226562 -0.650761,0.213707 z m 0,-1.275812 v 0.993012 h 0.297261 q 0.294047,0 0.446695,-0.131759 0.152647,-0.133365 0.152647,-0.380815 0,-0.480438 -0.568813,-0.480438 z m 3.195958,0.0032 H 33.74953 v 2.202946 h -0.32297 v -2.202946 h -0.715034 v -0.286013 h 1.756251 z m 0.266731,1.735362 q 0.114084,0.09962 0.305295,0.163895 0.191212,0.06427 0.363141,0.06427 0.523822,0 0.523822,-0.372781 0,-0.104443 -0.05624,-0.187998 -0.05624,-0.08355 -0.154254,-0.147827 -0.09802,-0.06427 -0.367961,-0.197638 -0.374388,-0.186391 -0.493292,-0.345466 -0.118905,-0.160682 -0.118905,-0.366354 0,-0.310116 0.249057,-0.491686 0.249056,-0.18157 0.628265,-0.18157 0.371174,0 0.544711,0.08998 v 0.350286 q -0.224955,-0.155862 -0.568813,-0.155862 -0.228168,0 -0.372782,0.09641 -0.143006,0.0948 -0.143006,0.265125 0,0.151041 0.09962,0.245843 0.09962,0.0948 0.432234,0.258697 0.366354,0.175143 0.512574,0.350286 0.146221,0.175143 0.146221,0.39367 0,0.327791 -0.237809,0.502934 -0.237809,0.175143 -0.660402,0.175143 -0.147827,0 -0.345465,-0.04178 -0.196032,-0.04017 -0.286014,-0.10123 z m 4.650127,0.02089 -0.173537,0.173536 -0.589701,-0.589702 -0.586488,0.589702 -0.173536,-0.173536 0.591308,-0.586488 -0.591308,-0.589702 0.173536,-0.171929 0.586488,0.589701 0.591308,-0.589701 0.17193,0.173536 -0.589702,0.588095 z m 3.257016,-1.756251 h -0.718246 v 2.202946 h -0.322971 v -2.202946 h -0.715033 v -0.286013 h 1.75625 z m 1.592356,0.425807 -0.806622,2.045477 q -0.224954,0.568813 -0.634692,0.568813 -0.117298,0 -0.200852,-0.02571 v -0.276372 q 0.09159,0.03535 0.17675,0.03535 0.213706,0 0.319756,-0.250664 l 0.136579,-0.32297 -0.697358,-1.773925 h 0.348679 l 0.46437,1.335264 0.03856,0.14622 h 0.008 q 0.0096,-0.04981 0.03856,-0.143006 l 0.485258,-1.338478 z m 0.61059,1.526475 v 1.068533 h -0.314936 v -2.595008 h 0.314936 v 0.306902 h 0.0064 q 0.208886,-0.348679 0.61059,-0.348679 0.340645,0 0.533463,0.239415 0.194425,0.237809 0.194425,0.639513 0,0.443481 -0.220134,0.713427 -0.218527,0.268338 -0.589702,0.268338 -0.342252,0 -0.528642,-0.292441 z m -0.0016,-0.482045 q 0,0.216921 0.139794,0.366355 0.139793,0.147827 0.350285,0.147827 0.250664,0 0.392064,-0.192818 0.1414,-0.192818 0.1414,-0.533463 0,-0.287621 -0.131759,-0.449909 -0.131759,-0.163895 -0.359927,-0.163895 -0.232989,0 -0.382423,0.165502 -0.149434,0.165502 -0.149434,0.424199 z m 3.236128,-0.07552 h -1.243676 q 0.008,0.284407 0.155861,0.440268 0.147827,0.154254 0.412952,0.154254 0.298868,0 0.547924,-0.191211 v 0.281193 q -0.234595,0.165502 -0.621837,0.165502 -0.385636,0 -0.602557,-0.244236 -0.215313,-0.244236 -0.215313,-0.678077 0,-0.408131 0.236202,-0.673256 0.237809,-0.265124 0.589702,-0.265124 0.348679,0 0.54471,0.224954 0.196032,0.223347 0.196032,0.626658 z m -0.314936,-0.25227 q -0.0016,-0.241023 -0.114084,-0.372782 -0.112477,-0.131759 -0.316543,-0.131759 -0.187997,0 -0.326184,0.139794 -0.136579,0.139793 -0.171929,0.364747 z m 0.658795,0.592915 q 0.114084,0.09962 0.305295,0.163895 0.191211,0.06427 0.36314,0.06427 0.523823,0 0.523823,-0.372781 0,-0.104443 -0.05624,-0.187998 -0.05624,-0.08355 -0.154254,-0.147827 -0.09802,-0.06427 -0.367961,-0.197638 -0.374389,-0.186391 -0.493293,-0.345466 -0.118904,-0.160682 -0.118904,-0.366354 0,-0.310116 0.249056,-0.491686 0.249057,-0.18157 0.628265,-0.18157 0.371175,0 0.544711,0.08998 v 0.350286 q -0.224954,-0.155862 -0.568813,-0.155862 -0.228168,0 -0.372781,0.09641 -0.143007,0.0948 -0.143007,0.265125 0,0.151041 0.09962,0.245843 0.09962,0.0948 0.432233,0.258697 0.366354,0.175143 0.512575,0.350286 0.14622,0.175143 0.14622,0.39367 0,0.327791 -0.237809,0.502934 -0.237809,0.175143 -0.660401,0.175143 -0.147828,0 -0.345466,-0.04178 -0.196032,-0.04017 -0.286013,-0.10123 z m 1.936214,-1.936214 q 0,-0.08355 0.05624,-0.139793 0.05785,-0.05784 0.1414,-0.05784 0.08516,0 0.143006,0.05624 0.05945,0.05624 0.05945,0.1414 0,0.08356 -0.05945,0.139793 -0.05785,0.05463 -0.143006,0.05463 -0.08516,0 -0.1414,-0.05463 -0.05624,-0.05624 -0.05624,-0.139793 z m 0.03696,2.403798 v -1.777139 h 0.314936 v 1.777139 z m 2.127425,0 h -1.475057 v -0.104443 l 1.033183,-1.412392 H 51.144925 V 17.412982 H 52.53 v 0.102836 l -1.026755,1.413998 h 1.020328 z m 1.815702,-0.808229 h -1.243676 q 0.008,0.284407 0.155861,0.440268 0.147827,0.154254 0.412952,0.154254 0.298868,0 0.547924,-0.191211 v 0.281193 q -0.234595,0.165502 -0.621838,0.165502 -0.385636,0 -0.602556,-0.244236 -0.215313,-0.244236 -0.215313,-0.678077 0,-0.408131 0.236202,-0.673256 0.237808,-0.265124 0.589701,-0.265124 0.348679,0 0.544711,0.224954 0.196032,0.223347 0.196032,0.626658 z m -0.314936,-0.25227 q -0.0016,-0.241023 -0.114084,-0.372782 -0.112478,-0.131759 -0.316543,-0.131759 -0.187998,0 -0.326184,0.139794 -0.136579,0.139793 -0.171929,0.364747 z m 2.214194,1.626098 q -0.541497,-0.617017 -0.541497,-1.515228 0,-0.89821 0.541497,-1.53933 h 0.277979 q -0.543104,0.666829 -0.543104,1.536117 0,0.86768 0.539891,1.518441 z m 2.665708,-0.565599 h -0.380816 l -1.25171,-1.936214 q -0.05302,-0.08195 -0.08516,-0.162289 h -0.0096 q 0.01286,0.08356 0.01286,0.34868 v 1.749823 h -0.31815 v -2.488959 h 0.403311 l 1.217967,1.902471 q 0.08677,0.134972 0.102836,0.171929 h 0.0064 q -0.01607,-0.10605 -0.01607,-0.36314 v -1.71126 h 0.31815 z m 0.964091,-0.930347 v 0.930347 h -0.321364 v -2.488959 h 0.707 q 0.40331,0 0.625051,0.194425 0.223348,0.194425 0.223348,0.555958 0,0.366354 -0.260305,0.594522 -0.260304,0.226562 -0.65076,0.213707 z m 0,-1.275812 v 0.993012 h 0.297261 q 0.294047,0 0.446695,-0.131759 0.152647,-0.133365 0.152647,-0.380815 0,-0.480438 -0.568813,-0.480438 z m 3.195956,0.0032 h -0.718246 v 2.202946 h -0.322971 v -2.202946 h -0.715033 v -0.286013 h 1.75625 z m 0.266732,1.735362 q 0.114084,0.09962 0.305295,0.163895 0.191211,0.06427 0.36314,0.06427 0.523822,0 0.523822,-0.372781 0,-0.104443 -0.05624,-0.187998 -0.05624,-0.08355 -0.154255,-0.147827 -0.09801,-0.06427 -0.36796,-0.197638 -0.374389,-0.186391 -0.493293,-0.345466 -0.118905,-0.160682 -0.118905,-0.366354 0,-0.310116 0.249057,-0.491686 0.249057,-0.18157 0.628265,-0.18157 0.371175,0 0.544711,0.08998 v 0.350286 q -0.224954,-0.155862 -0.568813,-0.155862 -0.228168,0 -0.372781,0.09641 -0.143007,0.0948 -0.143007,0.265125 0,0.151041 0.09962,0.245843 0.09962,0.0948 0.432233,0.258697 0.366354,0.175143 0.512575,0.350286 0.14622,0.175143 0.14622,0.39367 0,0.327791 -0.237809,0.502934 -0.237809,0.175143 -0.660402,0.175143 -0.147827,0 -0.345465,-0.04178 -0.196032,-0.04017 -0.286013,-0.10123 z m 4.650128,0.02089 -0.173536,0.173536 -0.589702,-0.589702 -0.586488,0.589702 -0.173536,-0.173536 0.591309,-0.586488 -0.591309,-0.589702 0.173536,-0.171929 0.586488,0.589701 0.591309,-0.589701 0.171929,0.173536 -0.589701,0.588095 z m 1.589139,-0.24745 q 0,-0.215313 0.128545,-0.396884 0.128546,-0.18157 0.331004,-0.258697 -0.162288,-0.09159 -0.25709,-0.234595 -0.0948,-0.143007 -0.0948,-0.310116 0,-0.17675 0.08998,-0.32297 0.09159,-0.14622 0.252271,-0.229775 0.162288,-0.08355 0.356713,-0.08355 0.196031,0 0.35832,0.08355 0.162288,0.08195 0.25227,0.228168 0.08998,0.146221 0.08998,0.324577 0,0.163895 -0.0932,0.308509 -0.09159,0.143007 -0.255483,0.236202 0.202458,0.07873 0.329397,0.260304 0.126938,0.18157 0.126938,0.395277 0,0.2121 -0.101229,0.380815 -0.101229,0.167109 -0.28762,0.260305 -0.186391,0.0932 -0.419379,0.0932 -0.231382,0 -0.416166,-0.0932 -0.184784,-0.0932 -0.28762,-0.261911 -0.102836,-0.168716 -0.102836,-0.379209 z m 0.308509,-0.01446 q 0,0.22174 0.136579,0.355106 0.136579,0.133366 0.363141,0.133366 0.22174,0 0.361533,-0.134973 0.1414,-0.136579 0.1414,-0.353499 0,-0.205673 -0.143007,-0.345466 -0.141399,-0.1414 -0.359926,-0.1414 -0.216921,0 -0.35832,0.138186 -0.1414,0.13658 -0.1414,0.34868 z m 0.08998,-1.160122 q 0,0.167109 0.118905,0.28762 0.118904,0.118905 0.290834,0.118905 0.168715,0 0.290833,-0.120511 0.123725,-0.120512 0.123725,-0.286014 0,-0.168716 -0.118904,-0.286013 -0.117298,-0.117298 -0.295654,-0.117298 -0.17675,0 -0.294048,0.115691 -0.115691,0.114084 -0.115691,0.28762 z m 2.668924,1.868728 v -2.488959 h 0.731101 q 0.327791,0 0.523822,0.157468 0.196032,0.155861 0.196032,0.414559 0,0.205672 -0.117297,0.36314 -0.115691,0.157468 -0.319757,0.223348 v 0.0064 q 0.253877,0.02892 0.404918,0.192818 0.152647,0.162288 0.152647,0.412952 0,0.321363 -0.231381,0.520608 -0.229775,0.197639 -0.589702,0.197639 z m 0.321363,-2.207766 v 0.779306 h 0.292441 q 0.232988,0 0.364747,-0.112477 0.133366,-0.114084 0.133366,-0.314936 0,-0.351893 -0.469191,-0.351893 z m 0,1.058892 v 0.867681 H 73.3447 q 0.25227,0 0.38885,-0.115691 0.138186,-0.117298 0.138186,-0.324577 0,-0.427413 -0.580061,-0.427413 z m 3.14936,-0.628265 -0.806622,2.045477 q -0.224955,0.568813 -0.634693,0.568813 -0.117297,0 -0.200852,-0.02571 v -0.276372 q 0.09159,0.03535 0.17675,0.03535 0.213707,0 0.319756,-0.250664 l 0.13658,-0.32297 -0.697359,-1.773925 h 0.34868 l 0.46437,1.335264 0.03856,0.14622 h 0.008 q 0.0096,-0.04981 0.03856,-0.143006 l 0.485258,-1.338478 z m 1.158515,1.759464 q -0.102836,0.05624 -0.277979,0.05624 -0.477225,0 -0.477225,-0.528642 V 17.673286 H 76.20644 v -0.260304 h 0.305295 v -0.427413 l 0.313329,-0.09962 v 0.527036 h 0.441875 v 0.260304 h -0.441875 v 0.970517 q 0,0.175143 0.05945,0.250663 0.05945,0.07552 0.197639,0.07552 0.10605,0 0.184784,-0.05945 z m 1.793207,-0.790554 H 77.81647 q 0.008,0.284407 0.155861,0.440268 0.147827,0.154254 0.412952,0.154254 0.298868,0 0.547924,-0.191211 v 0.281193 q -0.234595,0.165502 -0.621838,0.165502 -0.385636,0 -0.602556,-0.244236 -0.215313,-0.244236 -0.215313,-0.678077 0,-0.408131 0.236202,-0.673256 0.237808,-0.265124 0.589701,-0.265124 0.348679,0 0.544711,0.224954 0.196032,0.223347 0.196032,0.626658 z m -0.314936,-0.25227 q -0.0016,-0.241023 -0.114084,-0.372782 -0.112478,-0.131759 -0.316543,-0.131759 -0.187998,0 -0.326184,0.139794 -0.136579,0.139793 -0.171929,0.364747 z m 0.493294,1.626098 q 0.541497,-0.649154 0.541497,-1.518441 0,-0.870895 -0.54471,-1.536117 h 0.279586 q 0.543104,0.636299 0.543104,1.53933 0,0.903031 -0.543104,1.515228 z"
       id="text24"
       style="font-size:3.29076px;line-height:125%;font-family:'微软雅黑';letter-spacing:0px;word-spacing:0px;stroke-width:0.264583"
       aria-label="NPTS × TypeSize (NPTS × 8 Byte)" />
    <path
       style="fill:#ddd6e5;fill-opacity:1;fill-rule:evenodd;stroke:none;stroke-width:0.264583"
       d="m 5.8191711,24.024717 v 9.00157 H 84.02132 v -9.00157 z"
       id="path24" />
    <path
       style="fill:none;stroke:#ccc2d9;stroke-width:0.548667px;stroke-linecap:round;stroke-linejoin:round;stroke-miterlimit:4;stroke-dasharray:none;stroke-opacity:1"
       d="M 5.8191711,33.026287 H 84.02132 v -9.00157 H 5.8191711 Z"
       id="path25" />
    <path
       d="M 10.896882,29.660833 H 10.668714 V 27.851557 H 11.4432 q -0.241022,-0.123725 -0.498113,-0.247449 l 0.131759,-0.154255 q 0.25227,0.122118 0.474011,0.232989 l 0.573633,-0.300475 h -1.507194 v -0.205673 h 1.931394 v 0.215314 l -0.776093,0.403311 q 0.05624,0.02892 0.109264,0.05624 h 0.689324 v 1.452562 q 0,0.366354 -0.337431,0.366354 -0.167109,0 -0.363141,-0.0096 -0.01607,-0.122118 -0.0482,-0.24745 0.202459,0.02249 0.347072,0.02249 0.173536,0 0.173536,-0.167109 v -0.157468 h -0.613804 v 0.501327 h -0.228168 v -0.501327 h -0.604163 z m 0.03535,0.176749 0.800195,0.01285 1.07014,-0.02571 q -0.03535,0.10605 -0.08998,0.253877 l -1.063712,0.0064 -0.764845,-0.01928 q -0.546318,-0.0064 -0.764845,-0.375995 -0.1317587,0.122118 -0.3856357,0.430627 L 9.6017884,29.853651 Q 9.8861949,29.578885 10.013133,29.45998 V 28.378593 H 9.6307111 v -0.237809 h 0.6298719 v 1.373828 q 0.197639,0.319757 0.671649,0.32297 z m -0.92874,-2.776578 q 0.163896,0.199245 0.449909,0.607376 l -0.228168,0.160682 Q 9.9649289,27.42093 9.79782,27.19919 Z m 2.339525,0.996226 h -0.613804 v 0.321363 h 0.613804 z m -0.613804,0.848399 h 0.613804 v -0.321363 h -0.613804 z m -0.832331,-0.527036 h 0.604163 V 28.05723 h -0.604163 z m 0,0.527036 h 0.604163 v -0.321363 h -0.604163 z m 3.094729,-0.99944 h 0.662008 l 0.06267,-0.279586 h -0.907851 v -0.2121 h 0.604163 q -0.07552,-0.107657 -0.234595,-0.298868 l 0.18639,-0.138186 q 0.167109,0.179964 0.286014,0.327791 l -0.146221,0.109263 h 0.591309 q 0.139793,-0.192818 0.281193,-0.427413 l 0.244236,0.125332 q -0.102837,0.131759 -0.245843,0.302081 h 0.682897 v 0.2121 h -1.081388 l -0.08195,0.279586 h 0.92874 v 1.75143 H 15.585573 V 29.538715 H 14.22942 v 0.118904 h -0.237809 z m 0.244236,1.947462 0.777699,0.0096 1.089422,-0.02571 q -0.05463,0.125332 -0.10605,0.24745 l -1.07014,0.0096 -0.713426,-0.01286 q -0.539891,-0.0032 -0.800195,-0.369567 -0.09319,0.07391 -0.375995,0.411345 l -0.138186,-0.273159 q 0.208886,-0.186391 0.404917,-0.355107 v -1.116737 h -0.372781 v -0.234595 h 0.617018 v 1.405964 q 0.232988,0.289227 0.687717,0.303689 z m -0.0064,-0.510968 h 1.356153 V 29.053456 H 14.22942 Z m 0,-0.478831 h 1.356153 V 28.577838 H 14.22942 Z m 1.356153,-0.761631 H 14.22942 v 0.286013 h 1.356153 z m -2.371661,-1.028363 q 0.22174,0.257091 0.437054,0.559172 l -0.224955,0.154255 Q 13.210698,27.453067 13.01788,27.215258 Z"
       id="text26"
       style="font-size:3.29076px;line-height:125%;font-family:'微软雅黑';letter-spacing:0px;word-spacing:0px;stroke-width:0.264583"
       aria-label="通道" />
    <path
       d="m 16.376999,29.320187 q 0.255484,0.197639 0.576847,0.197639 0.257091,0 0.406525,-0.125332 0.151041,-0.126938 0.151041,-0.339038 0,-0.472404 -0.67647,-0.472404 h -0.207279 v -0.260304 h 0.197638 q 0.599342,0 0.599342,-0.443482 0,-0.409738 -0.457942,-0.409738 -0.261911,0 -0.493293,0.17675 v -0.297261 q 0.244236,-0.1414 0.57042,-0.1414 0.31815,0 0.510968,0.167109 0.192818,0.165502 0.192818,0.430627 0,0.488472 -0.498114,0.628265 v 0.0064 q 0.269946,0.02892 0.425807,0.191211 0.157468,0.160682 0.157468,0.401705 0,0.335824 -0.242629,0.541497 -0.241023,0.205672 -0.642727,0.205672 -0.3535,0 -0.57042,-0.131759 z"
       id="text28"
       style="font-size:3.29076px;line-height:125%;font-family:'微软雅黑';letter-spacing:0px;word-spacing:0px;stroke-width:0.264583"
       aria-label="3" />
    <path
       d="m 20.224443,27.009585 0.25709,0.03856 q -0.06749,0.311722 -0.157468,0.581668 h 0.983372 v 0.218527 h -0.202459 q -0.08034,0.944808 -0.411345,1.500766 0.260304,0.3535 0.662008,0.578454 -0.102836,0.1414 -0.173536,0.253877 -0.392063,-0.253877 -0.652367,-0.604163 -0.295654,0.366354 -0.703786,0.636299 -0.0707,-0.0932 -0.183177,-0.202458 0.449909,-0.295655 0.729495,-0.67165 -0.260305,-0.449908 -0.343859,-1.038003 -0.06749,0.118904 -0.1414,0.221741 -0.06427,-0.0932 -0.160681,-0.205673 0.372781,-0.536677 0.498113,-1.307949 z m -2.06958,1.854267 h 0.488472 q 0.0707,-0.122118 0.138186,-0.250664 l 0.231382,0.07391 q -0.05142,0.08998 -0.102836,0.17675 h 0.78734 v 0.208886 q -0.122118,0.314936 -0.369568,0.552745 0.17675,0.08355 0.359927,0.167108 l -0.1414,0.221741 q -0.199245,-0.112477 -0.414559,-0.224954 -0.36314,0.260304 -0.915885,0.411345 -0.05142,-0.102836 -0.109263,-0.224954 0.46919,-0.10605 0.793767,-0.305296 -0.276373,-0.141399 -0.578454,-0.289227 0.102836,-0.147827 0.199245,-0.305295 h -0.366354 z m 0.03535,-1.10549 h 0.739136 v -0.719854 h 0.237808 v 0.719854 h 0.617018 v 0.2121 h -0.617018 v 0.196031 l 0.09641,-0.109263 q 0.298868,0.218527 0.501327,0.385636 l -0.154254,0.179963 q -0.17675,-0.167109 -0.443482,-0.375995 v 0.366354 H 18.929349 V 28.16328 q -0.292441,0.305295 -0.681291,0.536676 -0.06106,-0.0932 -0.138186,-0.196031 0.404918,-0.218527 0.742349,-0.533463 h -0.662008 z m 2.657674,0.08998 h -0.600949 q -0.01607,0.04178 -0.03535,0.08034 0.05785,0.681291 0.321363,1.166549 0.257091,-0.46919 0.314936,-1.246889 z m -2.210979,1.458989 q 0.228168,0.102836 0.46919,0.215313 0.221741,-0.189604 0.347073,-0.446695 h -0.668436 q -0.07391,0.118905 -0.147827,0.231382 z m 1.002653,-2.188484 0.199246,0.131759 q -0.17675,0.231381 -0.3535,0.427413 -0.07391,-0.06427 -0.173536,-0.134973 0.167109,-0.196031 0.32779,-0.424199 z m -1.365793,0.1414 0.183177,-0.125332 q 0.144613,0.17675 0.298867,0.379209 l -0.199245,0.1414 q -0.1414,-0.208886 -0.282799,-0.395277 z m 4.585854,1.789993 h 0.662008 v -0.408131 h -0.748777 q -0.03535,0.988192 -0.456335,1.526476 -0.07713,-0.09962 -0.173537,-0.202459 0.401705,-0.4949 0.401705,-1.520049 v -1.253316 h 1.896043 v 0.931953 h -0.231382 v -0.09962 h -1.43328 v 0.398491 h 0.745563 v -0.337432 h 0.231382 v 0.337432 h 0.848399 v 0.218527 h -0.848399 v 0.408131 h 0.668435 v 1.086208 h -0.231381 v -0.18639 h -1.099063 v 0.18639 H 22.859622 Z M 21.419914,28.725665 Q 21.648082,28.663 21.863395,28.598727 V 27.864412 H 21.458478 V 27.63303 h 0.404917 v -0.613804 h 0.237809 v 0.613804 h 0.350286 v 0.231382 h -0.350286 v 0.660401 q 0.152648,-0.0482 0.298868,-0.09802 0.0032,0.144613 0.01928,0.250663 -0.165502,0.05302 -0.31815,0.104443 v 0.972124 q 0,0.36314 -0.318149,0.369568 -0.09962,0.0032 -0.295655,-0.0032 -0.01285,-0.128545 -0.03856,-0.266731 0.17675,0.01928 0.269945,0.01928 0.144613,0 0.144613,-0.163895 v -0.848399 q -0.220133,0.07391 -0.411345,0.1414 z m 2.789433,-1.320803 h -1.43328 v 0.408132 h 1.43328 z m -0.01928,1.85748 h -1.099063 v 0.478831 h 1.099063 z"
       id="text30"
       style="font-size:3.29076px;line-height:125%;font-family:'微软雅黑';letter-spacing:0px;word-spacing:0px;stroke-width:0.264583"
       aria-label="数据" />
    <path
       d="m 25.487647,27.92065 q 0.08516,0 0.14622,0.05945 0.06106,0.05945 0.06106,0.143006 0,0.08356 -0.05945,0.144614 -0.05945,0.05945 -0.147827,0.05945 -0.08837,0 -0.147827,-0.05945 -0.05945,-0.06106 -0.05945,-0.144614 0,-0.08355 0.06106,-0.143006 0.06106,-0.05945 0.14622,-0.05945 z m 0,1.447742 q 0.08516,0 0.14622,0.05945 0.06106,0.05945 0.06106,0.144614 0,0.08677 -0.06106,0.14622 -0.06106,0.05785 -0.14622,0.05785 -0.08516,0 -0.14622,-0.05785 -0.06106,-0.05945 -0.06106,-0.14622 0,-0.08516 0.06106,-0.144614 0.06106,-0.05945 0.14622,-0.05945 z"
       id="text32"
       style="font-size:3.29076px;line-height:125%;font-family:'微软雅黑';letter-spacing:0px;word-spacing:0px;stroke-width:0.264583"
       aria-label="：" />
    <path
       d="m 30.307729,29.736353 h -0.380815 l -1.25171,-1.936214 q -0.05303,-0.08195 -0.08516,-0.162288 h -0.0096 q 0.01286,0.08355 0.01286,0.348679 v 1.749823 h -0.31815 v -2.488959 h 0.403311 l 1.217967,1.902471 q 0.08677,0.134973 0.102836,0.171929 h 0.0064 q -0.01607,-0.10605 -0.01607,-0.36314 v -1.71126 h 0.31815 z m 0.96409,-0.930347 v 0.930347 h -0.321363 v -2.488959 h 0.706999 q 0.403311,0 0.625051,0.194425 0.223348,0.194425 0.223348,0.555959 0,0.366354 -0.260304,0.594522 -0.260305,0.226561 -0.650761,0.213706 z m 0,-1.275812 v 0.993013 h 0.297261 q 0.294047,0 0.446695,-0.131759 0.152647,-0.133366 0.152647,-0.380816 0,-0.480438 -0.568813,-0.480438 z m 3.195958,0.0032 H 33.74953 v 2.202945 h -0.32297 v -2.202945 h -0.715034 v -0.286014 h 1.756251 z m 0.266731,1.735361 q 0.114084,0.09962 0.305295,0.163896 0.191212,0.06427 0.363141,0.06427 0.523822,0 0.523822,-0.372781 0,-0.104443 -0.05624,-0.187998 -0.05624,-0.08355 -0.154254,-0.147827 -0.09802,-0.06427 -0.367961,-0.197638 -0.374388,-0.186391 -0.493292,-0.345466 -0.118905,-0.160681 -0.118905,-0.366354 0,-0.310115 0.249057,-0.491686 0.249056,-0.18157 0.628265,-0.18157 0.371174,0 0.544711,0.08998 v 0.350286 q -0.224955,-0.155861 -0.568813,-0.155861 -0.228168,0 -0.372782,0.09641 -0.143006,0.0948 -0.143006,0.265124 0,0.151041 0.09962,0.245843 0.09962,0.0948 0.432234,0.258698 0.366354,0.175143 0.512574,0.350286 0.146221,0.175143 0.146221,0.39367 0,0.32779 -0.237809,0.502933 -0.237809,0.175143 -0.660402,0.175143 -0.147827,0 -0.345465,-0.04178 -0.196032,-0.04017 -0.286014,-0.10123 z m 4.650127,0.02089 -0.173537,0.173536 -0.589701,-0.589702 -0.586488,0.589702 -0.173536,-0.173536 0.591308,-0.586488 -0.591308,-0.589702 0.173536,-0.171929 0.586488,0.589702 0.591308,-0.589702 0.17193,0.173536 -0.589702,0.588095 z m 3.257016,-1.75625 h -0.718246 v 2.202945 h -0.322971 v -2.202945 h -0.715033 v -0.286014 h 1.75625 z m 1.592356,0.425806 -0.806622,2.045477 q -0.224954,0.568813 -0.634692,0.568813 -0.117298,0 -0.200852,-0.02571 v -0.276372 q 0.09159,0.03535 0.17675,0.03535 0.213706,0 0.319756,-0.250664 l 0.136579,-0.32297 -0.697358,-1.773925 h 0.348679 l 0.46437,1.335264 0.03856,0.146221 h 0.008 q 0.0096,-0.04981 0.03856,-0.143007 l 0.485258,-1.338478 z m 0.61059,1.526476 v 1.068532 h -0.314936 v -2.595008 h 0.314936 v 0.306902 h 0.0064 q 0.208886,-0.348679 0.61059,-0.348679 0.340645,0 0.533463,0.239415 0.194425,0.237809 0.194425,0.639513 0,0.443482 -0.220134,0.713427 -0.218527,0.268338 -0.589702,0.268338 -0.342252,0 -0.528642,-0.29244 z m -0.0016,-0.482045 q 0,0.21692 0.139794,0.366354 0.139793,0.147827 0.350285,0.147827 0.250664,0 0.392064,-0.192818 0.1414,-0.192818 0.1414,-0.533463 0,-0.28762 -0.131759,-0.449909 -0.131759,-0.163895 -0.359927,-0.163895 -0.232989,0 -0.382423,0.165502 -0.149434,0.165502 -0.149434,0.4242 z m 3.236128,-0.07552 h -1.243676 q 0.008,0.284407 0.155861,0.440268 0.147827,0.154254 0.412952,0.154254 0.298868,0 0.547924,-0.191211 v 0.281193 q -0.234595,0.165502 -0.621837,0.165502 -0.385636,0 -0.602557,-0.244236 -0.215313,-0.244236 -0.215313,-0.678076 0,-0.408132 0.236202,-0.673257 0.237809,-0.265124 0.589702,-0.265124 0.348679,0 0.54471,0.224954 0.196032,0.223348 0.196032,0.626658 z m -0.314936,-0.25227 q -0.0016,-0.241022 -0.114084,-0.372781 -0.112477,-0.131759 -0.316543,-0.131759 -0.187997,0 -0.326184,0.139793 -0.136579,0.139793 -0.171929,0.364747 z m 0.658795,0.592915 q 0.114084,0.09962 0.305295,0.163896 0.191211,0.06427 0.36314,0.06427 0.523823,0 0.523823,-0.372781 0,-0.104443 -0.05624,-0.187998 -0.05624,-0.08355 -0.154254,-0.147827 -0.09802,-0.06427 -0.367961,-0.197638 -0.374389,-0.186391 -0.493293,-0.345466 -0.118904,-0.160681 -0.118904,-0.366354 0,-0.310115 0.249056,-0.491686 0.249057,-0.18157 0.628265,-0.18157 0.371175,0 0.544711,0.08998 v 0.350286 q -0.224954,-0.155861 -0.568813,-0.155861 -0.228168,0 -0.372781,0.09641 -0.143007,0.0948 -0.143007,0.265124 0,0.151041 0.09962,0.245843 0.09962,0.0948 0.432233,0.258698 0.366354,0.175143 0.512575,0.350286 0.14622,0.175143 0.14622,0.39367 0,0.32779 -0.237809,0.502933 -0.237809,0.175143 -0.660401,0.175143 -0.147828,0 -0.345466,-0.04178 -0.196032,-0.04017 -0.286013,-0.10123 z m 1.936214,-1.936213 q 0,-0.08356 0.05624,-0.139793 0.05785,-0.05785 0.1414,-0.05785 0.08516,0 0.143006,0.05624 0.05945,0.05624 0.05945,0.1414 0,0.08355 -0.05945,0.139793 -0.05785,0.05463 -0.143006,0.05463 -0.08516,0 -0.1414,-0.05463 -0.05624,-0.05624 -0.05624,-0.139793 z m 0.03696,2.403797 v -1.777139 h 0.314936 v 1.777139 z m 2.127425,0 H 51.048516 V 29.63191 l 1.033183,-1.412392 H 51.144925 V 27.959214 H 52.53 v 0.102836 l -1.026755,1.413999 h 1.020328 z m 1.815702,-0.808229 h -1.243676 q 0.008,0.284407 0.155861,0.440268 0.147827,0.154254 0.412952,0.154254 0.298868,0 0.547924,-0.191211 v 0.281193 q -0.234595,0.165502 -0.621838,0.165502 -0.385636,0 -0.602556,-0.244236 -0.215313,-0.244236 -0.215313,-0.678076 0,-0.408132 0.236202,-0.673257 0.237808,-0.265124 0.589701,-0.265124 0.348679,0 0.544711,0.224954 0.196032,0.223348 0.196032,0.626658 z m -0.314936,-0.25227 q -0.0016,-0.241022 -0.114084,-0.372781 -0.112478,-0.131759 -0.316543,-0.131759 -0.187998,0 -0.326184,0.139793 -0.136579,0.139793 -0.171929,0.364747 z m 2.214194,1.626098 q -0.541497,-0.617017 -0.541497,-1.515228 0,-0.89821 0.541497,-1.53933 h 0.277979 q -0.543104,0.666829 -0.543104,1.536117 0,0.867681 0.539891,1.518441 z m 2.665708,-0.565599 h -0.380816 l -1.25171,-1.936214 q -0.05302,-0.08195 -0.08516,-0.162288 h -0.0096 q 0.01286,0.08355 0.01286,0.348679 v 1.749823 h -0.31815 v -2.488959 h 0.403311 l 1.217967,1.902471 q 0.08677,0.134973 0.102836,0.171929 h 0.0064 q -0.01607,-0.10605 -0.01607,-0.36314 v -1.71126 h 0.31815 z m 0.964091,-0.930347 v 0.930347 h -0.321364 v -2.488959 h 0.707 q 0.40331,0 0.625051,0.194425 0.223348,0.194425 0.223348,0.555959 0,0.366354 -0.260305,0.594522 -0.260304,0.226561 -0.65076,0.213706 z m 0,-1.275812 v 0.993013 h 0.297261 q 0.294047,0 0.446695,-0.131759 0.152647,-0.133366 0.152647,-0.380816 0,-0.480438 -0.568813,-0.480438 z m 3.195956,0.0032 h -0.718246 v 2.202945 h -0.322971 v -2.202945 h -0.715033 v -0.286014 h 1.75625 z m 0.266732,1.735361 q 0.114084,0.09962 0.305295,0.163896 0.191211,0.06427 0.36314,0.06427 0.523822,0 0.523822,-0.372781 0,-0.104443 -0.05624,-0.187998 -0.05624,-0.08355 -0.154255,-0.147827 -0.09801,-0.06427 -0.36796,-0.197638 -0.374389,-0.186391 -0.493293,-0.345466 -0.118905,-0.160681 -0.118905,-0.366354 0,-0.310115 0.249057,-0.491686 0.249057,-0.18157 0.628265,-0.18157 0.371175,0 0.544711,0.08998 v 0.350286 q -0.224954,-0.155861 -0.568813,-0.155861 -0.228168,0 -0.372781,0.09641 -0.143007,0.0948 -0.143007,0.265124 0,0.151041 0.09962,0.245843 0.09962,0.0948 0.432233,0.258698 0.366354,0.175143 0.512575,0.350286 0.14622,0.175143 0.14622,0.39367 0,0.32779 -0.237809,0.502933 -0.237809,0.175143 -0.660402,0.175143 -0.147827,0 -0.345465,-0.04178 -0.196032,-0.04017 -0.286013,-0.10123 z m 4.650128,0.02089 -0.173536,0.173536 -0.589702,-0.589702 -0.586488,0.589702 -0.173536,-0.173536 0.591309,-0.586488 -0.591309,-0.589702 0.173536,-0.171929 0.586488,0.589702 0.591309,-0.589702 0.171929,0.173536 -0.589701,0.588095 z m 1.589139,-0.24745 q 0,-0.215313 0.128545,-0.396883 0.128546,-0.181571 0.331004,-0.258698 -0.162288,-0.09159 -0.25709,-0.234595 -0.0948,-0.143007 -0.0948,-0.310116 0,-0.176749 0.08998,-0.32297 0.09159,-0.14622 0.252271,-0.229774 0.162288,-0.08356 0.356713,-0.08356 0.196031,0 0.35832,0.08356 0.162288,0.08195 0.25227,0.228167 0.08998,0.146221 0.08998,0.324577 0,0.163896 -0.0932,0.308509 -0.09159,0.143007 -0.255483,0.236202 0.202458,0.07873 0.329397,0.260304 0.126938,0.181571 0.126938,0.395277 0,0.2121 -0.101229,0.380816 -0.101229,0.167109 -0.28762,0.260304 -0.186391,0.0932 -0.419379,0.0932 -0.231382,0 -0.416166,-0.0932 -0.184784,-0.09319 -0.28762,-0.261911 -0.102836,-0.168716 -0.102836,-0.379209 z m 0.308509,-0.01446 q 0,0.221741 0.136579,0.355106 0.136579,0.133366 0.363141,0.133366 0.22174,0 0.361533,-0.134973 0.1414,-0.136579 0.1414,-0.353499 0,-0.205673 -0.143007,-0.345466 -0.141399,-0.1414 -0.359926,-0.1414 -0.216921,0 -0.35832,0.138187 -0.1414,0.136579 -0.1414,0.348679 z m 0.08998,-1.160122 q 0,0.167109 0.118905,0.287621 0.118904,0.118904 0.290834,0.118904 0.168715,0 0.290833,-0.120511 0.123725,-0.120511 0.123725,-0.286014 0,-0.168715 -0.118904,-0.286013 -0.117298,-0.117298 -0.295654,-0.117298 -0.17675,0 -0.294048,0.115691 -0.115691,0.114084 -0.115691,0.28762 z m 2.668924,1.868728 v -2.488959 h 0.731101 q 0.327791,0 0.523822,0.157468 0.196032,0.155861 0.196032,0.414559 0,0.205672 -0.117297,0.36314 -0.115691,0.157468 -0.319757,0.223348 v 0.0064 q 0.253877,0.02892 0.404918,0.192818 0.152647,0.162289 0.152647,0.412952 0,0.321363 -0.231381,0.520609 -0.229775,0.197638 -0.589702,0.197638 z m 0.321363,-2.207766 v 0.779306 h 0.292441 q 0.232988,0 0.364747,-0.112477 0.133366,-0.114084 0.133366,-0.314936 0,-0.351893 -0.469191,-0.351893 z m 0,1.058892 V 29.45516 H 73.3447 q 0.25227,0 0.38885,-0.115691 0.138186,-0.117297 0.138186,-0.324577 0,-0.427413 -0.580061,-0.427413 z m 3.14936,-0.628265 -0.806622,2.045477 q -0.224955,0.568813 -0.634693,0.568813 -0.117297,0 -0.200852,-0.02571 v -0.276372 q 0.09159,0.03535 0.17675,0.03535 0.213707,0 0.319756,-0.250664 l 0.13658,-0.32297 -0.697359,-1.773925 h 0.34868 l 0.46437,1.335264 0.03856,0.146221 h 0.008 q 0.0096,-0.04981 0.03856,-0.143007 l 0.485258,-1.338478 z m 1.158515,1.759464 q -0.102836,0.05624 -0.277979,0.05624 -0.477225,0 -0.477225,-0.528643 V 28.219518 H 76.20644 v -0.260304 h 0.305295 v -0.427413 l 0.313329,-0.09962 v 0.527036 h 0.441875 v 0.260304 h -0.441875 v 0.970517 q 0,0.175143 0.05945,0.250664 0.05945,0.07552 0.197639,0.07552 0.10605,0 0.184784,-0.05945 z m 1.793207,-0.790554 H 77.81647 q 0.008,0.284407 0.155861,0.440268 0.147827,0.154254 0.412952,0.154254 0.298868,0 0.547924,-0.191211 v 0.281193 q -0.234595,0.165502 -0.621838,0.165502 -0.385636,0 -0.602556,-0.244236 -0.215313,-0.244236 -0.215313,-0.678076 0,-0.408132 0.236202,-0.673257 0.237808,-0.265124 0.589701,-0.265124 0.348679,0 0.544711,0.224954 0.196032,0.223348 0.196032,0.626658 z m -0.314936,-0.25227 q -0.0016,-0.241022 -0.114084,-0.372781 -0.112478,-0.131759 -0.316543,-0.131759 -0.187998,0 -0.326184,0.139793 -0.136579,0.139793 -0.171929,0.364747 z m 0.493294,1.626098 q 0.541497,-0.649154 0.541497,-1.518441 0,-0.870895 -0.54471,-1.536117 h 0.279586 q 0.543104,0.6363 0.543104,1.53933 0,0.903031 -0.543104,1.515228 z"
       id="text34"
       style="font-size:3.29076px;line-height:125%;font-family:'微软雅黑';letter-spacing:0px;word-spacing:0px;stroke-width:0.264583"
       aria-label="NPTS × TypeSize (NPTS × 8 Byte)" />
    <path
       style="fill:#ddd6e5;fill-opacity:1;fill-rule:evenodd;stroke:none;stroke-width:0.264583"
       d="m 5.8191711,35.752467 v 9.00157 H 84.02132 v -9.00157 z"
       id="path34" />
    <path
       style="fill:none;stroke:#ccc2d9;stroke-width:0.548667px;stroke-linecap:round;stroke-linejoin:round;stroke-miterlimit:4;stroke-dasharray:none;stroke-opacity:1"
       d="M 5.8191711,44.754037 H 84.02132 v -9.00157 H 5.8191711 Z"
       id="path35" />
    <path
       d="m 44.049594,41.302096 q 0,-0.08677 0.05945,-0.14622 0.05945,-0.05945 0.147827,-0.05945 0.08998,0 0.149434,0.06106 0.05945,0.05945 0.05945,0.144614 0,0.08355 -0.05945,0.144613 -0.05945,0.05945 -0.151041,0.05945 -0.08838,0 -0.147827,-0.05945 -0.05785,-0.06106 -0.05785,-0.144613 z m 0.792161,0 q 0,-0.08677 0.05945,-0.14622 0.05945,-0.05945 0.147827,-0.05945 0.08998,0 0.149434,0.06106 0.05945,0.05945 0.05945,0.144614 0,0.08355 -0.05945,0.144613 -0.05945,0.05945 -0.151041,0.05945 -0.08837,0 -0.147827,-0.05945 -0.05785,-0.06106 -0.05785,-0.144613 z m 0.79216,0 q 0,-0.08677 0.05945,-0.14622 0.05945,-0.05945 0.147827,-0.05945 0.08998,0 0.149434,0.06106 0.05945,0.05945 0.05945,0.144614 0,0.08355 -0.05945,0.144613 -0.05945,0.05945 -0.151041,0.05945 -0.08837,0 -0.147827,-0.05945 -0.05785,-0.06106 -0.05785,-0.144613 z"
       id="text36"
       style="font-size:3.29076px;line-height:125%;font-family:'微软雅黑';letter-spacing:0px;word-spacing:0px;stroke-width:0.264583"
       aria-label="..." />
    <path
       style="fill:#ddd6e5;fill-opacity:1;fill-rule:evenodd;stroke:none;stroke-width:0.264583"
       d="m 5.8191711,47.600247 v 9.00156 H 84.02132 v -9.00156 z"
       id="path36" />
    <path
       style="fill:none;stroke:#ccc2d9;stroke-width:0.548667px;stroke-linecap:round;stroke-linejoin:round;stroke-miterlimit:4;stroke-dasharray:none;stroke-opacity:1"
       d="M 5.8191711,56.601807 H 84.02132 v -9.00156 H 5.8191711 Z"
       id="path37" />
    <path
       d="m 10.523965,53.241786 h -0.228168 v -1.809275 h 0.774486 Q 10.82926,51.308786 10.57217,51.185061 l 0.131759,-0.154254 q 0.25227,0.122118 0.474011,0.232988 l 0.573633,-0.300475 h -1.507194 v -0.205672 h 1.931394 v 0.215313 l -0.776093,0.403311 q 0.05624,0.02892 0.109264,0.05624 h 0.689324 v 1.452562 q 0,0.366354 -0.337431,0.366354 -0.167109,0 -0.363141,-0.0096 -0.01607,-0.122118 -0.0482,-0.24745 0.202458,0.0225 0.347072,0.0225 0.173536,0 0.173536,-0.167109 v -0.157468 h -0.613804 v 0.501327 h -0.228168 v -0.501327 h -0.604163 z m 0.03535,0.17675 0.800195,0.01285 1.07014,-0.02571 q -0.03535,0.10605 -0.08998,0.253877 l -1.063713,0.0064 -0.764844,-0.01928 q -0.5463179,-0.0064 -0.7648449,-0.375995 -0.1317589,0.122118 -0.3856359,0.430627 l -0.131759,-0.266732 q 0.2844065,-0.274765 0.411345,-0.39367 V 51.959547 H 9.2577939 v -0.237809 h 0.629872 v 1.373828 q 0.1976381,0.319756 0.6716491,0.32297 z M 9.6305753,50.641957 q 0.1638953,0.199245 0.4499087,0.607377 L 9.852316,51.410015 Q 9.5920117,51.001884 9.4249028,50.780143 Z M 11.9701,51.638183 h -0.613804 v 0.321364 H 11.9701 Z m -0.613804,0.848399 H 11.9701 v -0.321363 h -0.613804 z m -0.832331,-0.527035 h 0.604163 v -0.321364 h -0.604163 z m 0,0.527035 h 0.604163 v -0.321363 h -0.604163 z m 3.094729,-0.999439 h 0.662008 l 0.06267,-0.279586 h -0.907851 v -0.2121 H 14.03968 Q 13.964159,50.8878 13.805084,50.696589 l 0.186391,-0.138186 q 0.167109,0.179963 0.286013,0.32779 l -0.14622,0.109264 h 0.591309 q 0.139793,-0.192818 0.281192,-0.427413 l 0.244237,0.125331 q -0.102837,0.131759 -0.245843,0.302082 h 0.682897 v 0.2121 h -1.081388 l -0.08195,0.279586 h 0.928739 v 1.75143 h -0.237808 v -0.118905 h -1.356153 v 0.118905 h -0.237809 z m 0.244236,1.947461 0.777699,0.0096 1.089421,-0.02571 q -0.05463,0.125332 -0.106049,0.24745 l -1.07014,0.0096 -0.713427,-0.01286 q -0.53989,-0.0032 -0.800194,-0.369568 -0.0932,0.07391 -0.375995,0.411345 L 12.526059,53.43139 q 0.208886,-0.18639 0.404917,-0.355106 v -1.116737 h -0.372781 v -0.234596 h 0.617017 v 1.405965 q 0.232989,0.289227 0.687718,0.303688 z m -0.0064,-0.510968 h 1.356153 V 52.63441 h -1.356153 z m 0,-0.478831 h 1.356153 v -0.286013 h -1.356153 z m 1.356153,-0.761631 h -1.356153 v 0.286014 h 1.356153 z m -2.371661,-1.028362 q 0.22174,0.25709 0.437054,0.559172 l -0.224955,0.154254 Q 12.837781,51.03402 12.644963,50.796212 Z"
       id="text38"
       style="font-size:3.29076px;line-height:125%;font-family:'微软雅黑';letter-spacing:0px;word-spacing:0px;stroke-width:0.264583"
       aria-label="通道" />
    <path
       d="m 18.128294,53.317307 h -0.380815 l -1.25171,-1.936214 q -0.05302,-0.08195 -0.08516,-0.162289 h -0.0096 q 0.01285,0.08356 0.01285,0.348679 v 1.749824 h -0.31815 v -2.488959 h 0.403311 l 1.217967,1.902471 q 0.08677,0.134972 0.102837,0.171929 h 0.0064 q -0.01607,-0.10605 -0.01607,-0.363141 v -1.711259 h 0.318149 z"
       id="text40"
       style="font-size:3.29076px;line-height:125%;font-family:'微软雅黑';letter-spacing:0px;word-spacing:0px;stroke-width:0.264583"
       aria-label="N" />
    <path
       d="m 20.597367,50.590539 0.257091,0.03856 q -0.06749,0.311722 -0.157468,0.581667 h 0.983372 v 0.218527 h -0.202459 q -0.08034,0.944808 -0.411345,1.500767 0.260304,0.353499 0.662008,0.578454 -0.102836,0.1414 -0.173536,0.253877 -0.392063,-0.253877 -0.652367,-0.604163 -0.295655,0.366354 -0.703786,0.636299 -0.0707,-0.0932 -0.183177,-0.202459 0.449909,-0.295654 0.729495,-0.671649 -0.260305,-0.449909 -0.343859,-1.038004 -0.06749,0.118905 -0.1414,0.221741 -0.06427,-0.0932 -0.160682,-0.205672 0.372782,-0.536677 0.498113,-1.307949 z m -2.069579,1.854266 h 0.488472 q 0.0707,-0.122118 0.138186,-0.250663 l 0.231382,0.07391 q -0.05142,0.08998 -0.102836,0.17675 h 0.78734 v 0.208886 q -0.122118,0.314936 -0.369568,0.552745 0.17675,0.08356 0.359927,0.167109 l -0.1414,0.221741 q -0.199245,-0.112477 -0.414559,-0.224955 -0.36314,0.260305 -0.915885,0.411345 -0.05142,-0.102836 -0.109264,-0.224954 0.469191,-0.10605 0.793768,-0.305295 -0.276373,-0.1414 -0.578454,-0.289227 0.102836,-0.147827 0.199245,-0.305295 h -0.366354 z m 0.03535,-1.10549 h 0.739135 v -0.719853 h 0.237809 v 0.719853 H 20.1571 v 0.2121 h -0.617018 v 0.196032 l 0.09641,-0.109264 q 0.298868,0.218527 0.501327,0.385636 l -0.154254,0.179964 q -0.17675,-0.167109 -0.443482,-0.375995 v 0.366354 h -0.237809 v -0.449909 q -0.29244,0.305295 -0.68129,0.536677 -0.06106,-0.0932 -0.138186,-0.196032 0.404918,-0.218527 0.742349,-0.533463 h -0.662008 z m 2.657674,0.08998 h -0.600949 q -0.01607,0.04178 -0.03535,0.08034 0.05785,0.68129 0.321363,1.166549 0.257091,-0.469191 0.314936,-1.24689 z m -2.210979,1.45899 q 0.228168,0.102836 0.46919,0.215313 0.221741,-0.189604 0.347073,-0.446695 H 19.15766 q -0.07391,0.118904 -0.147827,0.231382 z m 1.002653,-2.188484 0.199246,0.131759 q -0.17675,0.231381 -0.3535,0.427413 -0.07391,-0.06427 -0.173536,-0.134973 0.167109,-0.196032 0.32779,-0.424199 z m -1.365794,0.141399 0.183177,-0.125331 q 0.144614,0.17675 0.298868,0.379208 l -0.199245,0.1414 q -0.1414,-0.208886 -0.2828,-0.395277 z m 4.585854,1.789994 h 0.662009 v -0.408131 h -0.748777 q -0.03535,0.988192 -0.456336,1.526475 -0.07713,-0.09962 -0.173536,-0.202459 0.401704,-0.494899 0.401704,-1.520048 v -1.253317 h 1.896044 v 0.931954 h -0.231382 v -0.09962 h -1.43328 v 0.39849 h 0.745563 v -0.337431 h 0.231381 v 0.337431 h 0.848399 v 0.218528 h -0.848399 v 0.408131 h 0.668436 v 1.086208 H 24.56299 v -0.186391 h -1.099062 v 0.186391 h -0.231382 z m -1.439707,-0.324577 q 0.228168,-0.06267 0.443481,-0.126939 V 51.445365 H 21.831402 V 51.213984 H 22.23632 V 50.60018 h 0.237809 v 0.613804 h 0.350286 v 0.231381 h -0.350286 v 0.660402 q 0.152648,-0.04821 0.298868,-0.09802 0.0032,0.144614 0.01928,0.250663 -0.165502,0.05302 -0.31815,0.104444 v 0.972123 q 0,0.363141 -0.31815,0.369568 -0.09962,0.0032 -0.295654,-0.0032 -0.01285,-0.128546 -0.03856,-0.266732 0.176749,0.01928 0.269945,0.01928 0.144613,0 0.144613,-0.163895 v -0.848399 q -0.220134,0.07391 -0.411345,0.141399 z m 2.789433,-1.320803 h -1.43328 v 0.408131 h 1.43328 z m -0.01928,1.85748 h -1.099062 v 0.478831 h 1.099062 z"
       id="text42"
       style="font-size:3.29076px;line-height:125%;font-family:'微软雅黑';letter-spacing:0px;word-spacing:0px;stroke-width:0.264583"
       aria-label="数据" />
    <path
       d="m 25.860564,51.501604 q 0.08516,0 0.14622,0.05945 0.06106,0.05945 0.06106,0.143007 0,0.08355 -0.05945,0.144613 -0.05945,0.05945 -0.147827,0.05945 -0.08837,0 -0.147827,-0.05945 -0.05945,-0.06106 -0.05945,-0.144613 0,-0.08355 0.06106,-0.143007 0.06106,-0.05945 0.14622,-0.05945 z m 0,1.447742 q 0.08516,0 0.14622,0.05945 0.06106,0.05945 0.06106,0.144613 0,0.08677 -0.06106,0.146221 -0.06106,0.05785 -0.14622,0.05785 -0.08516,0 -0.14622,-0.05785 -0.06106,-0.05945 -0.06106,-0.146221 0,-0.08516 0.06106,-0.144613 0.06106,-0.05945 0.14622,-0.05945 z"
       id="text44"
       style="font-size:3.29076px;line-height:125%;font-family:'微软雅黑';letter-spacing:0px;word-spacing:0px;stroke-width:0.264583"
       aria-label="：" />
    <path
       d="m 30.680646,53.317307 h -0.380815 l -1.25171,-1.936214 q -0.05302,-0.08195 -0.08516,-0.162289 h -0.0096 q 0.01285,0.08356 0.01285,0.348679 v 1.749824 h -0.31815 v -2.488959 h 0.403311 l 1.217967,1.902471 q 0.08677,0.134972 0.102836,0.171929 h 0.0064 q -0.01607,-0.10605 -0.01607,-0.363141 v -1.711259 h 0.318149 z m 0.96409,-0.930347 v 0.930347 h -0.321363 v -2.488959 h 0.706999 q 0.403311,0 0.625051,0.194425 0.223348,0.194424 0.223348,0.555958 0,0.366354 -0.260304,0.594522 -0.260305,0.226561 -0.650761,0.213707 z m 0,-1.275812 v 0.993012 h 0.297261 q 0.294047,0 0.446695,-0.131759 0.152648,-0.133366 0.152648,-0.380815 0,-0.480438 -0.568813,-0.480438 z m 3.195958,0.0032 h -0.718247 v 2.202946 h -0.32297 v -2.202946 h -0.715034 v -0.286013 h 1.756251 z m 0.266731,1.735362 q 0.114084,0.09962 0.305296,0.163895 0.191211,0.06427 0.36314,0.06427 0.523822,0 0.523822,-0.372782 0,-0.104443 -0.05624,-0.187997 -0.05624,-0.08355 -0.154255,-0.147827 -0.09802,-0.06427 -0.367961,-0.197639 -0.374388,-0.18639 -0.493292,-0.345465 -0.118905,-0.160682 -0.118905,-0.366354 0,-0.310116 0.249057,-0.491686 0.249056,-0.18157 0.628265,-0.18157 0.371175,0 0.544711,0.08998 v 0.350286 q -0.224954,-0.155861 -0.568813,-0.155861 -0.228168,0 -0.372782,0.09641 -0.143006,0.0948 -0.143006,0.265125 0,0.151041 0.09962,0.245843 0.09962,0.0948 0.432234,0.258697 0.366354,0.175143 0.512574,0.350286 0.146221,0.175143 0.146221,0.39367 0,0.327791 -0.237809,0.502934 -0.237809,0.175143 -0.660402,0.175143 -0.147827,0 -0.345465,-0.04178 -0.196032,-0.04017 -0.286014,-0.10123 z m 4.650127,0.02089 -0.173536,0.173536 -0.589702,-0.589702 -0.586488,0.589702 -0.173536,-0.173536 0.591308,-0.586488 -0.591308,-0.589702 0.173536,-0.171929 0.586488,0.589701 0.591308,-0.589701 0.17193,0.173536 -0.589702,0.588095 z m 3.257017,-1.756251 h -0.718247 v 2.202946 h -0.32297 v -2.202946 h -0.715034 v -0.286013 h 1.756251 z m 1.592355,0.425807 -0.806621,2.045477 q -0.224955,0.568813 -0.634693,0.568813 -0.117298,0 -0.200852,-0.02571 v -0.276373 q 0.09159,0.03535 0.17675,0.03535 0.213706,0 0.319756,-0.250663 l 0.13658,-0.32297 -0.697359,-1.773925 h 0.348679 l 0.46437,1.335264 0.03856,0.14622 h 0.008 q 0.0096,-0.04981 0.03856,-0.143006 l 0.485258,-1.338478 z m 0.61059,1.526475 v 1.068533 h -0.314936 v -2.595008 h 0.314936 v 0.306901 h 0.0064 q 0.208886,-0.348679 0.61059,-0.348679 0.340645,0 0.533463,0.239416 0.194425,0.237809 0.194425,0.639513 0,0.443481 -0.220134,0.713426 -0.218527,0.268339 -0.589702,0.268339 -0.342252,0 -0.528642,-0.292441 z m -0.0016,-0.482045 q 0,0.21692 0.139793,0.366354 0.139793,0.147827 0.350286,0.147827 0.250663,0 0.392063,-0.192817 0.1414,-0.192818 0.1414,-0.533464 0,-0.28762 -0.131759,-0.449908 -0.131759,-0.163895 -0.359927,-0.163895 -0.232988,0 -0.382422,0.165502 -0.149434,0.165502 -0.149434,0.424199 z m 3.236127,-0.07552 h -1.243676 q 0.008,0.284406 0.155861,0.440268 0.147828,0.154254 0.412952,0.154254 0.298868,0 0.547925,-0.191211 v 0.281193 q -0.234596,0.165502 -0.621838,0.165502 -0.385636,0 -0.602556,-0.244236 -0.215314,-0.244236 -0.215314,-0.678077 0,-0.408131 0.236202,-0.673256 0.237809,-0.265125 0.589702,-0.265125 0.348679,0 0.544711,0.224955 0.196031,0.223347 0.196031,0.626658 z m -0.314936,-0.25227 q -0.0016,-0.241023 -0.114084,-0.372782 -0.112477,-0.131759 -0.316543,-0.131759 -0.187997,0 -0.326183,0.139793 -0.13658,0.139793 -0.17193,0.364748 z m 0.658795,0.592915 q 0.114084,0.09962 0.305295,0.163895 0.191211,0.06427 0.363141,0.06427 0.523822,0 0.523822,-0.372782 0,-0.104443 -0.05624,-0.187997 -0.05624,-0.08355 -0.154254,-0.147827 -0.09802,-0.06427 -0.367961,-0.197639 -0.374388,-0.18639 -0.493293,-0.345465 -0.118904,-0.160682 -0.118904,-0.366354 0,-0.310116 0.249056,-0.491686 0.249057,-0.18157 0.628265,-0.18157 0.371175,0 0.544711,0.08998 v 0.350286 q -0.224954,-0.155861 -0.568813,-0.155861 -0.228168,0 -0.372781,0.09641 -0.143007,0.0948 -0.143007,0.265125 0,0.151041 0.09962,0.245843 0.09962,0.0948 0.432233,0.258697 0.366355,0.175143 0.512575,0.350286 0.14622,0.175143 0.14622,0.39367 0,0.327791 -0.237809,0.502934 -0.237809,0.175143 -0.660401,0.175143 -0.147827,0 -0.345466,-0.04178 -0.196031,-0.04017 -0.286013,-0.10123 z m 1.936214,-1.936214 q 0,-0.08355 0.05624,-0.139793 0.05785,-0.05785 0.1414,-0.05785 0.08516,0 0.143006,0.05624 0.05945,0.05624 0.05945,0.1414 0,0.08356 -0.05945,0.139793 -0.05785,0.05463 -0.143006,0.05463 -0.08516,0 -0.1414,-0.05463 -0.05624,-0.05624 -0.05624,-0.139793 z m 0.03696,2.403798 v -1.777139 h 0.314936 v 1.777139 z m 2.127425,0 h -1.475057 v -0.104444 l 1.033183,-1.412391 h -0.936774 v -0.260304 h 1.385076 v 0.102836 l -1.026756,1.413998 h 1.020328 z m 1.815702,-0.808229 h -1.243676 q 0.008,0.284406 0.155861,0.440268 0.147827,0.154254 0.412952,0.154254 0.298868,0 0.547924,-0.191211 v 0.281193 q -0.234595,0.165502 -0.621838,0.165502 -0.385636,0 -0.602556,-0.244236 -0.215313,-0.244236 -0.215313,-0.678077 0,-0.408131 0.236202,-0.673256 0.237809,-0.265125 0.589701,-0.265125 0.34868,0 0.544711,0.224955 0.196032,0.223347 0.196032,0.626658 z m -0.314936,-0.25227 q -0.0016,-0.241023 -0.114084,-0.372782 -0.112477,-0.131759 -0.316543,-0.131759 -0.187998,0 -0.326184,0.139793 -0.136579,0.139793 -0.171929,0.364748 z m 2.214194,1.626098 q -0.541497,-0.617018 -0.541497,-1.515228 0,-0.89821 0.541497,-1.53933 h 0.277979 q -0.543104,0.666829 -0.543104,1.536116 0,0.867681 0.539891,1.518442 z m 2.665708,-0.565599 h -0.380815 l -1.25171,-1.936214 q -0.05302,-0.08195 -0.08516,-0.162289 h -0.0096 q 0.01286,0.08356 0.01286,0.348679 v 1.749824 h -0.31815 v -2.488959 h 0.403311 l 1.217967,1.902471 q 0.08677,0.134972 0.102836,0.171929 h 0.0064 q -0.01607,-0.10605 -0.01607,-0.363141 v -1.711259 h 0.31815 z m 0.964091,-0.930347 v 0.930347 h -0.321364 v -2.488959 h 0.707 q 0.403311,0 0.625051,0.194425 0.223348,0.194424 0.223348,0.555958 0,0.366354 -0.260304,0.594522 -0.260305,0.226561 -0.650761,0.213707 z m 0,-1.275812 v 0.993012 h 0.297261 q 0.294047,0 0.446695,-0.131759 0.152647,-0.133366 0.152647,-0.380815 0,-0.480438 -0.568813,-0.480438 z m 3.195957,0.0032 h -0.718247 v 2.202946 h -0.32297 v -2.202946 h -0.715034 v -0.286013 h 1.756251 z m 0.266731,1.735362 q 0.114084,0.09962 0.305295,0.163895 0.191211,0.06427 0.36314,0.06427 0.523823,0 0.523823,-0.372782 0,-0.104443 -0.05624,-0.187997 -0.05624,-0.08355 -0.154254,-0.147827 -0.09802,-0.06427 -0.367961,-0.197639 -0.374389,-0.18639 -0.493293,-0.345465 -0.118904,-0.160682 -0.118904,-0.366354 0,-0.310116 0.249056,-0.491686 0.249057,-0.18157 0.628265,-0.18157 0.371175,0 0.544711,0.08998 v 0.350286 q -0.224954,-0.155861 -0.568813,-0.155861 -0.228168,0 -0.372781,0.09641 -0.143007,0.0948 -0.143007,0.265125 0,0.151041 0.09962,0.245843 0.09962,0.0948 0.432233,0.258697 0.366354,0.175143 0.512575,0.350286 0.14622,0.175143 0.14622,0.39367 0,0.327791 -0.237809,0.502934 -0.237809,0.175143 -0.660401,0.175143 -0.147827,0 -0.345466,-0.04178 -0.196031,-0.04017 -0.286013,-0.10123 z m 4.650128,0.02089 -0.173536,0.173536 -0.589701,-0.589702 -0.586488,0.589702 -0.173537,-0.173536 0.591309,-0.586488 -0.591309,-0.589702 0.173537,-0.171929 0.586488,0.589701 0.591308,-0.589701 0.171929,0.173536 -0.589701,0.588095 z m 1.589139,-0.24745 q 0,-0.215314 0.128545,-0.396884 0.128546,-0.18157 0.331005,-0.258697 -0.162289,-0.09159 -0.257091,-0.234595 -0.0948,-0.143007 -0.0948,-0.310116 0,-0.17675 0.08998,-0.32297 0.09159,-0.14622 0.25227,-0.229775 0.162288,-0.08355 0.356713,-0.08355 0.196032,0 0.35832,0.08355 0.162288,0.08195 0.25227,0.228168 0.08998,0.14622 0.08998,0.324577 0,0.163895 -0.0932,0.308509 -0.09159,0.143006 -0.255484,0.236202 0.202459,0.07873 0.329397,0.260304 0.126939,0.18157 0.126939,0.395277 0,0.2121 -0.10123,0.380815 -0.101229,0.167109 -0.28762,0.260305 -0.186391,0.0932 -0.419379,0.0932 -0.231382,0 -0.416166,-0.0932 -0.184783,-0.0932 -0.28762,-0.261912 -0.102836,-0.168715 -0.102836,-0.379208 z m 0.308509,-0.01446 q 0,0.221741 0.136579,0.355107 0.13658,0.133366 0.363141,0.133366 0.22174,0 0.361533,-0.134973 0.1414,-0.136579 0.1414,-0.3535 0,-0.205672 -0.143006,-0.345465 -0.1414,-0.1414 -0.359927,-0.1414 -0.21692,0 -0.35832,0.138186 -0.1414,0.13658 -0.1414,0.348679 z m 0.08998,-1.160121 q 0,0.167109 0.118904,0.28762 0.118904,0.118905 0.290834,0.118905 0.168715,0 0.290834,-0.120512 0.123724,-0.120511 0.123724,-0.286013 0,-0.168716 -0.118904,-0.286013 -0.117298,-0.117298 -0.295654,-0.117298 -0.17675,0 -0.294048,0.115691 -0.11569,0.114084 -0.11569,0.28762 z m 2.668923,1.868728 v -2.488959 h 0.731102 q 0.32779,0 0.523822,0.157468 0.196031,0.155861 0.196031,0.414559 0,0.205672 -0.117297,0.36314 -0.115691,0.157468 -0.319757,0.223348 v 0.0064 q 0.253877,0.02892 0.404918,0.192818 0.152648,0.162288 0.152648,0.412952 0,0.321363 -0.231382,0.520608 -0.229775,0.197639 -0.589702,0.197639 z m 0.321363,-2.207766 v 0.779306 h 0.292441 q 0.232988,0 0.364747,-0.112477 0.133366,-0.114084 0.133366,-0.314936 0,-0.351893 -0.46919,-0.351893 z m 0,1.058892 v 0.867681 h 0.385636 q 0.25227,0 0.38885,-0.115691 0.138186,-0.117298 0.138186,-0.324577 0,-0.427413 -0.580061,-0.427413 z m 3.14936,-0.628265 -0.806622,2.045477 q -0.224954,0.568813 -0.634693,0.568813 -0.117297,0 -0.200852,-0.02571 v -0.276373 q 0.09159,0.03535 0.17675,0.03535 0.213707,0 0.319757,-0.250663 l 0.136579,-0.32297 -0.697358,-1.773925 h 0.348679 l 0.46437,1.335264 0.03856,0.14622 h 0.008 q 0.0096,-0.04981 0.03856,-0.143006 l 0.485259,-1.338478 z m 1.158515,1.759464 q -0.102836,0.05624 -0.277979,0.05624 -0.477225,0 -0.477225,-0.528642 v -1.026756 h -0.305295 v -0.260304 h 0.305295 v -0.427414 l 0.313329,-0.09962 v 0.527036 h 0.441875 v 0.260304 h -0.441875 v 0.970517 q 0,0.175143 0.05945,0.250663 0.05945,0.07552 0.197638,0.07552 0.10605,0 0.184784,-0.05945 z m 1.793207,-0.790554 h -1.243676 q 0.008,0.284406 0.155861,0.440268 0.147827,0.154254 0.412952,0.154254 0.298868,0 0.547924,-0.191211 v 0.281193 q -0.234595,0.165502 -0.621838,0.165502 -0.385636,0 -0.602556,-0.244236 -0.215313,-0.244236 -0.215313,-0.678077 0,-0.408131 0.236202,-0.673256 0.237809,-0.265125 0.589701,-0.265125 0.34868,0 0.544711,0.224955 0.196032,0.223347 0.196032,0.626658 z m -0.314936,-0.25227 q -0.0016,-0.241023 -0.114084,-0.372782 -0.112477,-0.131759 -0.316543,-0.131759 -0.187998,0 -0.326184,0.139793 -0.136579,0.139793 -0.171929,0.364748 z m 0.493294,1.626098 q 0.541497,-0.649154 0.541497,-1.518442 0,-0.870894 -0.54471,-1.536116 h 0.279586 q 0.543104,0.636299 0.543104,1.53933 0,0.903031 -0.543104,1.515228 z"
       id="text46"
       style="font-size:3.29076px;line-height:125%;font-family:'微软雅黑';letter-spacing:0px;word-spacing:0px;stroke-width:0.264583"
       aria-label="NPTS × TypeSize (NPTS × 8 Byte)" />
  </g>
</svg>
