<?xml version="1.0" encoding="UTF-8" standalone="no"?>
<!-- Created with Inkscape (http://www.inkscape.org/) -->

<svg
   width="80mm"
   height="50mm"
   viewBox="0 0 80 50"
   version="1.1"
   id="svg1"
   inkscape:version="1.4 (86a8ad7, 2024-10-11)"
   sodipodi:docname="文件结构.svg"
   xmlns:inkscape="http://www.inkscape.org/namespaces/inkscape"
   xmlns:sodipodi="http://sodipodi.sourceforge.net/DTD/sodipodi-0.dtd"
   xmlns="http://www.w3.org/2000/svg"
   xmlns:svg="http://www.w3.org/2000/svg">
  <sodipodi:namedview
     id="namedview1"
     pagecolor="#ffffff"
     bordercolor="#000000"
     borderopacity="0.25"
     inkscape:showpageshadow="2"
     inkscape:pageopacity="0.0"
     inkscape:pagecheckerboard="0"
     inkscape:deskcolor="#d1d1d1"
     inkscape:document-units="mm"
     inkscape:zoom="2.8756735"
     inkscape:cx="181.34882"
     inkscape:cy="90.23973"
     inkscape:window-width="1920"
     inkscape:window-height="1009"
     inkscape:window-x="1912"
     inkscape:window-y="-8"
     inkscape:window-maximized="1"
     inkscape:current-layer="layer1" />
  <defs
     id="defs1">
    <clipPath
       clipPathUnits="userSpaceOnUse"
       id="clipEmfPath1">
      <path
         d="M 0,0 H 263.36 V 137.9011 H 0 Z"
         id="path1" />
    </clipPath>
    <pattern
       id="EMFhbasepattern"
       patternUnits="userSpaceOnUse"
       width="6"
       height="6"
       x="0"
       y="0" />
    <clipPath
       clipPathUnits="userSpaceOnUse"
       id="clipEmfPath1-9">
      <path
         d="M 0,0 H 283.06016 V 179.37512 H 0 Z"
         id="path1-4" />
    </clipPath>
    <pattern
       id="EMFhbasepattern-8"
       patternUnits="userSpaceOnUse"
       width="6"
       height="6"
       x="0"
       y="0" />
    <clipPath
       clipPathUnits="userSpaceOnUse"
       id="clipEmfPath1-94">
      <path
         d="M 0,0 L 289.28126,0 L 289.28126,179.37512 L 0,179.37512 z"
         id="path1-8" />
    </clipPath>
    <pattern
       id="EMFhbasepattern-82"
       patternUnits="userSpaceOnUse"
       width="6"
       height="6"
       x="0"
       y="0" />
  </defs>
  <g
     inkscape:label="图层 1"
     inkscape:groupmode="layer"
     id="layer1">
    <path
       style="fill:#fff2cc;fill-opacity:1;fill-rule:evenodd;stroke:none;stroke-width:0.264583"
       d="M 2.4256109,1.8253317 V 47.96477 H 77.610089 V 1.8253317 Z"
       id="path2" />
    <path
       style="fill:none;stroke:#fee599;stroke-width:2.0737px;stroke-linecap:round;stroke-linejoin:round;stroke-miterlimit:4;stroke-dasharray:none;stroke-opacity:1"
       clip-path="url(#clipEmfPath1-94)"
       d="M 2.0737008,176.45898 H 286.23551 V 2.0737008 H 2.0737008 Z"
       id="path3"
       transform="matrix(0.26458333,0,0,0.26458333,1.8769442,1.2766651)" />
    <path
       style="fill:#d9958f;fill-opacity:1;fill-rule:evenodd;stroke:none;stroke-width:0.264583"
       d="M 5.0832149,10.63829 V 21.011519 H 74.952485 V 10.63829 Z"
       id="path4" />
    <path
       style="fill:none;stroke:#c05046;stroke-width:0.548667px;stroke-linecap:round;stroke-linejoin:round;stroke-miterlimit:4;stroke-dasharray:none;stroke-opacity:1"
       d="M 5.0832149,21.011519 H 74.952485 V 10.63829 H 5.0832149 Z"
       id="path5" />
    <path
       d="m 10.808076,16.017268 v 0.930347 h -0.321364 v -2.488959 h 0.707 q 0.40331,0 0.625051,0.194425 0.223348,0.194425 0.223348,0.555958 0,0.366354 -0.260305,0.594522 -0.260304,0.226561 -0.65076,0.213707 z m 0,-1.275812 v 0.993012 h 0.297261 q 0.294047,0 0.446695,-0.131759 0.152647,-0.133365 0.152647,-0.380815 0,-0.480438 -0.568813,-0.480438 z m 1.5795,0.552745 q 0.265125,-0.165503 0.612197,-0.165503 0.642727,0 0.642727,0.674863 v 1.144054 h -0.311723 v -0.274766 h -0.008 q -0.184784,0.316543 -0.544711,0.316543 -0.258697,0 -0.411345,-0.139793 -0.152647,-0.139793 -0.152647,-0.377602 0,-0.498113 0.589702,-0.580061 l 0.527035,-0.07391 q 0,-0.435448 -0.359927,-0.435448 -0.319756,0 -0.583274,0.215314 z m 0.527036,0.817869 q -0.218527,0.02892 -0.302082,0.109264 -0.08195,0.08034 -0.08195,0.224954 0,0.126938 0.08998,0.207279 0.08998,0.08034 0.237809,0.08034 0.205673,0 0.339039,-0.144613 0.133365,-0.144614 0.133365,-0.363141 v -0.170322 z m 2.202945,-0.629872 q -0.07873,-0.05624 -0.21692,-0.05624 -0.183177,0 -0.302082,0.171929 -0.118904,0.170322 -0.118904,0.449908 v 0.899818 h -0.314936 v -1.777139 h 0.314936 v 0.361533 h 0.0064 q 0.134973,-0.392063 0.465977,-0.392063 0.107657,0 0.165502,0.0241 z m 1.259744,1.447742 q -0.102836,0.05624 -0.277979,0.05624 -0.477224,0 -0.477224,-0.528642 V 15.43078 h -0.305296 v -0.260304 h 0.305296 v -0.427413 l 0.313329,-0.09962 v 0.527036 h 0.441874 v 0.260304 h -0.441874 v 0.970517 q 0,0.175143 0.05945,0.250663 0.05945,0.07552 0.197638,0.07552 0.10605,0 0.184784,-0.05945 z m 1.21154,-1.177797 q 0,-0.658794 0.218527,-0.996226 0.218527,-0.339038 0.633086,-0.339038 0.790553,0 0.790553,1.275812 0,0.629872 -0.223347,0.96409 -0.221741,0.332611 -0.623445,0.332611 -0.379208,0 -0.588095,-0.316543 -0.207279,-0.316543 -0.207279,-0.920706 z m 0.321363,-0.01446 q 0,0.991406 0.502934,0.991406 0.494899,0 0.494899,-1.007474 0,-1.042824 -0.485258,-1.042824 -0.512575,0 -0.512575,1.058892 z m 1.653414,-0.401704 q 0,-0.08677 0.06106,-0.144614 0.06106,-0.05785 0.14622,-0.05785 0.08677,0 0.147828,0.05945 0.06106,0.05785 0.06106,0.143007 0,0.08516 -0.05945,0.144613 -0.05945,0.05945 -0.15104,0.05945 -0.08677,0 -0.146221,-0.05945 -0.05945,-0.05945 -0.05945,-0.144613 z m 0,1.446135 q 0,-0.08677 0.05945,-0.146221 0.05945,-0.05945 0.147827,-0.05945 0.08998,0 0.149434,0.06106 0.05945,0.05945 0.05945,0.144614 0,0.08355 -0.05945,0.144613 -0.05945,0.05945 -0.15104,0.05945 -0.08837,0 -0.147827,-0.05945 -0.05785,-0.06106 -0.05785,-0.144613 z m 3.178283,-2.037444 H 21.781025 V 15.577 h 0.890176 v 0.2828 h -0.890176 v 1.087815 h -0.321364 v -2.488959 h 1.28224 z m 0.387243,-0.200852 q 0,-0.08355 0.05624,-0.139793 0.05784,-0.05785 0.141399,-0.05785 0.08516,0 0.143007,0.05624 0.05945,0.05624 0.05945,0.1414 0,0.08355 -0.05945,0.139793 -0.05785,0.05463 -0.143007,0.05463 -0.08516,0 -0.141399,-0.05463 -0.05624,-0.05624 -0.05624,-0.139793 z m 0.03696,2.403798 v -1.777139 h 0.314936 v 1.777139 z m 0.875715,0 v -2.630359 h 0.314936 v 2.630359 z m 2.325063,-0.808229 h -1.243676 q 0.008,0.284407 0.155861,0.440268 0.147827,0.154254 0.412952,0.154254 0.298868,0 0.547924,-0.191211 v 0.281193 q -0.234595,0.165502 -0.621838,0.165502 -0.385636,0 -0.602556,-0.244236 -0.215313,-0.244236 -0.215313,-0.678077 0,-0.408131 0.236202,-0.673256 0.237809,-0.265125 0.589701,-0.265125 0.348679,0 0.544711,0.224955 0.196032,0.223347 0.196032,0.626658 z m -0.314936,-0.25227 q -0.0016,-0.241023 -0.114084,-0.372782 -0.112477,-0.131759 -0.316543,-0.131759 -0.187998,0 -0.326184,0.139794 -0.136579,0.139793 -0.171929,0.364747 z m 3.650688,1.060499 h -0.321363 v -1.121558 h -1.259744 v 1.121558 H 27.80016 v -2.488959 h 0.321364 v 1.081387 h 1.259744 v -1.081387 h 0.321363 z m 2.050297,-0.808229 h -1.243676 q 0.008,0.284407 0.155861,0.440268 0.147827,0.154254 0.412952,0.154254 0.298868,0 0.547924,-0.191211 v 0.281193 q -0.234595,0.165502 -0.621837,0.165502 -0.385636,0 -0.602557,-0.244236 -0.215313,-0.244236 -0.215313,-0.678077 0,-0.408131 0.236202,-0.673256 0.237809,-0.265125 0.589702,-0.265125 0.348679,0 0.54471,0.224955 0.196032,0.223347 0.196032,0.626658 z m -0.314936,-0.25227 q -0.0016,-0.241023 -0.114084,-0.372782 -0.112477,-0.131759 -0.316543,-0.131759 -0.187997,0 -0.326184,0.139794 -0.136579,0.139793 -0.171929,0.364747 z m 0.776092,-0.592915 q 0.265125,-0.165503 0.612197,-0.165503 0.642727,0 0.642727,0.674863 v 1.144054 h -0.311722 v -0.274766 h -0.008 q -0.184783,0.316543 -0.54471,0.316543 -0.258698,0 -0.411345,-0.139793 -0.152648,-0.139793 -0.152648,-0.377602 0,-0.498113 0.589702,-0.580061 l 0.527036,-0.07391 q 0,-0.435448 -0.359927,-0.435448 -0.319757,0 -0.583275,0.215314 z m 0.527036,0.817869 q -0.218527,0.02892 -0.302081,0.109264 -0.08195,0.08034 -0.08195,0.224954 0,0.126938 0.08998,0.207279 0.08998,0.08034 0.237809,0.08034 0.205672,0 0.339038,-0.144613 0.133366,-0.144614 0.133366,-0.363141 v -0.170322 z m 2.792647,0.835545 H 35.218831 V 16.65196 h -0.0064 q -0.194425,0.337432 -0.604163,0.337432 -0.337432,0 -0.536677,-0.239416 -0.199245,-0.241022 -0.199245,-0.649154 0,-0.440267 0.224954,-0.705392 0.224955,-0.266732 0.588095,-0.266732 0.363141,0 0.527036,0.2828 h 0.0064 v -1.094242 h 0.314936 z m -0.313329,-1.057286 q 0,-0.213706 -0.1414,-0.356713 -0.139793,-0.144613 -0.345465,-0.144613 -0.250664,0 -0.395277,0.187997 -0.144614,0.186391 -0.144614,0.509361 0,0.297261 0.138187,0.470797 0.139793,0.17193 0.371174,0.17193 0.228168,0 0.372782,-0.168716 0.144613,-0.170323 0.144613,-0.422593 z m 2.323456,0.249057 h -1.243676 q 0.008,0.284407 0.155861,0.440268 0.147827,0.154254 0.412952,0.154254 0.298868,0 0.547925,-0.191211 v 0.281193 q -0.234596,0.165502 -0.621838,0.165502 -0.385636,0 -0.602557,-0.244236 -0.215313,-0.244236 -0.215313,-0.678077 0,-0.408131 0.236202,-0.673256 0.237809,-0.265125 0.589702,-0.265125 0.348679,0 0.54471,0.224955 0.196032,0.223347 0.196032,0.626658 z m -0.314936,-0.25227 q -0.0016,-0.241023 -0.114084,-0.372782 -0.112477,-0.131759 -0.316543,-0.131759 -0.187997,0 -0.326184,0.139794 -0.136579,0.139793 -0.171929,0.364747 z m 1.687157,-0.404918 q -0.07873,-0.05624 -0.21692,-0.05624 -0.183177,0 -0.302081,0.171929 -0.118905,0.170322 -0.118905,0.449908 v 0.899818 h -0.314936 v -1.777139 h 0.314936 v 0.361533 h 0.0064 q 0.134973,-0.392063 0.465977,-0.392063 0.107657,0 0.165502,0.0241 z"
       id="text6"
       style="font-size:3.29076px;line-height:125%;font-family:'微软雅黑';letter-spacing:0px;word-spacing:0px;stroke-width:0.264583"
       aria-label="Part 0: File Header " />
    <path
       d="m 42.653536,17.513214 q -0.573633,-0.626658 -0.573633,-1.516835 0,-0.901424 0.573633,-1.536116 h 0.276373 q -0.57042,0.65076 -0.57042,1.532903 0,0.869287 0.567206,1.520048 z"
       id="text8"
       style="font-size:3.29076px;line-height:125%;font-family:'微软雅黑';letter-spacing:0px;word-spacing:0px;stroke-width:0.264583"
       aria-label="（" />
    <path
       d="m 43.326425,14.767165 h 1.542544 q -0.162288,-0.308509 -0.253877,-0.449909 l 0.24745,-0.115691 q 0.08998,0.138187 0.269945,0.449909 l -0.231381,0.115691 h 1.510407 v 0.237809 h -0.592915 q -0.17193,0.917492 -0.739136,1.475057 0.427413,0.311722 1.35776,0.559172 -0.147827,0.167109 -0.224954,0.279586 -0.906245,-0.313329 -1.338478,-0.655581 -0.433841,0.337432 -1.386683,0.68129 -0.08355,-0.112477 -0.192818,-0.250663 0.919099,-0.276372 1.383469,-0.615411 -0.586488,-0.626658 -0.745563,-1.47345 h -0.60577 z m 2.217407,0.237809 h -1.354546 q 0.144613,0.790553 0.690931,1.306341 0.522215,-0.485258 0.663615,-1.306341 z m 1.976384,1.00908 h 1.115131 V 15.201005 H 48.02315 q -0.130152,0.345466 -0.284407,0.617018 -0.0932,-0.08998 -0.212099,-0.170323 0.305295,-0.536677 0.449908,-1.198685 l 0.260304,0.07391 q -0.06267,0.239415 -0.134972,0.453122 h 0.533463 v -0.745563 h 0.257091 v 0.745563 h 0.768058 v 0.224954 h -0.768058 v 0.813049 h 0.874108 v 0.224955 h -0.874108 v 1.124771 h -0.257091 v -1.124771 h -1.115131 z m -0.967303,-0.192818 q 0.443481,-0.655581 0.713426,-1.587534 l 0.263518,0.07713 q -0.118904,0.374388 -0.25709,0.702179 v 2.353986 H 47.01889 v -1.823737 q -0.163896,0.303688 -0.350286,0.557565 -0.04821,-0.138186 -0.115691,-0.279586 z m 3.335751,0.147827 h 1.597175 q 0.05142,-0.649153 0.05142,-1.732148 h 0.276373 q 0,0.941595 -0.04821,1.732148 h 1.253317 v 0.231382 h -1.298308 q -0.02249,0.10605 -0.07391,0.2121 0.64594,0.324577 1.311162,0.700572 l -0.163895,0.247449 q -0.662009,-0.414558 -1.285453,-0.742349 -0.385636,0.45955 -1.465417,0.784127 -0.05785,-0.09962 -0.173536,-0.253877 1.372221,-0.375995 1.558612,-0.948022 h -1.53933 z m 0.318149,-0.944808 q 0.456336,0.273159 0.832331,0.536677 l -0.157468,0.221741 Q 50.512109,15.5063 50.0622,15.220287 Z m 0.321364,-0.690931 q 0.485258,0.295655 0.813049,0.527036 l -0.160682,0.218527 Q 50.749917,14.75431 50.38999,14.522929 Z"
       id="text10"
       style="font-size:3.29076px;line-height:125%;font-family:'微软雅黑';letter-spacing:0px;word-spacing:0px;stroke-width:0.264583"
       aria-label="文件头" />
    <path
       d="m 54.095815,16.549124 -0.271552,0.856433 h -0.224954 l 0.197638,-0.856433 z"
       id="text12"
       style="font-size:3.29076px;line-height:125%;font-family:'微软雅黑';letter-spacing:0px;word-spacing:0px;stroke-width:0.264583"
       aria-label="，" />
    <path
       d="m 57.310687,16.947615 v -2.129032 q -0.07391,0.07391 -0.250663,0.165502 -0.175143,0.09159 -0.324577,0.128545 v -0.308508 q 0.197639,-0.05463 0.422593,-0.173537 0.224954,-0.120511 0.345465,-0.226561 h 0.118905 v 2.543591 z m 2.649641,-2.169203 q -0.194425,-0.09962 -0.406525,-0.09962 -0.32297,0 -0.519001,0.281193 -0.196032,0.281193 -0.199246,0.768058 h 0.008 q 0.17675,-0.342252 0.563993,-0.342252 0.32297,0 0.515788,0.210493 0.192818,0.210493 0.192818,0.559172 0,0.364748 -0.223348,0.599343 -0.22174,0.234595 -0.567206,0.234595 -0.379208,0 -0.596129,-0.295654 -0.215313,-0.297261 -0.215313,-0.841972 0,-0.658795 0.2828,-1.046038 0.284406,-0.388849 0.747169,-0.388849 0.265125,0 0.416166,0.07231 z m -1.10549,1.354547 q 0,0.245843 0.130152,0.420986 0.131759,0.175143 0.348679,0.175143 0.205673,0 0.334218,-0.151041 0.128546,-0.151041 0.128546,-0.38885 0,-0.25709 -0.122119,-0.400097 -0.120511,-0.143007 -0.343858,-0.143007 -0.2121,0 -0.343859,0.144614 -0.131759,0.144613 -0.131759,0.342252 z"
       id="text14"
       style="font-size:3.29076px;line-height:125%;font-family:'微软雅黑';letter-spacing:0px;word-spacing:0px;stroke-width:0.264583"
       aria-label="16" />
    <path
       d="m 60.320098,16.110463 h 1.507194 v -0.202459 l 0.633085,-0.39849 h -1.555398 v -0.234595 h 1.947461 v 0.260304 l -0.761631,0.488472 v 0.08677 h 1.404358 v 0.237809 h -1.404358 v 0.591309 q 0,0.408131 -0.408131,0.408131 -0.163895,0 -0.478831,-0.0064 -0.01286,-0.122118 -0.03856,-0.286014 0.253877,0.03535 0.449909,0.03535 0.2121,0 0.2121,-0.228168 v -0.514181 h -1.507194 z m 0.122118,-1.417212 h 1.478271 q -0.118905,-0.168716 -0.286013,-0.369568 l 0.215313,-0.144613 q 0.202459,0.221741 0.334218,0.411345 l -0.152648,0.102836 h 1.354546 v 0.652368 h -0.260304 v -0.417773 h -2.426293 v 0.417773 h -0.25709 z m 3.329323,0.748777 H 66.426 q -0.03214,0.671649 -0.06427,1.031576 -0.03535,0.472404 -0.552744,0.472404 -0.305296,0 -0.501327,-0.01928 -0.01928,-0.154254 -0.05142,-0.279586 0.279586,0.04499 0.520608,0.04499 0.311723,0 0.331004,-0.302082 0.02892,-0.241022 0.0482,-0.713426 h -1.288667 v 1.700012 h -0.266731 v -1.700012 h -0.829118 z m -0.160681,-0.796981 h 0.890176 v -0.4242 h 0.257091 v 0.4242 h 0.861253 v -0.4242 h 0.257091 v 0.4242 h 0.890176 v 0.234595 h -0.890176 v 0.359927 h -0.257091 v -0.359927 h -0.861253 v 0.356713 h -0.257091 v -0.356713 h -0.890176 z"
       id="text16"
       style="font-size:3.29076px;line-height:125%;font-family:'微软雅黑';letter-spacing:0px;word-spacing:0px;stroke-width:0.264583"
       aria-label="字节" />
    <path
       d="m 67.411855,17.513214 h -0.276372 q 0.57042,-0.649154 0.57042,-1.536116 0,-0.870895 -0.567207,-1.516835 h 0.273159 q 0.57042,0.621838 0.57042,1.516835 0,0.904637 -0.57042,1.536116 z"
       id="text18"
       style="font-size:3.29076px;line-height:125%;font-family:'微软雅黑';letter-spacing:0px;word-spacing:0px;stroke-width:0.264583"
       aria-label="）" />
    <path
       style="fill:#c4d6a0;fill-opacity:1;fill-rule:evenodd;stroke:none;stroke-width:0.264583"
       d="M 5.0832149,23.086165 V 33.459394 H 74.952485 V 23.086165 Z"
       id="path18" />
    <path
       style="fill:none;stroke:#789440;stroke-width:0.548667px;stroke-linecap:round;stroke-linejoin:round;stroke-miterlimit:4;stroke-dasharray:none;stroke-opacity:1"
       d="M 5.0832149,33.459394 H 74.952485 V 23.086165 H 5.0832149 Z"
       id="path19" />
    <path
       d="M 9.1532351,28.838424 V 29.76877 H 8.8318718 V 27.279812 H 9.538871 q 0.403311,0 0.625052,0.194424 0.223347,0.194425 0.223347,0.555959 0,0.366354 -0.260304,0.594522 -0.2603044,0.226561 -0.6507608,0.213707 z m 0,-1.275813 v 0.993013 h 0.297261 q 0.2940475,0 0.446695,-0.131759 0.1526479,-0.133366 0.1526479,-0.380816 0,-0.480438 -0.5688133,-0.480438 z m 1.5795009,0.552745 q 0.265124,-0.165502 0.612197,-0.165502 0.642726,0 0.642726,0.674863 v 1.144053 h -0.311722 v -0.274765 h -0.008 q -0.184784,0.316542 -0.544711,0.316542 -0.258697,0 -0.411345,-0.139793 -0.152648,-0.139793 -0.152648,-0.377601 0,-0.498114 0.589702,-0.580061 l 0.527036,-0.07391 q 0,-0.435447 -0.359927,-0.435447 -0.319757,0 -0.583274,0.215313 z m 0.527035,0.81787 q -0.218527,0.02892 -0.302081,0.109263 -0.08195,0.08034 -0.08195,0.224954 0,0.126939 0.08998,0.20728 0.08998,0.08034 0.237809,0.08034 0.205672,0 0.339038,-0.144614 0.133366,-0.144613 0.133366,-0.36314 v -0.170323 z m 2.202946,-0.629872 q -0.07873,-0.05624 -0.216921,-0.05624 -0.183177,0 -0.302081,0.171929 -0.118905,0.170323 -0.118905,0.449909 v 0.899817 h -0.314936 v -1.777139 h 0.314936 v 0.361534 h 0.0064 q 0.134972,-0.392063 0.465976,-0.392063 0.107657,0 0.165503,0.0241 z m 1.259744,1.447741 q -0.102836,0.05624 -0.277979,0.05624 -0.477225,0 -0.477225,-0.528643 v -1.026755 h -0.305295 v -0.260305 h 0.305295 v -0.427413 l 0.313329,-0.09962 v 0.527036 h 0.441875 v 0.260305 h -0.441875 v 0.970517 q 0,0.175143 0.05945,0.250663 0.05945,0.07552 0.197638,0.07552 0.10605,0 0.184784,-0.05945 z m 1.981205,0.01768 v -2.129032 q -0.07391,0.07391 -0.250664,0.165503 -0.175143,0.09159 -0.324577,0.128545 v -0.308509 q 0.197639,-0.05463 0.422593,-0.173536 0.224954,-0.120511 0.345466,-0.226561 h 0.118904 v 2.54359 z m 1.205112,-1.611637 q 0,-0.08677 0.06106,-0.144613 0.06106,-0.05785 0.14622,-0.05785 0.08677,0 0.147827,0.05945 0.06106,0.05785 0.06106,0.143006 0,0.08516 -0.05945,0.144614 -0.05945,0.05945 -0.151041,0.05945 -0.08677,0 -0.14622,-0.05945 -0.05945,-0.05945 -0.05945,-0.144614 z m 0,1.446135 q 0,-0.08677 0.05945,-0.14622 0.05945,-0.05945 0.147827,-0.05945 0.08998,0 0.149434,0.06106 0.05945,0.05945 0.05945,0.144613 0,0.08356 -0.05945,0.144614 -0.05945,0.05945 -0.151041,0.05945 -0.08838,0 -0.147827,-0.05945 -0.05784,-0.06106 -0.05784,-0.144614 z m 4.147193,0.165502 v -1.648593 q 0,-0.204066 0.0241,-0.490079 h -0.008 q -0.04178,0.179963 -0.07391,0.250663 l -0.821083,1.888009 h -0.178357 l -0.819476,-1.873548 q -0.02892,-0.06427 -0.07391,-0.265124 h -0.0096 q 0.01607,0.173536 0.01607,0.50454 v 1.634132 h -0.306902 v -2.488958 h 0.435447 l 0.734315,1.706439 q 0.08356,0.196031 0.110871,0.305295 h 0.01125 q 0.08356,-0.229775 0.117298,-0.311723 l 0.747169,-1.700011 h 0.414559 v 2.488958 z m 2.371662,-0.808228 h -1.243676 q 0.008,0.284406 0.155861,0.440267 0.147827,0.154255 0.412952,0.154255 0.298867,0 0.547924,-0.191212 v 0.281193 q -0.234595,0.165502 -0.621838,0.165502 -0.385636,0 -0.602556,-0.244236 -0.215313,-0.244236 -0.215313,-0.678076 0,-0.408132 0.236202,-0.673256 0.237808,-0.265125 0.589701,-0.265125 0.348679,0 0.544711,0.224954 0.196032,0.223348 0.196032,0.626659 z m -0.314937,-0.252271 q -0.0016,-0.241022 -0.114083,-0.372781 -0.112478,-0.131759 -0.316543,-0.131759 -0.187998,0 -0.326184,0.139793 -0.136579,0.139793 -0.171929,0.364747 z m 1.587534,1.042824 q -0.102836,0.05624 -0.277979,0.05624 -0.477224,0 -0.477224,-0.528643 v -1.026755 h -0.305296 v -0.260305 h 0.305296 v -0.427413 l 0.313329,-0.09962 v 0.527036 h 0.441874 v 0.260305 h -0.441874 v 0.970517 q 0,0.175143 0.05945,0.250663 0.05945,0.07552 0.197638,0.07552 0.10605,0 0.184784,-0.05945 z m 0.41456,-1.635739 q 0.265124,-0.165502 0.612197,-0.165502 0.642726,0 0.642726,0.674863 v 1.144053 h -0.311722 v -0.274765 h -0.008 q -0.184784,0.316542 -0.544711,0.316542 -0.258697,0 -0.411345,-0.139793 -0.152647,-0.139793 -0.152647,-0.377601 0,-0.498114 0.589701,-0.580061 l 0.527036,-0.07391 q 0,-0.435447 -0.359927,-0.435447 -0.319756,0 -0.583274,0.215313 z m 0.527035,0.81787 q -0.218527,0.02892 -0.302081,0.109263 -0.08195,0.08034 -0.08195,0.224954 0,0.126939 0.08998,0.20728 0.08998,0.08034 0.237809,0.08034 0.205672,0 0.339038,-0.144614 0.133366,-0.144613 0.133366,-0.36314 v -0.170323 z m 2.792648,0.835544 h -0.314936 v -0.295654 h -0.0064 q -0.194425,0.337431 -0.604163,0.337431 -0.337431,0 -0.536676,-0.239415 -0.199246,-0.241023 -0.199246,-0.649154 0,-0.440268 0.224955,-0.705392 0.224954,-0.266732 0.588094,-0.266732 0.363141,0 0.527036,0.2828 h 0.0064 v -1.094242 h 0.314936 z m -0.31333,-1.057285 q 0,-0.213707 -0.1414,-0.356713 -0.139793,-0.144614 -0.345465,-0.144614 -0.250663,0 -0.395277,0.187998 -0.144613,0.186391 -0.144613,0.509361 0,0.297261 0.138186,0.470797 0.139793,0.171929 0.371174,0.171929 0.228168,0 0.372782,-0.168716 0.144613,-0.170322 0.144613,-0.422592 z m 0.917492,-0.596129 q 0.265125,-0.165502 0.612197,-0.165502 0.642727,0 0.642727,0.674863 v 1.144053 h -0.311723 v -0.274765 h -0.008 q -0.184784,0.316542 -0.544711,0.316542 -0.258697,0 -0.411345,-0.139793 -0.152647,-0.139793 -0.152647,-0.377601 0,-0.498114 0.589701,-0.580061 l 0.527036,-0.07391 q 0,-0.435447 -0.359927,-0.435447 -0.319756,0 -0.583274,0.215313 z m 0.527036,0.81787 q -0.218527,0.02892 -0.302082,0.109263 -0.08195,0.08034 -0.08195,0.224954 0,0.126939 0.08998,0.20728 0.08998,0.08034 0.237809,0.08034 0.205673,0 0.339038,-0.144614 0.133366,-0.144613 0.133366,-0.36314 v -0.170323 z m 2.103323,0.817869 q -0.102837,0.05624 -0.27798,0.05624 -0.477224,0 -0.477224,-0.528643 v -1.026755 h -0.305295 v -0.260305 h 0.305295 v -0.427413 l 0.313329,-0.09962 v 0.527036 h 0.441875 v 0.260305 h -0.441875 v 0.970517 q 0,0.175143 0.05945,0.250663 0.05945,0.07552 0.197639,0.07552 0.10605,0 0.184784,-0.05945 z m 0.414559,-1.635739 q 0.265125,-0.165502 0.612197,-0.165502 0.642727,0 0.642727,0.674863 v 1.144053 h -0.311723 v -0.274765 h -0.008 q -0.184784,0.316542 -0.544711,0.316542 -0.258697,0 -0.411345,-0.139793 -0.152647,-0.139793 -0.152647,-0.377601 0,-0.498114 0.589701,-0.580061 l 0.527036,-0.07391 q 0,-0.435447 -0.359927,-0.435447 -0.319756,0 -0.583274,0.215313 z m 0.527036,0.81787 q -0.218527,0.02892 -0.302082,0.109263 -0.08195,0.08034 -0.08195,0.224954 0,0.126939 0.08998,0.20728 0.08998,0.08034 0.237809,0.08034 0.205673,0 0.339039,-0.144614 0.133365,-0.144613 0.133365,-0.36314 v -0.170323 z"
       id="text20"
       style="font-size:3.29076px;line-height:125%;font-family:'微软雅黑';letter-spacing:0px;word-spacing:0px;stroke-width:0.264583"
       aria-label="Part 1: Metadata " />
    <path
       d="m 38.293406,30.33437 q -0.573633,-0.626659 -0.573633,-1.516835 0,-0.901424 0.573633,-1.536117 h 0.276373 q -0.57042,0.650761 -0.57042,1.532903 0,0.869288 0.567206,1.520049 z"
       id="text22"
       style="font-size:3.29076px;line-height:125%;font-family:'微软雅黑';letter-spacing:0px;word-spacing:0px;stroke-width:0.264583"
       aria-label="（" />
    <path
       d="m 38.963078,28.182842 h 3.104369 v 0.244237 h -1.015508 v 1.253316 q 0,0.189605 0.192818,0.189605 h 0.276372 q 0.231382,0 0.263518,-0.2121 0.02892,-0.179964 0.04821,-0.456336 0.128545,0.04499 0.279586,0.08034 -0.03214,0.276372 -0.06749,0.462763 -0.06427,0.3535 -0.465977,0.3535 h -0.392063 q -0.404918,0 -0.404918,-0.395277 v -1.275812 h -0.655581 v 0.102836 q 0,0.68129 -0.205673,1.00908 -0.205672,0.356714 -0.813049,0.665222 -0.115691,-0.141399 -0.189604,-0.215313 0.555958,-0.273159 0.748776,-0.57524 0.189605,-0.289227 0.189605,-0.870895 v -0.11569 h -0.89339 z m 0.308508,-0.935167 h 2.49378 v 0.244236 h -2.49378 z m 5.032549,-0.205672 0.257091,0.03856 q -0.06749,0.311723 -0.157468,0.581668 h 0.983372 v 0.218527 h -0.202459 q -0.08034,0.944808 -0.411345,1.500766 0.260304,0.3535 0.662008,0.578454 -0.102836,0.1414 -0.173536,0.253877 -0.392063,-0.253877 -0.652367,-0.604163 -0.295655,0.366355 -0.703786,0.6363 -0.0707,-0.0932 -0.183177,-0.202459 0.449909,-0.295654 0.729495,-0.671649 -0.260305,-0.449909 -0.343859,-1.038004 -0.06749,0.118905 -0.1414,0.221741 -0.06427,-0.0932 -0.160682,-0.205673 0.372782,-0.536676 0.498113,-1.307948 z m -2.069579,1.854266 h 0.488472 q 0.0707,-0.122118 0.138186,-0.250663 l 0.231382,0.07391 q -0.05142,0.08998 -0.102836,0.17675 h 0.78734 v 0.208886 q -0.122118,0.314936 -0.369568,0.552745 0.17675,0.08355 0.359927,0.167109 l -0.1414,0.22174 q -0.199245,-0.112477 -0.414559,-0.224954 -0.36314,0.260304 -0.915885,0.411345 -0.05142,-0.102836 -0.109264,-0.224954 0.469191,-0.10605 0.793768,-0.305295 -0.276373,-0.1414 -0.578454,-0.289227 0.102836,-0.147827 0.199245,-0.305295 h -0.366354 z m 0.03535,-1.10549 h 0.739135 v -0.719854 h 0.237809 v 0.719854 h 0.617018 v 0.2121 H 43.24685 v 0.196032 l 0.09641,-0.109264 q 0.298868,0.218527 0.501327,0.385636 l -0.154254,0.179963 q -0.17675,-0.167108 -0.443482,-0.375995 v 0.366355 h -0.237809 v -0.449909 q -0.29244,0.305295 -0.68129,0.536677 -0.06106,-0.0932 -0.138186,-0.196032 0.404918,-0.218527 0.742349,-0.533463 h -0.662008 z m 2.657674,0.08998 h -0.600949 q -0.01607,0.04178 -0.03535,0.08034 0.05785,0.68129 0.321363,1.166548 0.257091,-0.46919 0.314936,-1.246889 z m -2.210979,1.458989 q 0.228168,0.102836 0.46919,0.215314 0.221741,-0.189605 0.347073,-0.446695 h -0.668436 q -0.07391,0.118904 -0.147827,0.231381 z m 1.002653,-2.188484 0.199246,0.131759 q -0.17675,0.231382 -0.3535,0.427413 -0.07391,-0.06427 -0.173536,-0.134972 0.167109,-0.196032 0.32779,-0.4242 z m -1.365794,0.1414 0.183177,-0.125332 q 0.144614,0.17675 0.298868,0.379209 l -0.199245,0.1414 q -0.1414,-0.208886 -0.2828,-0.395277 z m 4.585854,1.789994 h 0.662009 v -0.408132 h -0.748777 q -0.03535,0.988192 -0.456336,1.526476 -0.07713,-0.09962 -0.173536,-0.202459 0.401704,-0.494899 0.401704,-1.520048 V 27.22518 h 1.896044 v 0.931953 H 48.28904 v -0.09962 h -1.43328 v 0.39849 h 0.745563 V 28.11857 h 0.231381 v 0.337431 h 0.848399 v 0.218527 h -0.848399 v 0.408132 h 0.668436 v 1.086208 h -0.231382 v -0.186391 h -1.099062 v 0.186391 h -0.231382 z m -1.439707,-0.324577 q 0.228168,-0.06267 0.443481,-0.126939 v -0.734315 h -0.404917 v -0.231381 h 0.404917 v -0.613804 h 0.237809 v 0.613804 h 0.350286 v 0.231381 h -0.350286 v 0.660402 q 0.152648,-0.04821 0.298868,-0.09802 0.0032,0.144613 0.01928,0.250663 -0.165502,0.05303 -0.31815,0.104443 v 0.972124 q 0,0.363141 -0.31815,0.369568 -0.09962,0.0032 -0.295654,-0.0032 -0.01285,-0.128545 -0.03856,-0.266731 0.176749,0.01928 0.269945,0.01928 0.144613,0 0.144613,-0.163896 v -0.848399 q -0.220134,0.07391 -0.411345,0.1414 z M 48.28904,27.43728 h -1.43328 v 0.408131 h 1.43328 z m -0.01928,1.857479 h -1.099062 v 0.478832 h 1.099062 z"
       id="text24"
       style="font-size:3.29076px;line-height:125%;font-family:'微软雅黑';letter-spacing:0px;word-spacing:0px;stroke-width:0.264583"
       aria-label="元数据" />
    <path
       d="m 49.735681,29.37028 -0.271552,0.856433 h -0.224955 l 0.197639,-0.856433 z"
       id="text26"
       style="font-size:3.29076px;line-height:125%;font-family:'微软雅黑';letter-spacing:0px;word-spacing:0px;stroke-width:0.264583"
       aria-label="，" />
    <path
       d="m 52.465295,28.928405 v -0.22174 h 2.18527 v 0.22174 q -0.305295,0.401704 -0.734315,0.68129 0.522215,0.250664 1.364187,0.311723 -0.115691,0.160681 -0.186391,0.269945 -0.861253,-0.117298 -1.425246,-0.440268 -0.543104,0.279586 -1.415605,0.462763 -0.08034,-0.125331 -0.163895,-0.237808 0.840365,-0.144614 1.348119,-0.375996 -0.350286,-0.261911 -0.604163,-0.671649 z M 52.153572,27.43728 h 1.465417 q -0.09962,-0.179964 -0.183177,-0.311723 l 0.231381,-0.112477 q 0.157468,0.244236 0.218527,0.359927 l -0.123724,0.06427 h 1.460596 v 0.228168 h -1.038004 v 0.893389 h -0.247449 v -0.893389 h -0.517395 v 0.899817 h -0.24745 v -0.899817 h -1.018722 z m 2.182057,1.491125 h -1.213146 q 0.236202,0.350286 0.555958,0.546318 0.385636,-0.228168 0.657188,-0.546318 z m 0.04178,-0.925526 0.17675,-0.151041 q 0.411345,0.369568 0.674863,0.652368 l -0.199245,0.176749 Q 54.718051,28.33067 54.377406,28.002879 Z m -1.632525,-0.157468 0.192818,0.163895 q -0.327791,0.375995 -0.64594,0.68129 -0.08034,-0.08998 -0.186391,-0.179963 0.337431,-0.289227 0.639513,-0.665222 z m 2.667315,0.501327 h 0.565599 v -1.311163 h 0.263518 v 1.311163 h 2.268825 v 0.250663 h -1.407571 q 0.401704,0.880535 1.475057,1.21154 -0.109263,0.144613 -0.196031,0.263518 -1.155301,-0.440268 -1.552185,-1.475058 h -0.588095 v 1.163335 q 0.366355,-0.147827 0.7777,-0.340645 0,0.151041 0.01285,0.289227 -0.382422,0.157468 -0.732708,0.331004 -0.128546,0.0707 -0.237809,0.157468 l -0.192818,-0.24745 q 0.109263,-0.08677 0.109263,-0.234595 v -1.118344 h -0.565599 z m 1.021935,-0.392064 q 0.796981,-0.266731 1.532903,-0.813049 l 0.167109,0.208886 q -0.75199,0.549532 -1.57468,0.841972 -0.05142,-0.109263 -0.125332,-0.237809 z m 2.24633,0.976945 h 1.507194 V 28.72916 l 0.633085,-0.39849 h -1.555398 v -0.234596 h 1.947461 v 0.260305 l -0.761631,0.488472 v 0.08677 h 1.404358 v 0.237809 h -1.404358 v 0.591308 q 0,0.408132 -0.408131,0.408132 -0.163895,0 -0.478831,-0.0064 -0.01286,-0.122118 -0.03856,-0.286013 0.253877,0.03535 0.449909,0.03535 0.2121,0 0.2121,-0.228168 v -0.514181 h -1.507194 z m 0.122118,-1.417212 h 1.478271 q -0.118905,-0.168716 -0.286013,-0.369568 l 0.215313,-0.144613 q 0.202459,0.22174 0.334218,0.411345 l -0.152648,0.102836 h 1.354546 v 0.652367 h -0.260304 v -0.417772 h -2.426293 v 0.417772 h -0.25709 z m 4.119877,0.960876 h 1.407571 v -0.375995 h 0.253877 v 0.375995 h 0.552745 v 0.231382 h -0.552745 v 1.073353 q 0,0.385636 -0.359927,0.385636 -0.250663,0 -0.478831,-0.0064 -0.01607,-0.122118 -0.04178,-0.266732 0.244236,0.02892 0.456336,0.02892 0.170322,0 0.170322,-0.173536 v -1.041217 h -1.407571 z m -0.973731,0.600949 q 0.420986,-0.404917 0.790554,-1.105489 l 0.234595,0.125331 q -0.126938,0.228168 -0.25709,0.430627 v 1.658235 h -0.253877 v -1.295094 q -0.189605,0.249056 -0.385636,0.446695 -0.05785,-0.128546 -0.128546,-0.260305 z m 2.014948,-2.059938 h 0.279586 q -0.06588,0.168715 -0.139793,0.32779 h 1.029969 v 0.221741 h -1.142446 q -0.178357,0.334218 -0.406525,0.629872 -0.0707,-0.07713 -0.199245,-0.17675 0.38885,-0.494899 0.578454,-1.002653 z m -1.378648,0 h 0.279586 q -0.06588,0.170322 -0.143007,0.32779 h 0.930347 v 0.221741 h -1.050858 q -0.199245,0.340645 -0.462763,0.61059 -0.0707,-0.07391 -0.186391,-0.183177 0.408131,-0.401704 0.633086,-0.976944 z m 0.584881,1.944248 0.205672,-0.134973 q 0.231382,0.295654 0.401704,0.572027 l -0.224954,0.154254 q -0.160682,-0.276372 -0.382422,-0.591308 z m -0.112477,-0.880536 q -0.06749,-0.09962 -0.292441,-0.379209 l 0.183177,-0.131758 q 0.167109,0.176749 0.308509,0.359926 z m 1.420425,-0.01607 q -0.131759,-0.17675 -0.298867,-0.363141 l 0.173536,-0.131758 q 0.212099,0.199245 0.32779,0.340645 z m 0.993013,0.565599 h 1.240462 v -0.337431 h -0.845185 v 0.10605 h -0.253877 v -0.983372 h 1.099062 v -0.375995 h 0.260304 v 0.375995 h 1.102277 v 0.983372 h -0.253877 v -0.10605 h -0.8484 v 0.337431 h 1.243676 v 1.07014 h -0.253877 v -0.118904 h -0.989799 v 0.61059 h -0.260304 v -0.61059 h -0.986585 v 0.118904 h -0.253877 z m 2.490565,0.224955 h -0.989799 v 0.501326 h 0.989799 z m -2.236688,0.501326 h 0.986585 v -0.501326 h -0.986585 z m 2.095289,-1.71608 h -0.8484 v 0.427414 h 0.8484 z m -1.953889,0.427414 h 0.845185 v -0.427414 h -0.845185 z"
       id="text28"
       style="font-size:3.29076px;line-height:125%;font-family:'微软雅黑';letter-spacing:0px;word-spacing:0px;stroke-width:0.264583"
       aria-label="变长字符串" />
    <path
       d="m 69.066694,30.33437 h -0.276373 q 0.57042,-0.649154 0.57042,-1.536117 0,-0.870894 -0.567206,-1.516835 h 0.273159 q 0.57042,0.621838 0.57042,1.516835 0,0.904638 -0.57042,1.536117 z"
       id="text30"
       style="font-size:3.29076px;line-height:125%;font-family:'微软雅黑';letter-spacing:0px;word-spacing:0px;stroke-width:0.264583"
       aria-label="）" />
    <path
       style="fill:#92cddc;fill-opacity:1;fill-rule:evenodd;stroke:none;stroke-width:0.264583"
       d="M 5.0832149,35.534039 V 45.90727 H 74.952485 V 35.534039 Z"
       id="path30" />
    <path
       style="fill:none;stroke:#0070c0;stroke-width:0.548667px;stroke-linecap:round;stroke-linejoin:round;stroke-miterlimit:4;stroke-dasharray:none;stroke-opacity:1"
       d="M 5.0832149,45.90727 H 74.952485 V 35.534039 H 5.0832149 Z"
       id="path31" />
    <path
       d="m 7.3448841,41.280629 v 0.930347 H 7.0235208 V 39.722017 H 7.73052 q 0.4033109,0 0.6250516,0.194425 0.2233475,0.194425 0.2233475,0.555958 0,0.366354 -0.2603043,0.594522 -0.2603042,0.226561 -0.6507606,0.213707 z m 0,-1.275812 v 0.993012 h 0.297261 q 0.2940474,0 0.446695,-0.131759 0.1526475,-0.133365 0.1526475,-0.380815 0,-0.480438 -0.568813,-0.480438 z m 1.5795004,0.552745 q 0.2651248,-0.165503 0.6121971,-0.165503 0.6427264,0 0.6427264,0.674863 v 1.144054 H 9.8675858 V 41.93621 h -0.00803 q -0.1847839,0.316543 -0.5447108,0.316543 -0.2586974,0 -0.411345,-0.139793 -0.1526475,-0.139793 -0.1526475,-0.377602 0,-0.498113 0.5897016,-0.580061 l 0.5270358,-0.07391 q 0,-0.435448 -0.3599269,-0.435448 -0.3197565,0 -0.5832744,0.215314 z m 0.5270358,0.817869 q -0.218527,0.02892 -0.3020815,0.109264 -0.081948,0.08034 -0.081948,0.224954 0,0.126938 0.089982,0.207279 0.089982,0.08034 0.2378089,0.08034 0.2056725,0 0.3390382,-0.144613 0.1333658,-0.144614 0.1333658,-0.363141 v -0.170322 z m 2.2029457,-0.629872 q -0.07873,-0.05624 -0.216921,-0.05624 -0.183177,0 -0.302081,0.17193 -0.118905,0.170322 -0.118905,0.449908 v 0.899818 h -0.314936 v -1.777139 h 0.314936 v 0.361533 h 0.0064 q 0.134972,-0.392063 0.465976,-0.392063 0.107657,0 0.165503,0.0241 z m 1.259744,1.447742 q -0.102836,0.05624 -0.277979,0.05624 -0.477225,0 -0.477225,-0.528642 v -1.026756 h -0.305295 v -0.260304 h 0.305295 v -0.427413 l 0.313329,-0.09962 v 0.527036 h 0.441875 v 0.260304 h -0.441875 v 0.970517 q 0,0.175143 0.05945,0.250663 0.05945,0.07552 0.197638,0.07552 0.10605,0 0.184784,-0.05945 z m 2.435934,-1.818917 q 0,-0.200852 -0.126939,-0.314936 -0.126938,-0.11569 -0.345465,-0.11569 -0.154255,0 -0.311723,0.07873 -0.157468,0.07873 -0.294047,0.224954 v -0.305295 q 0.122118,-0.126939 0.276372,-0.194425 0.155861,-0.06749 0.364748,-0.06749 0.337431,0 0.543104,0.18157 0.205672,0.179963 0.205672,0.488472 0,0.274766 -0.126938,0.475618 -0.125332,0.200852 -0.430627,0.411345 -0.311723,0.215313 -0.417773,0.308509 -0.104443,0.09319 -0.14622,0.178356 -0.04178,0.08516 -0.04178,0.20728 h 1.237249 v 0.279586 h -1.56504 v -0.123725 q 0,-0.215314 0.05785,-0.364748 0.05945,-0.15104 0.194425,-0.29244 0.134972,-0.143007 0.420985,-0.342252 0.292441,-0.205673 0.398491,-0.359927 0.107657,-0.155861 0.107657,-0.3535 z m 0.750383,0.224955 q 0,-0.08677 0.06106,-0.144614 0.06106,-0.05785 0.14622,-0.05785 0.08677,0 0.147827,0.05945 0.06106,0.05785 0.06106,0.143007 0,0.08516 -0.05945,0.144613 -0.05945,0.05945 -0.151041,0.05945 -0.08677,0 -0.14622,-0.05945 -0.05945,-0.05945 -0.05945,-0.144613 z m 0,1.446135 q 0,-0.08677 0.05945,-0.146221 0.05945,-0.05945 0.147827,-0.05945 0.08998,0 0.149434,0.06106 0.05945,0.05945 0.05945,0.144614 0,0.08355 -0.05945,0.144613 -0.05945,0.05945 -0.151041,0.05945 -0.08837,0 -0.147827,-0.05945 -0.05785,-0.06106 -0.05785,-0.144613 z"
       id="text32"
       style="font-size:3.29076px;line-height:125%;font-family:'微软雅黑';letter-spacing:0px;word-spacing:0px;stroke-width:0.264583"
       aria-label="Part 2: " />
    <path
       d="m 18.011856,42.210976 v -2.488959 h 0.710213 q 0.565599,0 0.939987,0.329397 0.375995,0.329398 0.375995,0.883749 0,0.578454 -0.375995,0.927133 -0.374388,0.34868 -0.965696,0.34868 z m 0.321363,-2.202946 v 1.918539 h 0.361534 q 0.474011,0 0.739135,-0.258697 0.266732,-0.258698 0.266732,-0.724675 0,-0.465976 -0.273159,-0.700571 -0.273159,-0.234596 -0.718247,-0.234596 z m 2.186877,0.549532 q 0.265125,-0.165503 0.612197,-0.165503 0.642727,0 0.642727,0.674863 v 1.144054 H 21.463297 V 41.93621 h -0.008 q -0.184783,0.316543 -0.54471,0.316543 -0.258698,0 -0.411345,-0.139793 -0.152648,-0.139793 -0.152648,-0.377602 0,-0.498113 0.589702,-0.580061 l 0.527035,-0.07391 q 0,-0.435448 -0.359926,-0.435448 -0.319757,0 -0.583275,0.215314 z m 0.527036,0.817869 q -0.218527,0.02892 -0.302081,0.109264 -0.08195,0.08034 -0.08195,0.224954 0,0.126938 0.08998,0.207279 0.08998,0.08034 0.237808,0.08034 0.205673,0 0.339039,-0.144613 0.133365,-0.144614 0.133365,-0.363141 v -0.170322 z m 2.103323,0.81787 q -0.102837,0.05624 -0.27798,0.05624 -0.477224,0 -0.477224,-0.528642 v -1.026756 h -0.305295 v -0.260304 h 0.305295 v -0.427413 l 0.313329,-0.09962 v 0.527036 h 0.441875 v 0.260304 H 22.70858 v 0.970517 q 0,0.175143 0.05945,0.250663 0.05945,0.07552 0.197639,0.07552 0.10605,0 0.184784,-0.05945 z m 0.414559,-1.635739 q 0.265124,-0.165503 0.612197,-0.165503 0.642726,0 0.642726,0.674863 v 1.144054 H 24.508215 V 41.93621 h -0.008 q -0.184784,0.316543 -0.544711,0.316543 -0.258697,0 -0.411345,-0.139793 -0.152648,-0.139793 -0.152648,-0.377602 0,-0.498113 0.589702,-0.580061 l 0.527036,-0.07391 q 0,-0.435448 -0.359927,-0.435448 -0.319757,0 -0.583274,0.215314 z m 0.527035,0.817869 q -0.218527,0.02892 -0.302081,0.109264 -0.08195,0.08034 -0.08195,0.224954 0,0.126938 0.08998,0.207279 0.08998,0.08034 0.237809,0.08034 0.205672,0 0.339038,-0.144613 0.133366,-0.144614 0.133366,-0.363141 v -0.170322 z m 2.585367,-0.0948 v 0.930347 h -0.321363 v -2.488959 h 0.706999 q 0.403311,0 0.625052,0.194425 0.223347,0.194425 0.223347,0.555958 0,0.366354 -0.260304,0.594522 -0.260304,0.226561 -0.65076,0.213707 z m 0,-1.275812 v 0.993012 h 0.297262 q 0.294047,0 0.446694,-0.131759 0.152648,-0.133365 0.152648,-0.380815 0,-0.480438 -0.568813,-0.480438 z m 1.579501,0.552745 q 0.265124,-0.165503 0.612197,-0.165503 0.642726,0 0.642726,0.674863 v 1.144054 H 29.200118 V 41.93621 h -0.008 q -0.184784,0.316543 -0.544711,0.316543 -0.258697,0 -0.411345,-0.139793 -0.152647,-0.139793 -0.152647,-0.377602 0,-0.498113 0.589701,-0.580061 l 0.527036,-0.07391 q 0,-0.435448 -0.359927,-0.435448 -0.319756,0 -0.583274,0.215314 z m 0.527035,0.817869 q -0.218527,0.02892 -0.302081,0.109264 -0.08195,0.08034 -0.08195,0.224954 0,0.126938 0.08998,0.207279 0.08998,0.08034 0.237809,0.08034 0.205672,0 0.339038,-0.144613 0.133366,-0.144614 0.133366,-0.363141 v -0.170322 z m 2.477712,0.755204 q -0.204066,0.122118 -0.491686,0.122118 -0.385636,0 -0.620231,-0.24745 -0.234596,-0.24745 -0.234596,-0.64112 0,-0.437054 0.252271,-0.703785 0.253877,-0.268339 0.678076,-0.268339 0.244236,0 0.417772,0.08677 v 0.311722 q -0.187997,-0.138186 -0.417772,-0.138186 -0.269945,0 -0.440268,0.187997 -0.168715,0.186391 -0.168715,0.498113 0,0.306902 0.159075,0.480438 0.160681,0.173537 0.432233,0.173537 0.229775,0 0.433841,-0.151041 z m 1.933,0.08034 h -0.42902 L 32.00562,41.354542 h -0.0064 v 0.856434 h -0.314936 v -2.630359 h 0.314936 v 1.667876 h 0.0064 l 0.721461,-0.814656 h 0.404917 l -0.803408,0.854826 z m 1.658235,-0.808229 h -1.243676 q 0.008,0.284406 0.155861,0.440268 0.147827,0.154254 0.412952,0.154254 0.298868,0 0.547924,-0.191211 v 0.281193 q -0.234595,0.165502 -0.621838,0.165502 -0.385636,0 -0.602556,-0.244236 -0.215313,-0.244236 -0.215313,-0.678077 0,-0.408131 0.236202,-0.673256 0.237809,-0.265125 0.589701,-0.265125 0.34868,0 0.544711,0.224955 0.196032,0.223347 0.196032,0.626658 z m -0.314936,-0.25227 q -0.0016,-0.241023 -0.114084,-0.372782 -0.112477,-0.131759 -0.316543,-0.131759 -0.187998,0 -0.326184,0.139793 -0.136579,0.139794 -0.171929,0.364748 z m 1.587534,1.042824 q -0.102836,0.05624 -0.277979,0.05624 -0.477224,0 -0.477224,-0.528642 v -1.026756 h -0.305295 v -0.260304 h 0.305295 v -0.427413 l 0.313329,-0.09962 v 0.527036 h 0.441874 v 0.260304 h -0.441874 v 0.970517 q 0,0.175143 0.05945,0.250663 0.05945,0.07552 0.197639,0.07552 0.106049,0 0.184783,-0.05945 z"
       id="text34"
       style="font-size:3.29076px;line-height:125%;font-family:'微软雅黑';letter-spacing:0px;word-spacing:0px;stroke-width:0.264583"
       aria-label="Data Packet" />
    <text
       xml:space="preserve"
       style="font-style:normal;font-variant:normal;font-weight:400;font-size:3.29076px;line-height:125%;font-family:'微软雅黑';text-align:start;letter-spacing:0px;word-spacing:0px;text-anchor:start;fill:#000000;fill-opacity:1;stroke:none;stroke-width:0.264583"
       x="36.408924"
       y="42.210976"
       id="text36"><tspan
         sodipodi:role="line"
         x="36.408924"
         y="42.210976"
         id="tspan36"
         style="stroke-width:0.264583"><tspan
           dx="0"
           dy="0"
           style="font-style:normal;font-variant:normal;font-weight:400;font-size:3.29076px;font-family:'微软雅黑';fill:#000000;stroke-width:0.264583"
           id="tspan35"> </tspan></tspan></text>
    <path
       d="m 40.101752,42.776575 q -0.573634,-0.626658 -0.573634,-1.516835 0,-0.901424 0.573634,-1.536116 h 0.276372 q -0.57042,0.65076 -0.57042,1.532903 0,0.869287 0.567207,1.520048 z"
       id="text38"
       style="font-size:3.29076px;line-height:125%;font-family:'微软雅黑';letter-spacing:0px;word-spacing:0px;stroke-width:0.264583"
       aria-label="（" />
    <path
       d="m 42.821725,39.484208 0.257091,0.03856 q -0.06749,0.311722 -0.157468,0.581667 h 0.983371 v 0.218527 H 43.70226 q -0.08034,0.944808 -0.411345,1.500767 0.260305,0.3535 0.662009,0.578454 -0.102836,0.1414 -0.173536,0.253877 -0.392064,-0.253877 -0.652368,-0.604163 -0.295654,0.366354 -0.703785,0.636299 -0.0707,-0.0932 -0.183177,-0.202459 0.449908,-0.295654 0.729494,-0.671649 -0.260304,-0.449909 -0.343859,-1.038003 -0.06749,0.118904 -0.141399,0.22174 -0.06427,-0.0932 -0.160682,-0.205672 0.372781,-0.536677 0.498113,-1.307949 z m -2.06958,1.854266 h 0.488473 q 0.0707,-0.122118 0.138186,-0.250663 l 0.231381,0.07391 q -0.05142,0.08998 -0.102836,0.176749 h 0.78734 v 0.208886 q -0.122118,0.314936 -0.369568,0.552745 0.17675,0.08356 0.359927,0.167109 l -0.141399,0.221741 q -0.199246,-0.112477 -0.414559,-0.224954 -0.363141,0.260304 -0.915885,0.411345 -0.05142,-0.102837 -0.109264,-0.224955 0.46919,-0.10605 0.793767,-0.305295 -0.276372,-0.1414 -0.578454,-0.289227 0.102837,-0.147827 0.199246,-0.305295 h -0.366355 z m 0.03535,-1.105489 h 0.739136 v -0.719854 h 0.237809 v 0.719854 h 0.617017 v 0.212099 H 41.76444 v 0.196032 l 0.09641,-0.109264 q 0.298868,0.218528 0.501327,0.385636 l -0.154255,0.179964 q -0.17675,-0.167109 -0.443481,-0.375995 v 0.366354 h -0.237809 v -0.449909 q -0.292441,0.305295 -0.68129,0.536677 -0.06106,-0.0932 -0.138186,-0.196032 0.404917,-0.218527 0.742349,-0.533463 h -0.662009 z m 2.657675,0.08998 h -0.60095 q -0.01607,0.04178 -0.03535,0.08034 0.05784,0.68129 0.321363,1.166549 0.25709,-0.469191 0.314936,-1.24689 z m -2.21098,1.45899 q 0.228168,0.102836 0.469191,0.215313 0.22174,-0.189604 0.347072,-0.446695 h -0.668435 q -0.07391,0.118905 -0.147828,0.231382 z m 1.002654,-2.188484 0.199245,0.131759 q -0.17675,0.231381 -0.3535,0.427413 -0.07391,-0.06427 -0.173536,-0.134973 0.167109,-0.196031 0.327791,-0.424199 z m -1.365794,0.1414 0.183177,-0.125332 q 0.144613,0.17675 0.298868,0.379209 l -0.199245,0.141399 q -0.1414,-0.208886 -0.2828,-0.395276 z m 4.585854,1.789993 h 0.662008 v -0.408131 h -0.748776 q -0.03535,0.988192 -0.456336,1.526475 -0.07713,-0.09962 -0.173536,-0.202459 0.401704,-0.494899 0.401704,-1.520048 v -1.253317 h 1.896043 v 0.931954 H 46.80663 v -0.09962 h -1.43328 v 0.398491 h 0.745562 v -0.337432 h 0.231382 v 0.337432 h 0.848399 v 0.218527 h -0.848399 v 0.408131 h 0.668436 v 1.086208 h -0.231382 v -0.186391 h -1.099062 v 0.186391 h -0.231382 z m -1.439708,-0.324577 q 0.228168,-0.06267 0.443482,-0.126938 V 40.339035 H 44.05576 v -0.231382 h 0.404918 v -0.613804 h 0.237809 v 0.613804 h 0.350286 v 0.231382 h -0.350286 v 0.660401 q 0.152647,-0.0482 0.298867,-0.09802 0.0032,0.144614 0.01928,0.250664 -0.165502,0.05302 -0.318149,0.104443 v 0.972124 q 0,0.36314 -0.31815,0.369567 -0.09962,0.0032 -0.295654,-0.0032 -0.01286,-0.128546 -0.03856,-0.266732 0.17675,0.01928 0.269945,0.01928 0.144614,0 0.144614,-0.163895 v -0.848399 q -0.220134,0.07391 -0.411345,0.1414 z m 2.789434,-1.320803 h -1.43328 v 0.408131 h 1.43328 z m -0.01928,1.85748 h -1.099062 v 0.478831 h 1.099062 z m 1.324017,-2.268825 0.263518,0.0707 q -0.0707,0.167109 -0.147827,0.324577 h 1.851052 q -0.01285,1.147267 -0.05142,1.587534 -0.03856,0.533464 -0.53025,0.53025 -0.128545,0 -0.456335,-0.01286 -0.01928,-0.122118 -0.05142,-0.266731 0.266732,0.02571 0.472405,0.02571 0.29244,0.0032 0.314936,-0.311722 0.03535,-0.408132 0.04499,-1.320804 h -1.712866 q -0.112477,0.205673 -0.241022,0.395277 H 49.204 v 0.938381 h -1.163335 v 0.604163 q 0,0.253877 0.266731,0.253877 h 1.497553 q 0.305295,0 0.356713,-0.196032 0.04821,-0.176749 0.07713,-0.472404 0.138186,0.05463 0.25709,0.0932 -0.03856,0.286013 -0.08355,0.465977 -0.08034,0.356713 -0.546318,0.356713 h -1.613243 q -0.469191,0 -0.469191,-0.456336 v -1.462203 q -0.157468,0.215313 -0.334218,0.408131 -0.07391,-0.128545 -0.160681,-0.224954 0.559172,-0.607377 0.82269,-1.330444 z m 0.841972,1.240462 h -0.912672 v 0.501327 h 0.912672 z"
       id="text40"
       style="font-size:3.29076px;line-height:125%;font-family:'微软雅黑';letter-spacing:0px;word-spacing:0px;stroke-width:0.264583"
       aria-label="数据包" />
    <path
       d="m 51.54403,41.812485 -0.271552,0.856433 h -0.224954 l 0.197638,-0.856433 z"
       id="text42"
       style="font-size:3.29076px;line-height:125%;font-family:'微软雅黑';letter-spacing:0px;word-spacing:0px;stroke-width:0.264583"
       aria-label="，" />
    <path
       d="m 54.177235,39.889126 h 2.622325 v 0.276372 h -2.622325 z m -0.237808,2.104929 h 3.088301 v 0.269946 h -3.088301 z m 4.097381,-1.025148 h 0.551138 q 0.0048,-0.250664 0.0048,-0.681291 h -0.404918 v -0.231381 h 0.404918 v -0.5656 h 0.257091 v 0.5656 h 0.636299 v -0.5656 h 0.25709 v 0.5656 h 0.475618 v 0.231381 h -0.475618 v 0.681291 h 0.60095 v 0.231381 h -0.60095 v 0.976945 h -0.25709 v -0.976945 h -0.660402 q -0.0948,0.655581 -0.554351,0.976945 -0.08355,-0.0932 -0.196032,-0.196032 0.39367,-0.249057 0.486865,-0.780913 h -0.525429 z m 0.437055,1.340084 0.761631,0.01607 1.137626,-0.02892 q -0.03535,0.10605 -0.08998,0.253877 l -1.066926,0.0032 -0.774486,-0.01607 q -0.530249,-0.0096 -0.75199,-0.372781 -0.131759,0.122118 -0.385636,0.430627 l -0.131759,-0.266732 q 0.284407,-0.274765 0.411345,-0.39367 v -1.081387 h -0.382422 v -0.237809 h 0.629872 v 1.370614 q 0.199245,0.314936 0.642727,0.32297 z m 0.372781,-1.340084 h 0.639513 v -0.681291 h -0.636299 q 0,0.552745 -0.0032,0.681291 z M 57.55155,39.529199 q 0.244236,0.305295 0.449908,0.607377 -0.134972,0.08677 -0.237808,0.160681 -0.17675,-0.308508 -0.417773,-0.629872 z m 3.853146,-0.02571 h 0.250663 v 0.491686 h 0.697358 v 0.224954 h -0.697358 v 0.430627 h 0.838758 v 0.224954 h -0.838758 v 0.359927 h 0.703786 v 0.764845 q 0,0.347072 -0.314936,0.350286 -0.09962,0.0032 -0.266732,0 -0.01607,-0.102837 -0.0482,-0.231382 0.157468,0.0096 0.25709,0.0096 0.134973,0 0.134973,-0.160682 v -0.514181 h -0.465977 v 1.192258 H 61.404696 V 41.454165 H 60.961214 V 42.4054 h -0.237808 v -1.169762 h 0.68129 v -0.359927 h -0.922313 v -0.224954 h 0.922313 V 40.22013 h -0.475618 q -0.08195,0.184784 -0.186391,0.350286 -0.10605,-0.06106 -0.218527,-0.122118 0.253877,-0.382422 0.3535,-0.829117 l 0.237809,0.06106 q -0.04178,0.163895 -0.0948,0.314936 h 0.384029 z m 1.83177,-0.0032 h 0.257091 v 2.648034 q 0,0.43384 -0.382422,0.43384 -0.125332,0 -0.430627,-0.0032 -0.01928,-0.125332 -0.05142,-0.279586 0.269945,0.02571 0.404918,0.02571 0.202458,0 0.202458,-0.228168 z m -0.369567,2.288107 h -0.24745 v -1.979598 h 0.24745 z m 2.995105,-2.304175 0.257091,0.03856 q -0.06749,0.311722 -0.157468,0.581667 h 0.983372 v 0.218527 H 66.74254 q -0.08034,0.944808 -0.411345,1.500767 0.260304,0.3535 0.662008,0.578454 -0.102836,0.1414 -0.173536,0.253877 -0.392063,-0.253877 -0.652367,-0.604163 -0.295655,0.366354 -0.703786,0.636299 -0.0707,-0.0932 -0.183177,-0.202459 0.449908,-0.295654 0.729495,-0.671649 -0.260305,-0.449909 -0.343859,-1.038003 -0.06749,0.118904 -0.1414,0.22174 -0.06427,-0.0932 -0.160682,-0.205672 0.372782,-0.536677 0.498113,-1.307949 z m -2.069579,1.854266 h 0.488472 q 0.0707,-0.122118 0.138186,-0.250663 l 0.231382,0.07391 q -0.05142,0.08998 -0.102836,0.176749 h 0.78734 v 0.208886 q -0.122118,0.314936 -0.369568,0.552745 0.17675,0.08356 0.359927,0.167109 l -0.1414,0.221741 q -0.199245,-0.112477 -0.414559,-0.224954 -0.36314,0.260304 -0.915885,0.411345 -0.05142,-0.102837 -0.109264,-0.224955 0.469191,-0.10605 0.793768,-0.305295 -0.276373,-0.1414 -0.578454,-0.289227 0.102836,-0.147827 0.199245,-0.305295 h -0.366354 z m 0.03535,-1.105489 h 0.739135 v -0.719854 h 0.237809 v 0.719854 h 0.617018 v 0.212099 h -0.617018 v 0.196032 l 0.09641,-0.109264 q 0.298868,0.218528 0.501327,0.385636 l -0.154254,0.179964 q -0.17675,-0.167109 -0.443482,-0.375995 v 0.366354 H 64.56691 v -0.449909 q -0.29244,0.305295 -0.68129,0.536677 -0.06106,-0.0932 -0.138186,-0.196032 0.404918,-0.218527 0.742349,-0.533463 h -0.662008 z m 2.657674,0.08998 H 65.8845 q -0.01607,0.04178 -0.03535,0.08034 0.05785,0.68129 0.321363,1.166549 0.257091,-0.469191 0.314936,-1.24689 z m -2.210979,1.45899 q 0.228168,0.102836 0.46919,0.215313 0.221741,-0.189604 0.347073,-0.446695 h -0.668436 q -0.07391,0.118905 -0.147827,0.231382 z m 1.002653,-2.188484 0.199246,0.131759 q -0.17675,0.231381 -0.3535,0.427413 -0.07391,-0.06427 -0.173536,-0.134973 0.167109,-0.196031 0.32779,-0.424199 z m -1.365794,0.1414 0.183177,-0.125332 q 0.144614,0.17675 0.298868,0.379209 l -0.199245,0.141399 q -0.1414,-0.208886 -0.2828,-0.395276 z m 4.585854,1.789993 h 0.662009 v -0.408131 h -0.748777 q -0.03535,0.988192 -0.456336,1.526475 -0.07713,-0.09962 -0.173536,-0.202459 0.401704,-0.494899 0.401704,-1.520048 v -1.253317 h 1.896044 v 0.931954 h -0.231382 v -0.09962 h -1.43328 v 0.398491 h 0.745563 v -0.337432 h 0.231381 v 0.337432 h 0.848399 v 0.218527 h -0.848399 v 0.408131 h 0.668436 v 1.086208 h -0.231382 v -0.186391 h -1.099062 v 0.186391 h -0.231382 z m -1.439707,-0.324577 q 0.228168,-0.06267 0.443481,-0.126938 v -0.734315 h -0.404918 v -0.231382 h 0.404918 v -0.613804 h 0.237809 v 0.613804 h 0.350286 v 0.231382 h -0.350286 v 0.660401 q 0.152648,-0.0482 0.298868,-0.09802 0.0032,0.144614 0.01928,0.250664 -0.165502,0.05302 -0.31815,0.104443 v 0.972124 q 0,0.36314 -0.31815,0.369567 -0.09962,0.0032 -0.295654,-0.0032 -0.01285,-0.128546 -0.03856,-0.266732 0.176749,0.01928 0.269945,0.01928 0.144613,0 0.144613,-0.163895 v -0.848399 q -0.220134,0.07391 -0.411345,0.1414 z m 2.789433,-1.320803 h -1.43328 v 0.408131 h 1.43328 z m -0.01928,1.85748 h -1.099062 v 0.478831 h 1.099062 z"
       id="text44"
       style="font-size:3.29076px;line-height:125%;font-family:'微软雅黑';letter-spacing:0px;word-spacing:0px;stroke-width:0.264583"
       aria-label="二进制数据" />
    <path
       d="m 70.875043,42.776575 h -0.276372 q 0.57042,-0.649154 0.57042,-1.536116 0,-0.870895 -0.567206,-1.516835 h 0.273158 q 0.57042,0.621838 0.57042,1.516835 0,0.904637 -0.57042,1.536116 z"
       id="text46"
       style="font-size:3.29076px;line-height:125%;font-family:'微软雅黑';letter-spacing:0px;word-spacing:0px;stroke-width:0.264583"
       aria-label="）" />
    <path
       d="M 30.462447,8.4626588 H 30.147511 V 7.3459214 h -0.0064 q -0.18639,0.340645 -0.600949,0.340645 -0.335825,0 -0.538283,-0.236202 -0.200853,-0.2378088 -0.200853,-0.6523674 0,-0.4418746 0.221741,-0.7069993 0.221741,-0.2651247 0.594522,-0.2651247 0.359927,0 0.523822,0.2827997 h 0.0064 V 5.8676503 h 0.314936 z M 30.147511,6.5939313 q 0.0016,-0.210493 -0.134973,-0.3583201 -0.134973,-0.1494339 -0.3535,-0.1494339 -0.250663,0 -0.39367,0.1863907 -0.143006,0.1863907 -0.143006,0.5173949 0,0.2988678 0.136579,0.4675836 0.138186,0.1687157 0.361534,0.1687157 0.244236,0 0.385636,-0.1671089 0.143006,-0.1687157 0.1414,-0.4193791 z m 2.734801,1.0508579 H 32.503103 L 32.090152,6.9538582 Q 31.966427,6.7465788 31.863591,6.6726653 31.760754,6.5971449 31.617748,6.5971449 H 31.386366 V 7.6447892 H 31.065003 V 5.1558306 h 0.758417 q 0.363141,0 0.568813,0.175143 0.205673,0.175143 0.205673,0.490079 0,0.5173949 -0.552745,0.6716492 v 0.00803 q 0.102836,0.043384 0.17675,0.1237249 0.07552,0.080341 0.194424,0.2747656 z M 31.386366,5.4370234 V 6.315952 h 0.379209 q 0.220134,0 0.356713,-0.1285453 0.138186,-0.1285453 0.138186,-0.3374314 0,-0.1944248 -0.125332,-0.3036883 -0.125331,-0.1092636 -0.364747,-0.1092636 z m 3.165428,2.2077658 H 33.213316 V 5.1558306 h 1.28224 V 5.4418439 H 33.53468 v 0.7969809 h 0.890176 V 6.5232314 H 33.53468 v 0.8371513 h 1.017114 z m 0.355107,-0.4675836 q 0.114084,0.099623 0.305295,0.1638953 0.191211,0.064273 0.36314,0.064273 0.523822,0 0.523822,-0.3727814 0,-0.1044431 -0.05624,-0.1879976 -0.05624,-0.083554 -0.154255,-0.1478271 -0.09802,-0.064273 -0.36796,-0.1976384 -0.374389,-0.1863907 -0.493293,-0.3454655 -0.118905,-0.1606817 -0.118905,-0.3663542 0,-0.3101155 0.249057,-0.4916858 0.249057,-0.1815703 0.628265,-0.1815703 0.371175,0 0.544711,0.089982 V 5.554321 q -0.224954,-0.1558611 -0.568813,-0.1558611 -0.228168,0 -0.372781,0.096409 -0.143007,0.094802 -0.143007,0.2651248 0,0.1510407 0.09962,0.2458429 0.09962,0.094802 0.432233,0.2586974 0.366354,0.175143 0.512575,0.350286 0.14622,0.175143 0.14622,0.39367 0,0.3277906 -0.237809,0.5029336 -0.237809,0.1751429 -0.660402,0.1751429 -0.147827,0 -0.345465,-0.041777 -0.196032,-0.04017 -0.286013,-0.1012294 z m 3.518928,-1.7353617 h -0.718247 v 2.2029453 h -0.32297 V 5.4418439 H 36.669578 V 5.1558306 h 1.756251 z"
       id="text48"
       style="font-size:3.29076px;line-height:125%;font-family:'微软雅黑';letter-spacing:0px;word-spacing:0px;stroke-width:0.264583"
       aria-label="qREST" />
    <path
       d="m 38.590223,5.4643393 h 1.542544 Q 39.970479,5.1558306 39.87889,5.0144307 l 0.24745,-0.1156908 q 0.08998,0.1381863 0.269945,0.4499086 l -0.231382,0.1156908 h 1.510408 V 5.7021482 H 41.082395 Q 40.910466,6.6196403 40.34326,7.1772056 40.770673,7.488928 41.70102,7.7363778 41.553193,7.9034867 41.476066,8.0159638 40.569821,7.7026346 40.137587,7.3603827 39.703747,7.6978142 38.750905,8.0416729 38.66735,7.9291957 38.558087,7.7910095 39.477186,7.5146371 39.941556,7.1755988 39.355068,6.5489404 39.195993,5.7021482 h -0.60577 z m 2.217407,0.2378089 h -1.354546 q 0.144613,0.7905536 0.690931,1.3063417 0.522215,-0.4852585 0.663615,-1.3063417 z m 1.976384,1.0090807 h 1.115131 V 5.8981798 h -0.612197 q -0.130153,0.3454655 -0.284407,0.6170175 -0.0932,-0.089982 -0.2121,-0.1703226 0.305295,-0.5366767 0.449909,-1.198685 l 0.260304,0.073913 q -0.06267,0.2394157 -0.134972,0.4531223 h 0.533463 V 4.9276626 h 0.25709 v 0.7455629 h 0.768059 v 0.2249543 h -0.768059 v 0.8130491 h 0.874108 v 0.2249543 h -0.874108 v 1.1247715 h -0.25709 V 6.9361832 h -1.115131 z m -0.967303,-0.192818 q 0.443481,-0.6555811 0.713426,-1.5875346 l 0.263518,0.077127 Q 42.674751,5.3823917 42.536564,5.7101822 V 8.0641683 H 42.282687 V 6.2404317 Q 42.118792,6.54412 41.932401,6.797997 41.884197,6.6598107 41.816711,6.5184109 Z m 4.605135,0.2474497 h 1.696799 v 1.304735 H 47.867981 V 7.8713503 H 46.67251 V 8.0705956 H 46.421846 Z M 46.357574,6.1552704 H 47.1417 V 5.6539437 H 46.251524 V 5.4225621 H 47.1417 V 4.9083808 h 0.257091 v 0.5141813 h 0.899817 v 0.2313816 h -0.899817 v 0.5013267 h 0.78734 V 6.386652 H 46.357574 Z M 45.53167,6.8397742 q 0.427413,-0.061059 0.706999,-0.1092635 -0.01928,0.1253317 -0.02892,0.2442361 -0.356714,0.051418 -0.973731,0.1510407 l -0.05142,-0.2378088 q 0.205672,-0.2137066 0.490079,-0.6780765 -0.269945,0.017675 -0.490079,0.03535 l -0.06106,-0.218527 q 0.295654,-0.3952769 0.613804,-1.1408397 l 0.244236,0.096409 q -0.347073,0.6812902 -0.568813,1.0251489 0.18639,-0.00482 0.388849,-0.011248 0.109264,-0.1863907 0.228168,-0.4065246 l 0.237809,0.1189044 Q 45.901238,6.3191657 45.53167,6.8397742 Z m 2.336311,0.1510407 H 46.67251 V 7.646396 h 1.195471 z m -2.757297,0.6073766 q 0.594522,-0.1156907 1.160122,-0.253877 -0.0096,0.1285454 -0.0096,0.2442361 -0.520609,0.1092636 -1.079781,0.2570907 z m 4.351259,-1.5264756 q 0.359927,-0.507754 0.57524,-1.1569078 l 0.24745,0.080341 q -0.0932,0.2217407 -0.179963,0.4145587 h 1.385075 q -0.04499,1.6421664 -0.06427,2.0310159 -0.01607,0.3374315 -0.154255,0.4627632 -0.131759,0.1253316 -0.475617,0.1253316 -0.253877,0 -0.53025,-0.016068 -0.01928,-0.1285453 -0.05463,-0.2827997 0.318149,0.03535 0.57524,0.041777 0.221741,0.00321 0.298868,-0.077127 0.08034,-0.067486 0.08998,-0.2924406 0.0225,-0.4338404 0.05463,-1.7578571 H 49.992193 Q 49.82187,5.9785206 49.661188,6.2066885 49.580848,6.1456295 49.461943,6.0717159 Z M 48.404658,6.9458241 Q 48.738876,6.4252156 48.877062,5.8049844 H 48.427153 V 5.589671 h 0.453123 V 4.9533717 h 0.22174 V 5.589671 h 0.417773 v 0.2153134 h -0.417773 v 0.4338404 l 0.08998,-0.093195 Q 49.410525,6.3448747 49.64512,6.569829 L 49.474798,6.7465788 Q 49.275552,6.5184109 49.102016,6.351302 v 1.7225072 h -0.22174 V 6.4187883 Q 48.722808,6.920115 48.507494,7.2286238 48.465717,7.0904376 48.404658,6.9458241 Z m 1.976384,-0.4595495 0.196032,-0.1028363 q 0.234595,0.4049178 0.485258,0.8837491 l -0.228168,0.122118 q -0.03856,-0.086768 -0.08034,-0.1735362 -0.417773,0.025709 -0.82269,0.057845 -0.09962,0.00964 -0.2828,0.048204 L 49.53907,7.0904376 q 0.102837,-0.0707 0.173537,-0.1735362 0.263517,-0.4145587 0.520608,-1.0187216 l 0.241022,0.099623 Q 50.284633,6.4155747 49.895784,7.0422331 50.358547,7.0293785 50.657415,7.016524 50.528869,6.7497925 50.381042,6.4862746 Z"
       id="text50"
       style="font-size:3.29076px;line-height:125%;font-family:'微软雅黑';letter-spacing:0px;word-spacing:0px;stroke-width:0.264583"
       aria-label="文件结构" />
  </g>
</svg>
