<?xml version="1.0" encoding="UTF-8" standalone="no"?>
<!-- Created with Inkscape (http://www.inkscape.org/) -->

<svg
   width="80mm"
   height="50mm"
   viewBox="0 0 80 50"
   version="1.1"
   id="svg1"
   inkscape:version="1.4 (86a8ad7, 2024-10-11)"
   sodipodi:docname="文件结构.svg"
   xmlns:inkscape="http://www.inkscape.org/namespaces/inkscape"
   xmlns:sodipodi="http://sodipodi.sourceforge.net/DTD/sodipodi-0.dtd"
   xmlns="http://www.w3.org/2000/svg"
   xmlns:svg="http://www.w3.org/2000/svg">
  <sodipodi:namedview
     id="namedview1"
     pagecolor="#ffffff"
     bordercolor="#000000"
     borderopacity="0.25"
     inkscape:showpageshadow="2"
     inkscape:pageopacity="0.0"
     inkscape:pagecheckerboard="0"
     inkscape:deskcolor="#d1d1d1"
     inkscape:document-units="mm"
     inkscape:zoom="2.8756735"
     inkscape:cx="181.34882"
     inkscape:cy="90.239731"
     inkscape:window-width="1920"
     inkscape:window-height="1009"
     inkscape:window-x="1912"
     inkscape:window-y="-8"
     inkscape:window-maximized="1"
     inkscape:current-layer="layer1" />
  <defs
     id="defs1">
    <clipPath
       clipPathUnits="userSpaceOnUse"
       id="clipEmfPath1">
      <path
         d="M 0,0 H 263.36 V 137.9011 H 0 Z"
         id="path1" />
    </clipPath>
    <pattern
       id="EMFhbasepattern"
       patternUnits="userSpaceOnUse"
       width="6"
       height="6"
       x="0"
       y="0" />
    <clipPath
       clipPathUnits="userSpaceOnUse"
       id="clipEmfPath1-9">
      <path
         d="M 0,0 H 283.06016 V 179.37512 H 0 Z"
         id="path1-4" />
    </clipPath>
    <pattern
       id="EMFhbasepattern-8"
       patternUnits="userSpaceOnUse"
       width="6"
       height="6"
       x="0"
       y="0" />
  </defs>
  <g
     inkscape:label="图层 1"
     inkscape:groupmode="layer"
     id="layer1">
    <path
       style="fill:#fff2cc;fill-opacity:1;fill-rule:evenodd;stroke:none;stroke-width:0.264583"
       d="M 3.2872332,1.8756489 V 48.015087 H 76.911446 V 1.8756489 Z"
       id="path2" />
    <path
       style="fill:none;stroke:#fee599;stroke-width:2.0737px;stroke-linecap:round;stroke-linejoin:round;stroke-miterlimit:4;stroke-dasharray:none;stroke-opacity:1"
       clip-path="url(#clipEmfPath1-9)"
       d="M 2.0737008,176.45898 H 280.33843 V 2.0737008 H 2.0737008 Z"
       id="path3"
       transform="matrix(0.26458333,0,0,0.26458333,2.7385662,1.3269819)" />
    <path
       style="fill:#d9958f;fill-opacity:1;fill-rule:evenodd;stroke:none;stroke-width:0.264583"
       d="M 5.8933992,10.688607 V 21.061836 H 74.322416 V 10.688607 Z"
       id="path4" />
    <path
       style="fill:none;stroke:#c05046;stroke-width:0.548667px;stroke-linecap:round;stroke-linejoin:round;stroke-miterlimit:4;stroke-dasharray:none;stroke-opacity:1"
       d="M 5.8933992,21.061836 H 74.322416 V 10.688607 H 5.8933992 Z"
       id="path5" />
    <path
       d="m 10.892096,16.067588 v 0.930346 h -0.321363 v -2.488958 h 0.706999 q 0.403311,0 0.625052,0.194424 0.223347,0.194425 0.223347,0.555959 0,0.366354 -0.260304,0.594522 -0.260304,0.226561 -0.650761,0.213707 z m 0,-1.275813 v 0.993013 h 0.297261 q 0.294048,0 0.446695,-0.131759 0.152648,-0.133366 0.152648,-0.380816 0,-0.480438 -0.568813,-0.480438 z m 1.579501,0.552745 q 0.265124,-0.165502 0.612197,-0.165502 0.642726,0 0.642726,0.674863 v 1.144053 h -0.311722 v -0.274765 h -0.008 q -0.184784,0.316543 -0.544711,0.316543 -0.258697,0 -0.411345,-0.139793 -0.152648,-0.139793 -0.152648,-0.377602 0,-0.498113 0.589702,-0.580061 l 0.527036,-0.07391 q 0,-0.435447 -0.359927,-0.435447 -0.319756,0 -0.583274,0.215314 z m 0.527035,0.81787 q -0.218527,0.02892 -0.302081,0.109263 -0.08195,0.08034 -0.08195,0.224955 0,0.126938 0.08998,0.207279 0.08998,0.08034 0.237809,0.08034 0.205672,0 0.339038,-0.144614 0.133366,-0.144613 0.133366,-0.36314 v -0.170323 z m 2.202946,-0.629872 q -0.07873,-0.05624 -0.216921,-0.05624 -0.183177,0 -0.302081,0.17193 -0.118904,0.170322 -0.118904,0.449908 v 0.899817 h -0.314936 v -1.777139 h 0.314936 v 0.361534 h 0.0064 q 0.134972,-0.392063 0.465977,-0.392063 0.107656,0 0.165502,0.0241 z m 1.259744,1.447741 q -0.102836,0.05624 -0.277979,0.05624 -0.477225,0 -0.477225,-0.528643 V 15.4811 h -0.305295 v -0.260305 h 0.305295 v -0.427413 l 0.313329,-0.09962 v 0.527035 h 0.441875 V 15.4811 h -0.441875 v 0.970517 q 0,0.175143 0.05945,0.250663 0.05945,0.07552 0.197638,0.07552 0.10605,0 0.184784,-0.05945 z m 1.21154,-1.177796 q 0,-0.658795 0.218527,-0.996226 0.218527,-0.339039 0.633085,-0.339039 0.790554,0 0.790554,1.275813 0,0.629872 -0.223347,0.96409 -0.221741,0.332611 -0.623445,0.332611 -0.379209,0 -0.588095,-0.316543 -0.207279,-0.316543 -0.207279,-0.920706 z m 0.321363,-0.01446 q 0,0.991405 0.502933,0.991405 0.4949,0 0.4949,-1.007474 0,-1.042823 -0.485259,-1.042823 -0.512574,0 -0.512574,1.058892 z m 1.653414,-0.401705 q 0,-0.08677 0.06106,-0.144613 0.06106,-0.05784 0.14622,-0.05784 0.08677,0 0.147827,0.05945 0.06106,0.05785 0.06106,0.143006 0,0.08516 -0.05945,0.144614 -0.05945,0.05945 -0.151041,0.05945 -0.08677,0 -0.14622,-0.05945 -0.05945,-0.05945 -0.05945,-0.144614 z m 0,1.446135 q 0,-0.08677 0.05945,-0.14622 0.05945,-0.05945 0.147827,-0.05945 0.08998,0 0.149434,0.06106 0.05945,0.05945 0.05945,0.144613 0,0.08356 -0.05945,0.144614 -0.05945,0.05945 -0.151041,0.05945 -0.08838,0 -0.147827,-0.05945 -0.05784,-0.06106 -0.05784,-0.144614 z m 3.178282,-2.037443 h -0.960876 v 0.832331 h 0.890177 v 0.2828 h -0.890177 v 1.087814 h -0.321363 v -2.488958 h 1.282239 z m 0.387244,-0.200852 q 0,-0.08355 0.05624,-0.139793 0.05785,-0.05785 0.1414,-0.05785 0.08516,0 0.143007,0.05624 0.05945,0.05624 0.05945,0.1414 0,0.08355 -0.05945,0.139793 -0.05785,0.05463 -0.143007,0.05463 -0.08516,0 -0.1414,-0.05463 -0.05624,-0.05624 -0.05624,-0.139793 z m 0.03696,2.403797 v -1.777139 h 0.314936 v 1.777139 z m 0.875716,0 v -2.630358 h 0.314936 v 2.630358 z m 2.325062,-0.808228 h -1.243676 q 0.008,0.284406 0.155862,0.440267 0.147827,0.154255 0.412951,0.154255 0.298868,0 0.547925,-0.191211 v 0.281192 q -0.234595,0.165503 -0.621838,0.165503 -0.385636,0 -0.602556,-0.244237 -0.215314,-0.244236 -0.215314,-0.678076 0,-0.408131 0.236202,-0.673256 0.237809,-0.265125 0.589702,-0.265125 0.348679,0 0.544711,0.224954 0.196031,0.223348 0.196031,0.626659 z m -0.314936,-0.25227 q -0.0016,-0.241023 -0.114084,-0.372782 -0.112477,-0.131759 -0.316543,-0.131759 -0.187997,0 -0.326183,0.139793 -0.13658,0.139793 -0.17193,0.364748 z m 3.650689,1.060498 h -0.321364 v -1.121558 h -1.259744 v 1.121558 h -0.321363 v -2.488958 h 0.321363 v 1.081387 h 1.259744 v -1.081387 h 0.321364 z m 2.050297,-0.808228 h -1.243676 q 0.008,0.284406 0.155861,0.440267 0.147827,0.154255 0.412952,0.154255 0.298868,0 0.547924,-0.191211 v 0.281192 q -0.234595,0.165503 -0.621838,0.165503 -0.385636,0 -0.602556,-0.244237 -0.215313,-0.244236 -0.215313,-0.678076 0,-0.408131 0.236202,-0.673256 0.237808,-0.265125 0.589701,-0.265125 0.348679,0 0.544711,0.224954 0.196032,0.223348 0.196032,0.626659 z m -0.314936,-0.25227 q -0.0016,-0.241023 -0.114084,-0.372782 -0.112478,-0.131759 -0.316543,-0.131759 -0.187998,0 -0.326184,0.139793 -0.136579,0.139793 -0.171929,0.364748 z m 0.776092,-0.592916 q 0.265125,-0.165502 0.612197,-0.165502 0.642727,0 0.642727,0.674863 v 1.144053 h -0.311723 v -0.274765 h -0.008 q -0.184784,0.316543 -0.544711,0.316543 -0.258697,0 -0.411345,-0.139793 -0.152647,-0.139793 -0.152647,-0.377602 0,-0.498113 0.589701,-0.580061 l 0.527036,-0.07391 q 0,-0.435447 -0.359927,-0.435447 -0.319756,0 -0.583274,0.215314 z m 0.527036,0.81787 q -0.218527,0.02892 -0.302082,0.109263 -0.08195,0.08034 -0.08195,0.224955 0,0.126938 0.08998,0.207279 0.08998,0.08034 0.237809,0.08034 0.205673,0 0.339038,-0.144614 0.133366,-0.144613 0.133366,-0.36314 v -0.170323 z m 2.792647,0.835544 H 35.302852 V 16.70228 h -0.0064 q -0.194425,0.337432 -0.604163,0.337432 -0.337432,0 -0.536677,-0.239416 -0.199245,-0.241023 -0.199245,-0.649154 0,-0.440268 0.224954,-0.705392 0.224954,-0.266732 0.588095,-0.266732 0.36314,0 0.527036,0.2828 h 0.0064 v -1.094242 h 0.314936 z m -0.313329,-1.057285 q 0,-0.213706 -0.1414,-0.356713 -0.139793,-0.144614 -0.345466,-0.144614 -0.250663,0 -0.395277,0.187998 -0.144613,0.186391 -0.144613,0.509361 0,0.297261 0.138186,0.470797 0.139793,0.171929 0.371175,0.171929 0.228168,0 0.372781,-0.168715 0.144614,-0.170323 0.144614,-0.422593 z m 2.323456,0.249057 h -1.243676 q 0.008,0.284406 0.155861,0.440267 0.147827,0.154255 0.412952,0.154255 0.298868,0 0.547924,-0.191211 v 0.281192 q -0.234595,0.165503 -0.621838,0.165503 -0.385636,0 -0.602556,-0.244237 -0.215313,-0.244236 -0.215313,-0.678076 0,-0.408131 0.236202,-0.673256 0.237808,-0.265125 0.589701,-0.265125 0.348679,0 0.544711,0.224954 0.196032,0.223348 0.196032,0.626659 z m -0.314936,-0.25227 q -0.0016,-0.241023 -0.114084,-0.372782 -0.112478,-0.131759 -0.316543,-0.131759 -0.187998,0 -0.326184,0.139793 -0.136579,0.139793 -0.171929,0.364748 z m 1.687157,-0.404918 q -0.07873,-0.05624 -0.21692,-0.05624 -0.183177,0 -0.302082,0.17193 -0.118904,0.170322 -0.118904,0.449908 v 0.899817 h -0.314936 v -1.777139 h 0.314936 v 0.361534 h 0.0064 q 0.134973,-0.392063 0.465977,-0.392063 0.107657,0 0.165502,0.0241 z"
       id="text6"
       style="font-size:3.29076px;line-height:125%;font-family:'微软雅黑';letter-spacing:0px;word-spacing:0px;stroke-width:0.264583"
       aria-label="Part 0: File Header " />
    <path
       d="m 42.737559,17.563534 q -0.573634,-0.626659 -0.573634,-1.516835 0,-0.901424 0.573634,-1.536116 h 0.276372 q -0.570419,0.65076 -0.570419,1.532902 0,0.869288 0.567206,1.520049 z"
       id="text8"
       style="font-size:3.29076px;line-height:125%;font-family:'微软雅黑';letter-spacing:0px;word-spacing:0px;stroke-width:0.264583"
       aria-label="（" />
    <path
       d="m 43.410448,14.817484 h 1.542544 q -0.162289,-0.308508 -0.253877,-0.449908 l 0.247449,-0.115691 q 0.08998,0.138186 0.269946,0.449909 l -0.231382,0.11569 h 1.510408 v 0.237809 H 45.90262 q -0.171929,0.917492 -0.739135,1.475058 0.427413,0.311722 1.35776,0.559172 -0.147828,0.167109 -0.224955,0.279586 -0.906244,-0.313329 -1.338478,-0.655581 -0.43384,0.337431 -1.386682,0.68129 -0.08355,-0.112477 -0.192818,-0.250663 0.919099,-0.276373 1.383469,-0.615411 -0.586488,-0.626658 -0.745563,-1.473451 h -0.60577 z m 2.217407,0.237809 h -1.354547 q 0.144614,0.790554 0.690931,1.306342 0.522216,-0.485259 0.663616,-1.306342 z m 1.976384,1.009081 h 1.11513 v -0.813049 h -0.612197 q -0.130152,0.345465 -0.284406,0.617017 -0.0932,-0.08998 -0.2121,-0.170322 0.305295,-0.536677 0.449909,-1.198685 l 0.260304,0.07391 q -0.06267,0.239416 -0.134973,0.453123 h 0.533463 v -0.745563 h 0.257091 v 0.745563 h 0.768058 v 0.224954 H 48.97646 v 0.813049 h 0.874108 v 0.224954 H 48.97646 V 17.4141 h -0.257091 v -1.124772 h -1.11513 z m -0.967304,-0.192818 q 0.443482,-0.655581 0.713427,-1.587535 l 0.263518,0.07713 q -0.118905,0.374388 -0.257091,0.702178 v 2.353986 h -0.253877 v -1.823736 q -0.163895,0.303688 -0.350286,0.557565 -0.0482,-0.138186 -0.115691,-0.279586 z m 3.335751,0.147827 h 1.597176 q 0.05142,-0.649154 0.05142,-1.732148 h 0.276372 q 0,0.941594 -0.0482,1.732148 h 1.253317 v 0.231382 h -1.298308 q -0.02249,0.10605 -0.07391,0.212099 0.645941,0.324577 1.311163,0.700572 l -0.163896,0.24745 q -0.662008,-0.414558 -1.285453,-0.742349 -0.385636,0.459549 -1.465416,0.784126 -0.05785,-0.09962 -0.173537,-0.253877 1.372222,-0.375995 1.558612,-0.948021 h -1.53933 z m 0.31815,-0.944808 q 0.456336,0.273159 0.832331,0.536677 l -0.157468,0.22174 Q 50.596131,15.55662 50.146222,15.270607 Z m 0.321363,-0.690931 q 0.485259,0.295654 0.813049,0.527036 l -0.160681,0.218527 Q 50.83394,14.80463 50.474013,14.573248 Z"
       id="text10"
       style="font-size:3.29076px;line-height:125%;font-family:'微软雅黑';letter-spacing:0px;word-spacing:0px;stroke-width:0.264583"
       aria-label="文件头" />
    <path
       d="m 54.179837,16.599444 -0.271552,0.856433 h -0.224954 l 0.197638,-0.856433 z"
       id="text12"
       style="font-size:3.29076px;line-height:125%;font-family:'微软雅黑';letter-spacing:0px;word-spacing:0px;stroke-width:0.264583"
       aria-label="，" />
    <path
       d="m 57.39471,16.997934 v -2.129031 q -0.07391,0.07391 -0.250663,0.165502 -0.175143,0.09159 -0.324577,0.128545 v -0.308509 q 0.197638,-0.05463 0.422592,-0.173536 0.224955,-0.120511 0.345466,-0.226561 h 0.118904 v 2.54359 z m 2.64964,-2.169202 q -0.194424,-0.09962 -0.406524,-0.09962 -0.32297,0 -0.519002,0.281192 -0.196032,0.281193 -0.199245,0.768059 h 0.008 q 0.17675,-0.342252 0.563992,-0.342252 0.322971,0 0.515789,0.210493 0.192817,0.210493 0.192817,0.559172 0,0.364747 -0.223347,0.599342 -0.221741,0.234596 -0.567206,0.234596 -0.379209,0 -0.596129,-0.295655 -0.215313,-0.297261 -0.215313,-0.841971 0,-0.658795 0.282799,-1.046038 0.284407,-0.38885 0.74717,-0.38885 0.265125,0 0.416165,0.07231 z m -1.105489,1.354546 q 0,0.245843 0.130152,0.420986 0.131759,0.175143 0.348679,0.175143 0.205672,0 0.334218,-0.15104 0.128545,-0.151041 0.128545,-0.38885 0,-0.257091 -0.122118,-0.400097 -0.120511,-0.143007 -0.343859,-0.143007 -0.2121,0 -0.343858,0.144614 -0.131759,0.144613 -0.131759,0.342251 z"
       id="text14"
       style="font-size:3.29076px;line-height:125%;font-family:'微软雅黑';letter-spacing:0px;word-spacing:0px;stroke-width:0.264583"
       aria-label="16" />
    <path
       d="m 60.404128,16.160783 h 1.507194 v -0.202459 l 0.633085,-0.39849 h -1.555398 v -0.234596 h 1.947462 v 0.260305 l -0.761631,0.488472 v 0.08677 h 1.404357 v 0.237809 H 62.17484 V 16.9899 q 0,0.408132 -0.408132,0.408132 -0.163895,0 -0.478831,-0.0064 -0.01286,-0.122118 -0.03856,-0.286013 0.253877,0.03535 0.449909,0.03535 0.2121,0 0.2121,-0.228168 v -0.514181 h -1.507194 z m 0.122118,-1.417212 h 1.478271 q -0.118904,-0.168716 -0.286013,-0.369568 l 0.215313,-0.144613 q 0.202459,0.22174 0.334218,0.411345 l -0.152648,0.102836 h 1.354547 v 0.652367 h -0.260305 v -0.417772 h -2.426292 v 0.417772 h -0.257091 z m 3.329324,0.748776 h 2.65446 q -0.03214,0.67165 -0.06427,1.031576 -0.03535,0.472405 -0.552745,0.472405 -0.305295,0 -0.501327,-0.01928 -0.01928,-0.154255 -0.05142,-0.279586 0.279586,0.04499 0.520608,0.04499 0.311723,0 0.331005,-0.302082 0.02892,-0.241022 0.0482,-0.713426 h -1.288667 v 1.700011 H 64.684687 V 15.726943 H 63.85557 Z m -0.160682,-0.796981 h 0.890176 v -0.424199 h 0.257091 v 0.424199 h 0.861253 v -0.424199 h 0.257091 v 0.424199 h 0.890176 v 0.234596 h -0.890176 v 0.359926 h -0.257091 v -0.359926 h -0.861253 v 0.356713 h -0.257091 v -0.356713 h -0.890176 z"
       id="text16"
       style="font-size:3.29076px;line-height:125%;font-family:'微软雅黑';letter-spacing:0px;word-spacing:0px;stroke-width:0.264583"
       aria-label="字节" />
    <path
       d="m 67.495878,17.563534 h -0.276373 q 0.57042,-0.649154 0.57042,-1.536117 0,-0.870894 -0.567206,-1.516834 h 0.273159 q 0.570419,0.621837 0.570419,1.516834 0,0.904638 -0.570419,1.536117 z"
       id="text18"
       style="font-size:3.29076px;line-height:125%;font-family:'微软雅黑';letter-spacing:0px;word-spacing:0px;stroke-width:0.264583"
       aria-label="）" />
    <path
       style="fill:#c4d6a0;fill-opacity:1;fill-rule:evenodd;stroke:none;stroke-width:0.264583"
       d="M 5.8933992,23.136482 V 33.509711 H 74.322416 V 23.136482 Z"
       id="path18" />
    <path
       style="fill:none;stroke:#789440;stroke-width:0.548667px;stroke-linecap:round;stroke-linejoin:round;stroke-miterlimit:4;stroke-dasharray:none;stroke-opacity:1"
       d="M 5.8933992,33.509711 H 74.322416 V 23.136482 H 5.8933992 Z"
       id="path19" />
    <path
       d="M 9.2372538,28.888743 V 29.81909 H 8.9158905 v -2.488959 h 0.7069993 q 0.4033112,0 0.6250512,0.194425 0.223348,0.194425 0.223348,0.555959 0,0.366354 -0.260304,0.594522 -0.2603047,0.226561 -0.6507611,0.213706 z m 0,-1.275812 v 0.993012 h 0.2972611 q 0.2940474,0 0.4466949,-0.131758 0.1526472,-0.133366 0.1526472,-0.380816 0,-0.480438 -0.5688126,-0.480438 z m 1.5795002,0.552745 q 0.265125,-0.165502 0.612197,-0.165502 0.642727,0 0.642727,0.674863 v 1.144053 h -0.311722 v -0.274766 h -0.008 q -0.184783,0.316543 -0.54471,0.316543 -0.258698,0 -0.411345,-0.139793 -0.152648,-0.139793 -0.152648,-0.377602 0,-0.498113 0.589702,-0.580061 l 0.527036,-0.07391 q 0,-0.435447 -0.359927,-0.435447 -0.319757,0 -0.583275,0.215313 z m 0.527036,0.817869 q -0.218527,0.02892 -0.302081,0.109264 -0.08195,0.08034 -0.08195,0.224954 0,0.126939 0.08998,0.207279 0.08998,0.08034 0.237809,0.08034 0.205672,0 0.339038,-0.144613 0.133366,-0.144614 0.133366,-0.363141 v -0.170322 z m 2.202945,-0.629872 q -0.07873,-0.05624 -0.21692,-0.05624 -0.183177,0 -0.302081,0.171929 -0.118905,0.170323 -0.118905,0.449909 v 0.899817 h -0.314936 v -1.777139 h 0.314936 v 0.361534 h 0.0064 q 0.134973,-0.392064 0.465977,-0.392064 0.107657,0 0.165502,0.0241 z m 1.259745,1.447742 q -0.102837,0.05624 -0.27798,0.05624 -0.477224,0 -0.477224,-0.528642 v -1.026756 h -0.305295 v -0.260304 h 0.305295 v -0.427413 l 0.313329,-0.09962 v 0.527036 h 0.441875 v 0.260304 h -0.441875 v 0.970517 q 0,0.175143 0.05945,0.250664 0.05945,0.07552 0.197639,0.07552 0.10605,0 0.184784,-0.05945 z m 1.981204,0.01768 v -2.129032 q -0.07391,0.07391 -0.250663,0.165502 -0.175143,0.09159 -0.324577,0.128546 v -0.308509 q 0.197638,-0.05463 0.422593,-0.173536 0.224954,-0.120512 0.345465,-0.226562 h 0.118905 v 2.543591 z m 1.205112,-1.611637 q 0,-0.08677 0.06106,-0.144613 0.06106,-0.05785 0.146221,-0.05785 0.08677,0 0.147827,0.05945 0.06106,0.05785 0.06106,0.143007 0,0.08516 -0.05945,0.144613 -0.05945,0.05945 -0.151041,0.05945 -0.08677,0 -0.14622,-0.05945 -0.05945,-0.05945 -0.05945,-0.144613 z m 0,1.446135 q 0,-0.08677 0.05945,-0.14622 0.05945,-0.05945 0.147827,-0.05945 0.08998,0 0.149434,0.06106 0.05945,0.05945 0.05945,0.144614 0,0.08355 -0.05945,0.144613 -0.05945,0.05945 -0.151041,0.05945 -0.08837,0 -0.147827,-0.05945 -0.05785,-0.06106 -0.05785,-0.144613 z m 4.147193,0.165502 v -1.648594 q 0,-0.204065 0.0241,-0.490079 h -0.008 q -0.04178,0.179964 -0.07391,0.250664 l -0.821083,1.888009 h -0.178357 l -0.819476,-1.873548 q -0.02892,-0.06427 -0.07391,-0.265125 h -0.0096 q 0.01607,0.173536 0.01607,0.504541 V 29.81909 H 19.88884 v -2.488959 h 0.435447 l 0.734315,1.706439 q 0.08355,0.196032 0.11087,0.305295 h 0.01125 q 0.08355,-0.229774 0.117298,-0.311722 l 0.747169,-1.700012 h 0.414559 v 2.488959 z m 2.371662,-0.808229 h -1.243676 q 0.008,0.284407 0.155862,0.440268 0.147827,0.154254 0.412951,0.154254 0.298868,0 0.547925,-0.191211 v 0.281193 q -0.234595,0.165502 -0.621838,0.165502 -0.385636,0 -0.602556,-0.244236 -0.215314,-0.244236 -0.215314,-0.678077 0,-0.408131 0.236202,-0.673256 0.237809,-0.265124 0.589702,-0.265124 0.348679,0 0.544711,0.224954 0.196031,0.223347 0.196031,0.626658 z m -0.314936,-0.25227 q -0.0016,-0.241022 -0.114084,-0.372781 -0.112477,-0.131759 -0.316543,-0.131759 -0.187997,0 -0.326183,0.139793 -0.13658,0.139793 -0.17193,0.364747 z m 1.587534,1.042824 q -0.102836,0.05624 -0.277979,0.05624 -0.477225,0 -0.477225,-0.528642 V 28.302255 H 24.72375 v -0.260304 h 0.305295 v -0.427413 l 0.313329,-0.09962 v 0.527036 h 0.441875 v 0.260304 h -0.441875 v 0.970517 q 0,0.175143 0.05945,0.250664 0.05945,0.07552 0.197638,0.07552 0.10605,0 0.184784,-0.05945 z m 0.414559,-1.635739 q 0.265125,-0.165502 0.612197,-0.165502 0.642727,0 0.642727,0.674863 V 29.81909 H 27.14201 v -0.274766 h -0.008 q -0.184784,0.316543 -0.544711,0.316543 -0.258698,0 -0.411345,-0.139793 -0.152648,-0.139793 -0.152648,-0.377602 0,-0.498113 0.589702,-0.580061 l 0.527036,-0.07391 q 0,-0.435447 -0.359927,-0.435447 -0.319757,0 -0.583275,0.215313 z m 0.527036,0.817869 q -0.218527,0.02892 -0.302081,0.109264 -0.08195,0.08034 -0.08195,0.224954 0,0.126939 0.08998,0.207279 0.08998,0.08034 0.237809,0.08034 0.205672,0 0.339038,-0.144613 0.133366,-0.144614 0.133366,-0.363141 v -0.170322 z m 2.792647,0.835545 h -0.314936 v -0.295654 h -0.0064 q -0.194425,0.337431 -0.604163,0.337431 -0.337431,0 -0.536677,-0.239416 -0.199245,-0.241022 -0.199245,-0.649153 0,-0.440268 0.224954,-0.705393 0.224955,-0.266731 0.588095,-0.266731 0.363141,0 0.527036,0.282799 h 0.0064 v -1.094242 h 0.314936 z m -0.313329,-1.057285 q 0,-0.213707 -0.1414,-0.356714 -0.139793,-0.144613 -0.345465,-0.144613 -0.250664,0 -0.395277,0.187997 -0.144614,0.186391 -0.144614,0.509361 0,0.297261 0.138187,0.470797 0.139793,0.17193 0.371174,0.17193 0.228168,0 0.372782,-0.168716 0.144613,-0.170322 0.144613,-0.422593 z m 0.917492,-0.596129 q 0.265124,-0.165502 0.612197,-0.165502 0.642726,0 0.642726,0.674863 v 1.144053 h -0.311722 v -0.274766 h -0.008 q -0.184784,0.316543 -0.544711,0.316543 -0.258697,0 -0.411345,-0.139793 -0.152648,-0.139793 -0.152648,-0.377602 0,-0.498113 0.589702,-0.580061 l 0.527036,-0.07391 q 0,-0.435447 -0.359927,-0.435447 -0.319756,0 -0.583274,0.215313 z m 0.527035,0.817869 q -0.218527,0.02892 -0.302081,0.109264 -0.08195,0.08034 -0.08195,0.224954 0,0.126939 0.08998,0.207279 0.08998,0.08034 0.237809,0.08034 0.205672,0 0.339038,-0.144613 0.133366,-0.144614 0.133366,-0.363141 v -0.170322 z m 2.103323,0.81787 q -0.102836,0.05624 -0.277979,0.05624 -0.477224,0 -0.477224,-0.528642 v -1.026756 h -0.305296 v -0.260304 h 0.305296 v -0.427413 l 0.313329,-0.09962 v 0.527036 h 0.441874 v 0.260304 h -0.441874 v 0.970517 q 0,0.175143 0.05945,0.250664 0.05945,0.07552 0.197638,0.07552 0.10605,0 0.184784,-0.05945 z m 0.41456,-1.635739 q 0.265124,-0.165502 0.612197,-0.165502 0.642726,0 0.642726,0.674863 v 1.144053 h -0.311722 v -0.274766 h -0.008 q -0.184784,0.316543 -0.544711,0.316543 -0.258697,0 -0.411345,-0.139793 -0.152647,-0.139793 -0.152647,-0.377602 0,-0.498113 0.589701,-0.580061 l 0.527036,-0.07391 q 0,-0.435447 -0.359927,-0.435447 -0.319756,0 -0.583274,0.215313 z m 0.527036,0.817869 q -0.218528,0.02892 -0.302082,0.109264 -0.08195,0.08034 -0.08195,0.224954 0,0.126939 0.08998,0.207279 0.08998,0.08034 0.237809,0.08034 0.205672,0 0.339038,-0.144613 0.133366,-0.144614 0.133366,-0.363141 v -0.170322 z"
       id="text20"
       style="font-size:3.29076px;line-height:125%;font-family:'微软雅黑';letter-spacing:0px;word-spacing:0px;stroke-width:0.264583"
       aria-label="Part 1: Metadata " />
    <path
       d="m 38.377421,30.384689 q -0.573633,-0.626658 -0.573633,-1.516834 0,-0.901424 0.573633,-1.536117 h 0.276372 q -0.570419,0.650761 -0.570419,1.532903 0,0.869288 0.567206,1.520048 z"
       id="text22"
       style="font-size:3.29076px;line-height:125%;font-family:'微软雅黑';letter-spacing:0px;word-spacing:0px;stroke-width:0.264583"
       aria-label="（" />
    <path
       d="m 39.047104,28.233162 h 3.104369 v 0.244236 h -1.015508 v 1.253317 q 0,0.189604 0.192818,0.189604 h 0.276373 q 0.231381,0 0.263518,-0.212099 0.02892,-0.179964 0.0482,-0.456336 0.128545,0.04499 0.279586,0.08034 -0.03214,0.276372 -0.06749,0.462763 -0.06427,0.353499 -0.465977,0.353499 h -0.392063 q -0.404918,0 -0.404918,-0.395277 v -1.275812 h -0.655581 v 0.102836 q 0,0.681291 -0.205672,1.009081 -0.205673,0.356713 -0.813049,0.665222 -0.115691,-0.1414 -0.189605,-0.215313 0.555959,-0.273159 0.748777,-0.575241 0.189604,-0.289226 0.189604,-0.870894 v -0.115691 h -0.89339 z m 0.308509,-0.935167 h 2.493779 v 0.244236 h -2.493779 z m 5.032549,-0.205673 0.25709,0.03856 q -0.06749,0.311722 -0.157468,0.581668 h 0.983372 v 0.218527 h -0.202459 q -0.08034,0.944808 -0.411345,1.500766 0.260304,0.3535 0.662009,0.578454 -0.102837,0.1414 -0.173537,0.253877 -0.392063,-0.253877 -0.652367,-0.604163 -0.295654,0.366354 -0.703786,0.636299 -0.0707,-0.09319 -0.183177,-0.202459 0.449909,-0.295654 0.729495,-0.671649 -0.260304,-0.449908 -0.343859,-1.038003 -0.06749,0.118904 -0.1414,0.22174 -0.06427,-0.0932 -0.160681,-0.205672 0.372781,-0.536677 0.498113,-1.307949 z m -2.06958,1.854267 h 0.488472 q 0.0707,-0.122118 0.138187,-0.250664 l 0.231381,0.07391 q -0.05142,0.08998 -0.102836,0.17675 h 0.78734 v 0.208886 q -0.122118,0.314936 -0.369568,0.552745 0.17675,0.08355 0.359927,0.167108 l -0.1414,0.221741 q -0.199245,-0.112477 -0.414558,-0.224954 -0.363141,0.260304 -0.915886,0.411345 -0.05142,-0.102836 -0.109263,-0.224954 0.46919,-0.10605 0.793767,-0.305296 -0.276372,-0.141399 -0.578454,-0.289227 0.102836,-0.147827 0.199245,-0.305295 h -0.366354 z m 0.03535,-1.10549 h 0.739136 v -0.719854 h 0.237809 v 0.719854 h 0.617017 v 0.2121 h -0.617017 v 0.196031 l 0.09641,-0.109263 q 0.298867,0.218527 0.501326,0.385636 l -0.154254,0.179963 q -0.17675,-0.167109 -0.443481,-0.375995 v 0.366354 h -0.237809 v -0.449908 q -0.292441,0.305295 -0.68129,0.536676 -0.06106,-0.09319 -0.138187,-0.196031 0.404918,-0.218527 0.74235,-0.533463 h -0.662009 z m 2.657675,0.08998 h -0.60095 q -0.01607,0.04178 -0.03535,0.08034 0.05785,0.681291 0.321364,1.166549 0.25709,-0.46919 0.314936,-1.246889 z m -2.21098,1.458989 q 0.228168,0.102836 0.469191,0.215313 0.22174,-0.189604 0.347072,-0.446695 h -0.668436 q -0.07391,0.118905 -0.147827,0.231382 z m 1.002654,-2.188484 0.199245,0.131759 q -0.17675,0.231381 -0.3535,0.427413 -0.07391,-0.06427 -0.173536,-0.134973 0.167109,-0.196031 0.327791,-0.424199 z m -1.365794,0.1414 0.183177,-0.125332 q 0.144613,0.17675 0.298868,0.379209 l -0.199246,0.1414 q -0.141399,-0.208887 -0.282799,-0.395277 z m 4.585854,1.789993 h 0.662008 v -0.408131 h -0.748776 q -0.03535,0.988192 -0.456336,1.526476 -0.07713,-0.09962 -0.173536,-0.202459 0.401704,-0.4949 0.401704,-1.520049 v -1.253317 h 1.896043 v 0.931954 h -0.231381 v -0.09962 h -1.433281 v 0.398491 h 0.745563 v -0.337432 h 0.231382 v 0.337432 h 0.848399 v 0.218527 h -0.848399 v 0.408131 h 0.668435 v 1.086208 h -0.231381 v -0.186391 h -1.099063 v 0.186391 h -0.231381 z m -1.439708,-0.324577 q 0.228168,-0.06267 0.443482,-0.126938 v -0.734315 h -0.404918 v -0.231382 h 0.404918 v -0.613804 h 0.237808 v 0.613804 h 0.350286 v 0.231382 h -0.350286 v 0.660401 q 0.152648,-0.0482 0.298868,-0.09802 0.0032,0.144613 0.01928,0.250663 -0.165502,0.05303 -0.31815,0.104443 v 0.972124 q 0,0.36314 -0.318149,0.369568 -0.09962,0.0032 -0.295654,-0.0032 -0.01286,-0.128545 -0.03856,-0.266732 0.17675,0.01928 0.269945,0.01928 0.144614,0 0.144614,-0.163895 v -0.848399 q -0.220134,0.07391 -0.411345,0.1414 z m 2.789434,-1.320803 h -1.433281 v 0.408132 h 1.433281 z m -0.01928,1.85748 h -1.099063 v 0.478831 h 1.099063 z"
       id="text24"
       style="font-size:3.29076px;line-height:125%;font-family:'微软雅黑';letter-spacing:0px;word-spacing:0px;stroke-width:0.264583"
       aria-label="元数据" />
    <path
       d="m 49.819707,29.420599 -0.271552,0.856434 h -0.224954 l 0.197638,-0.856434 z"
       id="text26"
       style="font-size:3.29076px;line-height:125%;font-family:'微软雅黑';letter-spacing:0px;word-spacing:0px;stroke-width:0.264583"
       aria-label="，" />
    <path
       d="m 52.549321,28.978725 v -0.221741 h 2.18527 v 0.221741 q -0.305295,0.401704 -0.734315,0.68129 0.522216,0.250663 1.364187,0.311722 -0.11569,0.160682 -0.18639,0.269946 -0.861254,-0.117298 -1.425246,-0.440268 -0.543104,0.279586 -1.415606,0.462763 -0.08034,-0.125332 -0.163895,-0.237809 0.840365,-0.144613 1.348119,-0.375995 -0.350286,-0.261911 -0.604163,-0.671649 z m -0.311722,-1.491126 h 1.465416 q -0.09962,-0.179963 -0.183177,-0.311722 L 53.75122,27.0634 q 0.157468,0.244236 0.218527,0.359927 l -0.123725,0.06427 h 1.460596 v 0.228168 h -1.038003 v 0.89339 h -0.24745 v -0.89339 H 53.50377 v 0.899817 h -0.24745 v -0.899817 h -1.018721 z m 2.182056,1.491126 h -1.213146 q 0.236202,0.350286 0.555959,0.546317 0.385635,-0.228167 0.657187,-0.546317 z m 0.04178,-0.925526 0.176749,-0.151041 q 0.411345,0.369568 0.674863,0.652367 l -0.199245,0.17675 q -0.311722,-0.350286 -0.652367,-0.678076 z m -1.632526,-0.157468 0.192818,0.163895 q -0.32779,0.375995 -0.64594,0.68129 -0.08034,-0.08998 -0.186391,-0.179963 0.337432,-0.289227 0.639513,-0.665222 z m 2.667315,0.501326 h 0.5656 v -1.311162 h 0.263518 v 1.311162 h 2.268825 v 0.250664 h -1.407572 q 0.401704,0.880535 1.475058,1.211539 -0.109264,0.144614 -0.196032,0.263518 -1.155301,-0.440268 -1.552184,-1.475057 H 56.32534 v 1.163335 q 0.366354,-0.147827 0.777699,-0.340645 0,0.15104 0.01285,0.289227 -0.382422,0.157468 -0.732708,0.331004 -0.128545,0.0707 -0.237809,0.157468 l -0.192818,-0.24745 q 0.109264,-0.08677 0.109264,-0.234595 v -1.118344 h -0.5656 z m 1.021936,-0.392063 q 0.796981,-0.266731 1.532903,-0.813049 l 0.167108,0.208886 q -0.75199,0.549531 -1.57468,0.841972 -0.05142,-0.109264 -0.125331,-0.237809 z m 2.246329,0.976945 h 1.507194 V 28.77948 l 0.633086,-0.398491 h -1.555399 v -0.234595 h 1.947462 v 0.260304 l -0.761631,0.488472 v 0.08677 h 1.404357 v 0.237808 h -1.404357 v 0.591309 q 0,0.408131 -0.408132,0.408131 -0.163895,0 -0.478831,-0.0064 -0.01285,-0.122118 -0.03856,-0.286013 0.253877,0.03535 0.449909,0.03535 0.2121,0 0.2121,-0.228168 v -0.514182 h -1.507194 z m 0.122118,-1.417213 h 1.478271 q -0.118904,-0.168715 -0.286013,-0.369567 l 0.215313,-0.144614 q 0.202459,0.221741 0.334218,0.411345 l -0.152647,0.102836 h 1.354546 v 0.652368 h -0.260304 v -0.417772 h -2.426293 v 0.417772 h -0.257091 z m 4.119877,0.960877 h 1.407572 v -0.375995 h 0.253877 v 0.375995 h 0.552744 v 0.231381 h -0.552744 v 1.073354 q 0,0.385636 -0.359927,0.385636 -0.250664,0 -0.478832,-0.0064 -0.01607,-0.122118 -0.04178,-0.266731 0.244236,0.02892 0.456336,0.02892 0.170323,0 0.170323,-0.173536 v -1.041217 h -1.407572 z m -0.97373,0.600949 q 0.420986,-0.404918 0.790553,-1.10549 l 0.234596,0.125332 q -0.126939,0.228168 -0.257091,0.430627 v 1.658234 h -0.253877 v -1.295094 q -0.189604,0.249057 -0.385636,0.446695 -0.05785,-0.128545 -0.128545,-0.260304 z m 2.014947,-2.059939 h 0.279587 q -0.06588,0.168716 -0.139794,0.327791 h 1.02997 v 0.221741 h -1.142447 q -0.178356,0.334217 -0.406524,0.629872 -0.0707,-0.07713 -0.199245,-0.17675 0.388849,-0.4949 0.578453,-1.002654 z m -1.378648,0 h 0.279586 q -0.06588,0.170323 -0.143007,0.327791 h 0.930347 v 0.221741 h -1.050858 q -0.199245,0.340645 -0.462763,0.61059 -0.0707,-0.07391 -0.186391,-0.183177 0.408132,-0.401704 0.633086,-0.976945 z m 0.584881,1.944248 0.205673,-0.134972 q 0.231381,0.295654 0.401704,0.572026 l -0.224955,0.154255 q -0.160681,-0.276373 -0.382422,-0.591309 z m -0.112477,-0.880535 q -0.06749,-0.09962 -0.292441,-0.379209 l 0.183177,-0.131759 q 0.167109,0.17675 0.308509,0.359927 z m 1.420426,-0.01607 q -0.131759,-0.17675 -0.298868,-0.363141 l 0.173536,-0.131759 q 0.2121,0.199245 0.327791,0.340645 z m 0.993012,0.565599 h 1.240463 V 28.342426 H 65.95017 v 0.106049 h -0.253877 v -0.983371 h 1.099063 v -0.375995 h 0.260304 v 0.375995 h 1.102276 v 0.983371 H 67.904059 V 28.342426 H 67.05566 v 0.337431 h 1.243676 v 1.07014 H 68.045459 V 29.631092 H 67.05566 v 0.610591 H 66.795356 V 29.631092 H 65.80877 v 0.118905 h -0.253877 z m 2.490566,0.224954 H 67.05566 v 0.501327 h 0.989799 z m -2.236689,0.501327 h 0.986586 V 28.904811 H 65.80877 Z m 2.095289,-1.71608 H 67.05566 v 0.427413 h 0.848399 z m -1.953889,0.427413 h 0.845186 V 27.690058 H 65.95017 Z"
       id="text28"
       style="font-size:3.29076px;line-height:125%;font-family:'微软雅黑';letter-spacing:0px;word-spacing:0px;stroke-width:0.264583"
       aria-label="变长字符串" />
    <path
       d="m 69.150724,30.384689 h -0.276373 q 0.57042,-0.649154 0.57042,-1.536116 0,-0.870895 -0.567206,-1.516835 h 0.273159 q 0.57042,0.621838 0.57042,1.516835 0,0.904637 -0.57042,1.536116 z"
       id="text30"
       style="font-size:3.29076px;line-height:125%;font-family:'微软雅黑';letter-spacing:0px;word-spacing:0px;stroke-width:0.264583"
       aria-label="）" />
    <path
       style="fill:#92cddc;fill-opacity:1;fill-rule:evenodd;stroke:none;stroke-width:0.264583"
       d="M 5.8933992,35.584356 V 45.957587 H 74.322416 V 35.584356 Z"
       id="path30" />
    <path
       style="fill:none;stroke:#0070c0;stroke-width:0.548667px;stroke-linecap:round;stroke-linejoin:round;stroke-miterlimit:4;stroke-dasharray:none;stroke-opacity:1"
       d="M 5.8933992,45.957587 H 74.322416 V 35.584356 H 5.8933992 Z"
       id="path31" />
    <path
       d="m 8.6111628,41.330945 v 0.930347 H 8.2897995 v -2.488959 h 0.7069993 q 0.4033109,0 0.6250515,0.194425 0.2233475,0.194424 0.2233475,0.555958 0,0.366354 -0.2603042,0.594522 -0.2603043,0.226561 -0.6507607,0.213707 z m 0,-1.275812 v 0.993012 h 0.2972611 q 0.2940474,0 0.4466949,-0.131759 0.1526476,-0.133366 0.1526476,-0.380815 0,-0.480438 -0.568813,-0.480438 z m 1.5795002,0.552744 q 0.265125,-0.165502 0.612197,-0.165502 0.642727,0 0.642727,0.674863 v 1.144054 h -0.311722 v -0.274766 h -0.008 q -0.184783,0.316543 -0.54471,0.316543 -0.258698,0 -0.411345,-0.139793 -0.152648,-0.139793 -0.152648,-0.377602 0,-0.498113 0.589702,-0.580061 l 0.527036,-0.07391 q 0,-0.435448 -0.359927,-0.435448 -0.319757,0 -0.583275,0.215314 z m 0.527036,0.81787 q -0.218527,0.02892 -0.302081,0.109263 -0.08195,0.08034 -0.08195,0.224955 0,0.126938 0.08998,0.207279 0.08998,0.08034 0.237809,0.08034 0.205672,0 0.339038,-0.144614 0.133366,-0.144613 0.133366,-0.36314 v -0.170323 z m 2.202945,-0.629872 q -0.07873,-0.05624 -0.21692,-0.05624 -0.183177,0 -0.302081,0.17193 -0.118905,0.170322 -0.118905,0.449908 v 0.899818 h -0.314936 v -1.777139 h 0.314936 v 0.361533 h 0.0064 q 0.134973,-0.392063 0.465977,-0.392063 0.107657,0 0.165502,0.0241 z m 1.259745,1.447742 q -0.102837,0.05624 -0.27798,0.05624 -0.477224,0 -0.477224,-0.528643 V 40.744457 H 13.11989 v -0.260304 h 0.305295 v -0.427414 l 0.313329,-0.09962 v 0.527036 h 0.441875 v 0.260304 h -0.441875 v 0.970517 q 0,0.175143 0.05945,0.250663 0.05945,0.07552 0.197639,0.07552 0.10605,0 0.184784,-0.05945 z M 16.616322,40.4247 q 0,-0.200852 -0.126938,-0.314936 -0.126939,-0.11569 -0.345466,-0.11569 -0.154254,0 -0.311722,0.07873 -0.157468,0.07873 -0.294047,0.224954 v -0.305295 q 0.122118,-0.126939 0.276372,-0.194425 0.155861,-0.06749 0.364747,-0.06749 0.337432,0 0.543104,0.18157 0.205673,0.179963 0.205673,0.488472 0,0.274766 -0.126939,0.475618 -0.125331,0.200852 -0.430627,0.411345 -0.311722,0.215313 -0.417772,0.308509 -0.104443,0.0932 -0.14622,0.178356 -0.04178,0.08516 -0.04178,0.207279 h 1.237248 v 0.279587 h -1.565039 v -0.123725 q 0,-0.215314 0.05785,-0.364748 0.05945,-0.15104 0.194424,-0.29244 0.134973,-0.143007 0.420986,-0.342252 0.292441,-0.205673 0.398491,-0.359927 0.107656,-0.155861 0.107656,-0.3535 z m 0.750383,0.224955 q 0,-0.08677 0.06106,-0.144614 0.06106,-0.05785 0.146221,-0.05785 0.08677,0 0.147827,0.05945 0.06106,0.05785 0.06106,0.143007 0,0.08516 -0.05945,0.144613 -0.05945,0.05945 -0.151041,0.05945 -0.08677,0 -0.14622,-0.05945 -0.05945,-0.05945 -0.05945,-0.144613 z m 0,1.446134 q 0,-0.08677 0.05945,-0.14622 0.05945,-0.05945 0.147827,-0.05945 0.08998,0 0.149434,0.06106 0.05945,0.05945 0.05945,0.144613 0,0.08355 -0.05945,0.144614 -0.05945,0.05945 -0.151041,0.05945 -0.08837,0 -0.147827,-0.05945 -0.05785,-0.06106 -0.05785,-0.144614 z m 1.896044,0.165503 v -2.488959 h 0.710212 q 0.5656,0 0.939988,0.329397 0.375995,0.329398 0.375995,0.883749 0,0.578454 -0.375995,0.927133 -0.374388,0.34868 -0.965697,0.34868 z m 0.321363,-2.202946 v 1.918539 h 0.361534 q 0.47401,0 0.739135,-0.258697 0.266732,-0.258698 0.266732,-0.724675 0,-0.465976 -0.273159,-0.700572 -0.273159,-0.234595 -0.718247,-0.234595 z m 2.186877,0.549531 q 0.265125,-0.165502 0.612197,-0.165502 0.642727,0 0.642727,0.674863 v 1.144054 H 22.71419 v -0.274766 h -0.008 q -0.184784,0.316543 -0.54471,0.316543 -0.258698,0 -0.411345,-0.139793 -0.152648,-0.139793 -0.152648,-0.377602 0,-0.498113 0.589702,-0.580061 L 22.71419,41.1317 q 0,-0.435448 -0.359927,-0.435448 -0.319756,0 -0.583274,0.215314 z m 0.527036,0.81787 q -0.218527,0.02892 -0.302082,0.109263 -0.08195,0.08034 -0.08195,0.224955 0,0.126938 0.08998,0.207279 0.08998,0.08034 0.237808,0.08034 0.205673,0 0.339039,-0.144614 0.133365,-0.144613 0.133365,-0.36314 v -0.170323 z m 2.103323,0.81787 q -0.102837,0.05624 -0.277979,0.05624 -0.477225,0 -0.477225,-0.528643 v -1.026755 h -0.305295 v -0.260304 h 0.305295 v -0.427414 l 0.313329,-0.09962 v 0.527036 h 0.441875 v 0.260304 h -0.441875 v 0.970517 q 0,0.175143 0.05945,0.250663 0.05945,0.07552 0.197639,0.07552 0.10605,0 0.184784,-0.05945 z m 0.414558,-1.63574 q 0.265125,-0.165502 0.612197,-0.165502 0.642727,0 0.642727,0.674863 v 1.144054 h -0.311723 v -0.274766 h -0.008 q -0.184783,0.316543 -0.54471,0.316543 -0.258698,0 -0.411345,-0.139793 -0.152648,-0.139793 -0.152648,-0.377602 0,-0.498113 0.589702,-0.580061 l 0.527035,-0.07391 q 0,-0.435448 -0.359926,-0.435448 -0.319757,0 -0.583275,0.215314 z m 0.527036,0.81787 q -0.218527,0.02892 -0.302081,0.109263 -0.08195,0.08034 -0.08195,0.224955 0,0.126938 0.08998,0.207279 0.08998,0.08034 0.237808,0.08034 0.205673,0 0.339039,-0.144614 0.133365,-0.144613 0.133365,-0.36314 v -0.170323 z m 2.264004,0.835545 v -2.488959 h 0.731101 q 0.327791,0 0.523822,0.157468 0.196032,0.155861 0.196032,0.414559 0,0.205672 -0.117298,0.36314 -0.11569,0.157468 -0.319756,0.223348 v 0.0064 q 0.253877,0.02892 0.404918,0.192818 0.152647,0.162288 0.152647,0.412952 0,0.321363 -0.231381,0.520608 -0.229775,0.197639 -0.589702,0.197639 z m 0.321363,-2.207766 v 0.779306 h 0.292441 q 0.232988,0 0.364747,-0.112477 0.133366,-0.114084 0.133366,-0.314936 0,-0.351893 -0.469191,-0.351893 z m 0,1.058892 v 0.867681 h 0.385636 q 0.25227,0 0.38885,-0.115691 0.138186,-0.117298 0.138186,-0.324577 0,-0.427413 -0.580061,-0.427413 z m 1.584322,0.279586 q 0,-0.440268 0.245843,-0.694145 0.245843,-0.255484 0.666829,-0.255484 0.400097,0 0.626658,0.245843 0.228168,0.244236 0.228168,0.67647 0,0.420986 -0.242629,0.679683 -0.242629,0.258698 -0.650761,0.258698 -0.39849,0 -0.636299,-0.250664 -0.237809,-0.250663 -0.237809,-0.660401 z m 0.321363,-0.0096 q 0,0.306902 0.154255,0.483652 0.155861,0.176749 0.417772,0.176749 0.269945,0 0.411345,-0.171929 0.1414,-0.173536 0.1414,-0.496506 0,-0.324577 -0.1414,-0.498113 -0.1414,-0.173536 -0.411345,-0.173536 -0.265125,0 -0.419379,0.18157 -0.152648,0.18157 -0.152648,0.498113 z m 3.432159,0.878929 h -0.314936 v -0.295655 h -0.0064 q -0.194425,0.337432 -0.604163,0.337432 -0.337432,0 -0.536677,-0.239416 -0.199245,-0.241022 -0.199245,-0.649154 0,-0.440267 0.224954,-0.705392 0.224954,-0.266732 0.588095,-0.266732 0.36314,0 0.527036,0.2828 h 0.0064 v -1.094242 h 0.314936 z m -0.313329,-1.057286 q 0,-0.213706 -0.1414,-0.356713 -0.139793,-0.144613 -0.345466,-0.144613 -0.250663,0 -0.395277,0.187997 -0.144613,0.186391 -0.144613,0.509361 0,0.297261 0.138186,0.470797 0.139793,0.171929 0.371175,0.171929 0.228168,0 0.372781,-0.168715 0.144614,-0.170323 0.144614,-0.422593 z m 2.321851,-0.719853 -0.806622,2.045477 q -0.224954,0.568813 -0.634693,0.568813 -0.117297,0 -0.200852,-0.02571 v -0.276373 q 0.09159,0.03535 0.17675,0.03535 0.213707,0 0.319757,-0.250663 l 0.136579,-0.32297 -0.697358,-1.773925 h 0.348679 l 0.46437,1.335264 0.03856,0.14622 h 0.008 q 0.0096,-0.04981 0.03856,-0.143006 l 0.485259,-1.338478 z"
       id="text32"
       style="font-size:3.29076px;line-height:125%;font-family:'微软雅黑';letter-spacing:0px;word-spacing:0px;stroke-width:0.264583"
       aria-label="Part 2: Data Body " />
    <path
       d="m 39.00352,42.826891 q -0.573634,-0.626659 -0.573634,-1.516835 0,-0.901424 0.573634,-1.536116 h 0.276372 q -0.57042,0.65076 -0.57042,1.532903 0,0.869287 0.567206,1.520048 z"
       id="text34"
       style="font-size:3.29076px;line-height:125%;font-family:'微软雅黑';letter-spacing:0px;word-spacing:0px;stroke-width:0.264583"
       aria-label="（" />
    <path
       d="m 41.723485,39.534524 0.257091,0.03856 q -0.06749,0.311722 -0.157468,0.581667 h 0.983371 v 0.218527 h -0.202458 q -0.08034,0.944808 -0.411345,1.500767 0.260304,0.353499 0.662008,0.578454 -0.102836,0.1414 -0.173536,0.253877 -0.392063,-0.253877 -0.652368,-0.604163 -0.295654,0.366354 -0.703785,0.636299 -0.0707,-0.09319 -0.183177,-0.202459 0.449908,-0.295654 0.729494,-0.671649 -0.260304,-0.449909 -0.343858,-1.038004 -0.06749,0.118905 -0.1414,0.221741 -0.06427,-0.0932 -0.160682,-0.205672 0.372781,-0.536677 0.498113,-1.307949 z m -2.069579,1.854266 h 0.488472 q 0.0707,-0.122118 0.138186,-0.250663 l 0.231382,0.07391 q -0.05142,0.08998 -0.102837,0.17675 h 0.78734 v 0.208886 q -0.122118,0.314936 -0.369567,0.552745 0.176749,0.08355 0.359926,0.167109 l -0.141399,0.221741 q -0.199246,-0.112477 -0.414559,-0.224955 -0.363141,0.260305 -0.915885,0.411345 -0.05142,-0.102836 -0.109264,-0.224954 0.469191,-0.10605 0.793767,-0.305295 -0.276372,-0.1414 -0.578453,-0.289227 0.102836,-0.147827 0.199245,-0.305295 h -0.366354 z m 0.03535,-1.10549 h 0.739135 V 39.563447 H 40.6662 V 40.2833 h 0.617017 v 0.2121 H 40.6662 v 0.196032 l 0.09641,-0.109264 q 0.298868,0.218527 0.501327,0.385636 l -0.154255,0.179964 Q 40.932931,40.980659 40.6662,40.771773 v 0.366354 h -0.237809 v -0.449909 q -0.29244,0.305295 -0.68129,0.536677 -0.06106,-0.09319 -0.138186,-0.196032 0.404917,-0.218527 0.742349,-0.533463 h -0.662008 z m 2.657674,0.08998 h -0.600949 q -0.01607,0.04178 -0.03535,0.08034 0.05785,0.68129 0.321363,1.166549 0.257091,-0.469191 0.314936,-1.24689 z m -2.210979,1.45899 q 0.228167,0.102836 0.46919,0.215313 0.221741,-0.189604 0.347072,-0.446695 h -0.668435 q -0.07391,0.118904 -0.147827,0.231382 z m 1.002653,-2.188484 0.199245,0.131758 q -0.17675,0.231382 -0.353499,0.427414 -0.07391,-0.06427 -0.173537,-0.134973 0.167109,-0.196032 0.327791,-0.424199 z m -1.365794,0.141399 0.183177,-0.125331 q 0.144614,0.17675 0.298868,0.379208 l -0.199245,0.1414 q -0.1414,-0.208886 -0.2828,-0.395277 z m 4.585854,1.789994 h 0.662008 V 41.16705 h -0.748776 q -0.03535,0.988192 -0.456336,1.526475 -0.07713,-0.09962 -0.173536,-0.202459 0.401704,-0.494899 0.401704,-1.520048 v -1.253317 h 1.896043 v 0.931954 H 45.70839 v -0.09962 h -1.43328 v 0.39849 h 0.745562 v -0.337431 h 0.231382 v 0.337431 h 0.848399 v 0.218528 h -0.848399 v 0.408131 h 0.668436 v 1.086208 h -0.231382 v -0.186391 h -1.099062 v 0.186391 h -0.231382 z m -1.439707,-0.324577 q 0.228168,-0.06267 0.443481,-0.126939 V 40.38935 H 42.95752 v -0.231381 h 0.404918 v -0.613804 h 0.237809 v 0.613804 h 0.350286 v 0.231381 h -0.350286 v 0.660402 q 0.152647,-0.0482 0.298868,-0.09802 0.0032,0.144614 0.01928,0.250663 -0.165502,0.05302 -0.318149,0.104444 v 0.972123 q 0,0.363141 -0.31815,0.369568 -0.09962,0.0032 -0.295654,-0.0032 -0.01286,-0.128546 -0.03856,-0.266732 0.17675,0.01928 0.269945,0.01928 0.144614,0 0.144614,-0.163895 v -0.848399 q -0.220134,0.07391 -0.411345,0.141399 z m 2.789433,-1.320803 h -1.43328 v 0.408131 h 1.43328 z m -0.01928,1.85748 h -1.099062 v 0.478831 h 1.099062 z m 1.324017,-2.268825 0.263518,0.0707 q -0.0707,0.167109 -0.147827,0.324577 h 1.851052 q -0.01285,1.147267 -0.05142,1.587534 -0.03856,0.533463 -0.530249,0.53025 -0.128546,0 -0.456336,-0.01286 -0.01928,-0.122118 -0.05142,-0.266731 0.266731,0.02571 0.472404,0.02571 0.29244,0.0032 0.314936,-0.311723 0.03535,-0.408131 0.04499,-1.320803 h -1.712867 q -0.112477,0.205673 -0.241022,0.395277 h 1.336871 v 0.938381 h -1.163335 v 0.604163 q 0,0.253877 0.266731,0.253877 h 1.497553 q 0.305295,0 0.356714,-0.196032 0.0482,-0.17675 0.07713,-0.472404 0.138186,0.05463 0.25709,0.0932 -0.03856,0.286013 -0.08355,0.465976 -0.08034,0.356714 -0.546318,0.356714 h -1.613243 q -0.469191,0 -0.469191,-0.456336 v -1.462203 q -0.157468,0.215313 -0.334218,0.408131 -0.07391,-0.128545 -0.160681,-0.224954 0.559172,-0.607377 0.82269,-1.330444 z m 0.841972,1.240462 h -0.912672 v 0.501327 h 0.912672 z"
       id="text36"
       style="font-size:3.29076px;line-height:125%;font-family:'微软雅黑';letter-spacing:0px;word-spacing:0px;stroke-width:0.264583"
       aria-label="数据包" />
    <path
       d="m 50.445798,41.862801 -0.271552,0.856433 h -0.224954 l 0.197638,-0.856433 z"
       id="text38"
       style="font-size:3.29076px;line-height:125%;font-family:'微软雅黑';letter-spacing:0px;word-spacing:0px;stroke-width:0.264583"
       aria-label="，" />
    <path
       d="m 53.079003,39.939442 h 2.622325 v 0.276372 h -2.622325 z m -0.237809,2.104929 h 3.088301 v 0.269945 h -3.088301 z m 4.097382,-1.025149 h 0.551138 q 0.0048,-0.250663 0.0048,-0.68129 h -0.404918 v -0.231381 h 0.404918 v -0.5656 h 0.25709 v 0.5656 h 0.6363 v -0.5656 h 0.25709 v 0.5656 h 0.475618 v 0.231381 h -0.475618 v 0.68129 h 0.60095 v 0.231382 h -0.60095 v 0.976944 h -0.25709 v -0.976944 h -0.660402 q -0.0948,0.655581 -0.554352,0.976944 -0.08355,-0.0932 -0.196031,-0.196031 0.39367,-0.249057 0.486865,-0.780913 h -0.525429 z m 0.437054,1.340085 0.761631,0.01607 1.137626,-0.02892 q -0.03535,0.10605 -0.08998,0.253877 l -1.066927,0.0032 -0.774485,-0.01607 q -0.53025,-0.0096 -0.75199,-0.372781 -0.131759,0.122118 -0.385636,0.430627 l -0.131759,-0.266732 q 0.284406,-0.274766 0.411345,-0.39367 v -1.081387 h -0.382422 v -0.237809 h 0.629872 v 1.370614 q 0.199245,0.314936 0.642726,0.32297 z m 0.372782,-1.340085 h 0.639513 v -0.68129 h -0.6363 q 0,0.552745 -0.0032,0.68129 z m -1.295094,-1.439707 q 0.244236,0.305295 0.449908,0.607376 -0.134972,0.08677 -0.237809,0.160682 -0.176749,-0.308509 -0.417772,-0.629872 z m 3.853145,-0.02571 h 0.250664 v 0.491686 h 0.697358 v 0.224954 h -0.697358 v 0.430627 h 0.838758 v 0.224954 h -0.838758 v 0.359927 h 0.703785 v 0.764845 q 0,0.347072 -0.314936,0.350286 -0.09962,0.0032 -0.266731,0 -0.01607,-0.102837 -0.04821,-0.231382 0.157468,0.0096 0.257091,0.0096 0.134973,0 0.134973,-0.160682 v -0.514181 h -0.465977 v 1.192258 h -0.250664 v -1.192258 h -0.443481 v 0.951235 h -0.237809 v -1.169762 h 0.68129 v -0.359927 h -0.922312 v -0.224954 h 0.922312 v -0.430627 h -0.475617 q -0.08195,0.184784 -0.186391,0.350286 -0.10605,-0.06106 -0.218527,-0.122118 0.253877,-0.382422 0.3535,-0.829117 l 0.237808,0.06106 q -0.04178,0.163895 -0.0948,0.314936 h 0.384029 z m 1.831771,-0.0032 h 0.257091 v 2.648034 q 0,0.43384 -0.382423,0.43384 -0.125331,0 -0.430626,-0.0032 -0.01928,-0.125331 -0.05142,-0.279586 0.269945,0.02571 0.404917,0.02571 0.202459,0 0.202459,-0.228167 z m -0.369568,2.288107 h -0.247449 v -1.979598 h 0.247449 z m 2.995106,-2.304175 0.257091,0.03856 q -0.06749,0.311722 -0.157468,0.581667 h 0.983371 v 0.218527 h -0.202458 q -0.08034,0.944808 -0.411345,1.500767 0.260304,0.353499 0.662008,0.578454 -0.102836,0.1414 -0.173536,0.253877 -0.392063,-0.253877 -0.652368,-0.604163 -0.295654,0.366354 -0.703785,0.636299 -0.0707,-0.09319 -0.183177,-0.202459 0.449908,-0.295654 0.729494,-0.671649 -0.260304,-0.449909 -0.343858,-1.038004 -0.06749,0.118905 -0.1414,0.221741 -0.06427,-0.0932 -0.160682,-0.205672 0.372781,-0.536677 0.498113,-1.307949 z m -2.069579,1.854266 h 0.488472 q 0.0707,-0.122118 0.138186,-0.250663 l 0.231382,0.07391 q -0.05142,0.08998 -0.102837,0.17675 h 0.78734 v 0.208886 q -0.122118,0.314936 -0.369567,0.552745 0.176749,0.08355 0.359926,0.167109 l -0.141399,0.221741 q -0.199246,-0.112477 -0.414559,-0.224955 -0.363141,0.260305 -0.915885,0.411345 -0.05142,-0.102836 -0.109264,-0.224954 0.469191,-0.10605 0.793767,-0.305295 -0.276372,-0.1414 -0.578453,-0.289227 0.102836,-0.147827 0.199245,-0.305295 h -0.366354 z m 0.03535,-1.10549 h 0.739135 v -0.719853 h 0.237809 V 40.2833 h 0.617017 v 0.2121 h -0.617017 v 0.196032 l 0.09641,-0.109264 q 0.298868,0.218527 0.501327,0.385636 l -0.154255,0.179964 q -0.17675,-0.167109 -0.443481,-0.375995 v 0.366354 h -0.237809 v -0.449909 q -0.29244,0.305295 -0.68129,0.536677 -0.06106,-0.09319 -0.138186,-0.196032 0.404917,-0.218527 0.742349,-0.533463 h -0.662008 z m 2.657674,0.08998 h -0.600949 q -0.01607,0.04178 -0.03535,0.08034 0.05785,0.68129 0.321363,1.166549 0.257091,-0.469191 0.314936,-1.24689 z m -2.210979,1.45899 q 0.228167,0.102836 0.46919,0.215313 0.221741,-0.189604 0.347072,-0.446695 h -0.668435 q -0.07391,0.118904 -0.147827,0.231382 z m 1.002653,-2.188484 0.199245,0.131758 q -0.17675,0.231382 -0.353499,0.427414 -0.07391,-0.06427 -0.173537,-0.134973 0.167109,-0.196032 0.327791,-0.424199 z m -1.365794,0.141399 0.183177,-0.125331 q 0.144614,0.17675 0.298868,0.379208 l -0.199245,0.1414 q -0.1414,-0.208886 -0.2828,-0.395277 z m 4.585854,1.789994 h 0.662008 V 41.16705 h -0.748776 q -0.03535,0.988192 -0.456336,1.526475 -0.07713,-0.09962 -0.173536,-0.202459 0.401704,-0.494899 0.401704,-1.520048 v -1.253317 h 1.896043 v 0.931954 h -0.231381 v -0.09962 h -1.43328 v 0.39849 h 0.745562 v -0.337431 h 0.231382 v 0.337431 h 0.848399 v 0.218528 h -0.848399 v 0.408131 h 0.668436 v 1.086208 h -0.231382 v -0.186391 h -1.099062 v 0.186391 h -0.231382 z m -1.439707,-0.324577 q 0.228168,-0.06267 0.443481,-0.126939 V 40.38935 h -0.404918 v -0.231381 h 0.404918 v -0.613804 h 0.237809 v 0.613804 h 0.350286 v 0.231381 h -0.350286 v 0.660402 q 0.152647,-0.0482 0.298868,-0.09802 0.0032,0.144614 0.01928,0.250663 -0.165502,0.05302 -0.318149,0.104444 v 0.972123 q 0,0.363141 -0.31815,0.369568 -0.09962,0.0032 -0.295654,-0.0032 -0.01286,-0.128546 -0.03856,-0.266732 0.17675,0.01928 0.269945,0.01928 0.144614,0 0.144614,-0.163895 v -0.848399 q -0.220134,0.07391 -0.411345,0.141399 z m 2.789433,-1.320803 h -1.43328 v 0.408131 h 1.43328 z m -0.01928,1.85748 h -1.099062 v 0.478831 h 1.099062 z"
       id="text40"
       style="font-size:3.29076px;line-height:125%;font-family:'微软雅黑';letter-spacing:0px;word-spacing:0px;stroke-width:0.264583"
       aria-label="二进制数据" />
    <path
       d="m 69.776807,42.826891 h -0.276372 q 0.57042,-0.649154 0.57042,-1.536117 0,-0.870894 -0.567207,-1.516834 h 0.273159 q 0.57042,0.621838 0.57042,1.516834 0,0.904638 -0.57042,1.536117 z"
       id="text42"
       style="font-size:3.29076px;line-height:125%;font-family:'微软雅黑';letter-spacing:0px;word-spacing:0px;stroke-width:0.264583"
       aria-label="）" />
    <path
       d="M 30.546427,8.5129765 H 30.231491 V 7.3962391 h -0.0064 q -0.186391,0.3406451 -0.600949,0.3406451 -0.335825,0 -0.538284,-0.236202 -0.200852,-0.2378088 -0.200852,-0.6523675 0,-0.4418745 0.221741,-0.7069992 0.22174,-0.2651247 0.594522,-0.2651247 0.359927,0 0.523822,0.2827997 h 0.0064 V 5.917968 h 0.314936 z M 30.231491,6.644249 q 0.0016,-0.2104929 -0.134972,-0.35832 -0.134973,-0.1494339 -0.3535,-0.1494339 -0.250663,0 -0.39367,0.1863907 -0.143007,0.1863907 -0.143007,0.5173948 0,0.2988679 0.13658,0.4675836 0.138186,0.1687157 0.361533,0.1687157 0.244237,0 0.385636,-0.1671089 0.143007,-0.1687157 0.1414,-0.419379 z m 2.734802,1.050858 H 32.587084 L 32.174132,7.0041759 Q 32.050407,6.7968966 31.947571,6.722983 31.844735,6.6474627 31.701728,6.6474627 H 31.470347 V 7.695107 H 31.148983 V 5.2061483 h 0.758418 q 0.36314,0 0.568813,0.175143 0.205672,0.175143 0.205672,0.490079 0,0.5173949 -0.552745,0.6716493 v 0.00803 q 0.102837,0.043384 0.17675,0.1237249 0.07552,0.080341 0.194425,0.2747656 z M 31.470347,5.4873412 v 0.8789286 h 0.379208 q 0.220134,0 0.356714,-0.1285453 0.138186,-0.1285453 0.138186,-0.3374315 0,-0.1944248 -0.125332,-0.3036883 Q 32.093791,5.4873412 31.854376,5.4873412 Z M 34.635775,7.695107 H 33.297297 V 5.2061483 h 1.282239 V 5.4921617 H 33.61866 v 0.7969809 h 0.890176 V 6.5735491 H 33.61866 v 0.8371514 h 1.017115 z m 0.355106,-0.4675836 q 0.114084,0.099623 0.305295,0.1638953 0.191211,0.064273 0.363141,0.064273 0.523822,0 0.523822,-0.3727814 0,-0.104443 -0.05624,-0.1879975 Q 36.070662,6.8113579 35.972646,6.7470853 35.87463,6.6828126 35.604685,6.5494469 35.230297,6.3630562 35.111392,6.2039813 34.992488,6.0432997 34.992488,5.8376272 q 0,-0.3101156 0.249057,-0.4916858 0.249056,-0.1815703 0.628265,-0.1815703 0.371174,0 0.544711,0.089982 v 0.350286 q -0.224955,-0.1558612 -0.568813,-0.1558612 -0.228168,0 -0.372782,0.096409 -0.143007,0.094802 -0.143007,0.2651247 0,0.1510408 0.09962,0.2458429 0.09962,0.094802 0.432234,0.2586975 0.366354,0.175143 0.512574,0.350286 0.14622,0.1751429 0.14622,0.39367 0,0.3277905 -0.237808,0.5029335 -0.237809,0.175143 -0.660402,0.175143 -0.147827,0 -0.345465,-0.041777 -0.196032,-0.04017 -0.286014,-0.1012295 z M 38.509809,5.4921617 H 37.791562 V 7.695107 h -0.32297 V 5.4921617 H 36.753559 V 5.2061483 h 1.75625 z"
       id="text44"
       style="font-size:3.29076px;line-height:125%;font-family:'微软雅黑';letter-spacing:0px;word-spacing:0px;stroke-width:0.264583"
       aria-label="qREST" />
    <path
       d="m 38.674204,5.5146571 h 1.542544 Q 40.054459,5.2061483 39.962871,5.0647485 L 40.21032,4.9490577 q 0.08998,0.1381862 0.269945,0.4499086 l -0.231381,0.1156908 h 1.510407 V 5.7524659 H 41.166376 Q 40.994447,6.6699581 40.42724,7.2275234 40.854654,7.5392458 41.785,7.7866955 41.637173,7.9538044 41.560046,8.0662816 40.653802,7.7529524 40.221568,7.4107005 39.787728,7.7481319 38.834885,8.0919906 38.751331,7.9795135 38.642067,7.8413273 39.561166,7.5649549 40.025536,7.2259166 39.439048,6.5992582 39.279974,5.7524659 h -0.60577 z m 2.217406,0.2378088 h -1.354546 q 0.144614,0.7905537 0.690931,1.3063418 0.522216,-0.4852586 0.663615,-1.3063418 z m 1.976385,1.0090807 h 1.11513 V 5.9484975 h -0.612197 q -0.130152,0.3454656 -0.284406,0.6170175 -0.0932,-0.089982 -0.2121,-0.1703225 0.305295,-0.5366767 0.449909,-1.1986851 l 0.260304,0.073914 q -0.06267,0.2394156 -0.134973,0.4531222 h 0.533463 V 4.9779804 h 0.257091 v 0.7455628 h 0.768058 v 0.2249543 h -0.768058 v 0.8130491 h 0.874108 V 6.9865009 H 44.240216 V 8.1112724 H 43.983125 V 6.9865009 h -1.11513 z M 41.900691,6.5687287 Q 42.344172,5.9131476 42.614118,4.981194 l 0.263518,0.077127 Q 42.758731,5.4327095 42.620545,5.7605 V 8.1144861 H 42.366668 V 6.2907494 q -0.163895,0.3036883 -0.350286,0.5575653 -0.04821,-0.1381862 -0.115691,-0.279586 z m 4.605136,0.2474497 h 1.696798 V 8.1209133 H 47.951962 V 7.9216681 H 46.75649 v 0.1992452 h -0.250663 z m -0.06427,-0.6105902 h 0.784127 V 5.7042614 H 46.335504 V 5.4728799 h 0.890177 V 4.9586986 h 0.25709 v 0.5141813 h 0.899818 v 0.2313815 h -0.899818 v 0.5013268 h 0.78734 V 6.4369697 H 46.441554 Z M 45.615651,6.890092 q 0.427413,-0.061059 0.706999,-0.1092636 -0.01928,0.1253317 -0.02892,0.2442361 -0.356713,0.051418 -0.97373,0.1510408 l -0.05142,-0.2378089 q 0.205673,-0.2137065 0.490079,-0.6780765 -0.269945,0.017675 -0.490079,0.03535 L 45.207519,6.0770428 Q 45.503174,5.681766 45.821323,4.9362032 l 0.244236,0.096409 q -0.347072,0.6812901 -0.568813,1.0251488 0.186391,-0.00482 0.38885,-0.011248 0.109263,-0.1863907 0.228168,-0.4065245 l 0.237809,0.1189044 Q 45.985219,6.3694834 45.615651,6.890092 Z m 2.336311,0.1510407 H 46.75649 v 0.6555811 h 1.195472 z m -2.757297,0.6073766 q 0.594522,-0.1156908 1.160121,-0.253877 -0.0096,0.1285453 -0.0096,0.2442361 -0.520608,0.1092635 -1.07978,0.2570906 z m 4.351259,-1.5264756 q 0.359927,-0.507754 0.57524,-1.1569078 l 0.24745,0.080341 q -0.0932,0.2217407 -0.179964,0.4145586 h 1.385076 q -0.04499,1.6421664 -0.06427,2.031016 -0.01607,0.3374314 -0.154254,0.4627631 -0.131759,0.1253317 -0.475618,0.1253317 -0.253877,0 -0.530249,-0.016068 -0.01928,-0.1285453 -0.05463,-0.2827996 0.31815,0.03535 0.57524,0.041777 0.221741,0.00321 0.298868,-0.077127 0.08034,-0.067486 0.08998,-0.2924406 0.02249,-0.4338404 0.05463,-1.7578572 H 50.076173 Q 49.905851,6.0288383 49.745169,6.2570063 49.664828,6.1959473 49.545924,6.1220337 Z M 48.488638,6.9961418 Q 48.822856,6.4755333 48.961043,5.8553022 H 48.511134 V 5.6399888 h 0.453122 V 5.0036895 h 0.221741 v 0.6362993 h 0.417772 v 0.2153134 h -0.417772 v 0.4338404 l 0.08998,-0.093195 q 0.218527,0.1992452 0.453122,0.4241995 L 49.558778,6.7968966 Q 49.359533,6.5687287 49.185997,6.4016198 V 8.124127 H 48.964256 V 6.4691061 Q 48.806788,6.9704328 48.591475,7.2789415 48.549698,7.1407553 48.488638,6.9961418 Z m 1.976385,-0.4595495 0.196031,-0.1028362 q 0.234596,0.4049177 0.485259,0.883749 l -0.228168,0.1221181 q -0.03856,-0.086768 -0.08034,-0.1735362 -0.417772,0.025709 -0.82269,0.057845 -0.09962,0.00964 -0.2828,0.048204 L 49.623051,7.1407553 q 0.102836,-0.0707 0.173536,-0.1735362 0.263518,-0.4145586 0.520609,-1.0187216 l 0.241022,0.099623 Q 50.368614,6.4658924 49.979764,7.0925508 50.442527,7.0796963 50.741395,7.0668418 50.61285,6.8001102 50.465023,6.5365923 Z"
       id="text46"
       style="font-size:3.29076px;line-height:125%;font-family:'微软雅黑';letter-spacing:0px;word-spacing:0px;stroke-width:0.264583"
       aria-label="文件结构" />
  </g>
</svg>
